<svg xmlns="http://www.w3.org/2000/svg" xmlns:xlink="http://www.w3.org/1999/xlink" width="1728" zoomAndPan="magnify" viewBox="0 0 1296 1727.999927" height="2304" preserveAspectRatio="xMidYMid meet" version="1.0"><defs><g/></defs><rect x="-129.6" width="1555.2" fill="#ffffff" y="-172.799993" height="2073.599912" fill-opacity="1"/><rect x="-129.6" width="1555.2" fill="#ffffff" y="-172.799993" height="2073.599912" fill-opacity="1"/><g fill="#52111f" fill-opacity="1"><g transform="translate(129.600017, 229.241201)"><g><path d="M 32.296875 0.46875 C 26.960938 0.46875 22.128906 -0.722656 17.796875 -3.109375 C 13.472656 -5.492188 10.09375 -8.765625 7.65625 -12.921875 C 5.21875 -17.078125 4 -21.742188 4 -26.921875 C 4 -32.097656 5.21875 -36.757812 7.65625 -40.90625 C 10.09375 -45.0625 13.472656 -48.332031 17.796875 -50.71875 C 22.128906 -53.101562 26.960938 -54.296875 32.296875 -54.296875 C 37.628906 -54.296875 42.4375 -53.113281 46.71875 -50.75 C 51 -48.394531 54.367188 -45.128906 56.828125 -40.953125 C 59.296875 -36.773438 60.53125 -32.097656 60.53125 -26.921875 C 60.53125 -21.742188 59.296875 -17.0625 56.828125 -12.875 C 54.367188 -8.695312 51 -5.425781 46.71875 -3.0625 C 42.4375 -0.707031 37.628906 0.46875 32.296875 0.46875 Z M 32.296875 -4.609375 C 36.554688 -4.609375 40.398438 -5.566406 43.828125 -7.484375 C 47.265625 -9.410156 49.957031 -12.078125 51.90625 -15.484375 C 53.851562 -18.898438 54.828125 -22.710938 54.828125 -26.921875 C 54.828125 -31.117188 53.851562 -34.921875 51.90625 -38.328125 C 49.957031 -41.742188 47.265625 -44.410156 43.828125 -46.328125 C 40.398438 -48.253906 36.554688 -49.21875 32.296875 -49.21875 C 28.046875 -49.21875 24.1875 -48.253906 20.71875 -46.328125 C 17.257812 -44.410156 14.539062 -41.742188 12.5625 -38.328125 C 10.59375 -34.921875 9.609375 -31.117188 9.609375 -26.921875 C 9.609375 -22.710938 10.59375 -18.898438 12.5625 -15.484375 C 14.539062 -12.078125 17.257812 -9.410156 20.71875 -7.484375 C 24.1875 -5.566406 28.046875 -4.609375 32.296875 -4.609375 Z M 32.296875 -4.609375 "/></g></g></g><g fill="#52111f" fill-opacity="1"><g transform="translate(194.127671, 229.241201)"><g><path d="M 30.453125 0.46875 C 23.484375 0.46875 18.050781 -1.53125 14.15625 -5.53125 C 10.257812 -9.53125 8.3125 -15.351562 8.3125 -23 L 8.3125 -53.828125 L 14 -53.828125 L 14 -23.21875 C 14 -16.96875 15.40625 -12.300781 18.21875 -9.21875 C 21.039062 -6.144531 25.117188 -4.609375 30.453125 -4.609375 C 35.835938 -4.609375 39.9375 -6.144531 42.75 -9.21875 C 45.570312 -12.300781 46.984375 -16.96875 46.984375 -23.21875 L 46.984375 -53.828125 L 52.53125 -53.828125 L 52.53125 -23 C 52.53125 -15.351562 50.59375 -9.53125 46.71875 -5.53125 C 42.851562 -1.53125 37.429688 0.46875 30.453125 0.46875 Z M 30.453125 0.46875 "/></g></g></g><g fill="#52111f" fill-opacity="1"><g transform="translate(255.040538, 229.241201)"><g><path d="M 45.53125 0 L 33.21875 -17.296875 C 31.832031 -17.148438 30.398438 -17.078125 28.921875 -17.078125 L 14.453125 -17.078125 L 14.453125 0 L 8.765625 0 L 8.765625 -53.828125 L 28.921875 -53.828125 C 35.785156 -53.828125 41.164062 -52.1875 45.0625 -48.90625 C 48.957031 -45.625 50.90625 -41.113281 50.90625 -35.375 C 50.90625 -31.175781 49.84375 -27.625 47.71875 -24.71875 C 45.59375 -21.820312 42.554688 -19.734375 38.609375 -18.453125 L 51.765625 0 Z M 28.765625 -21.921875 C 34.097656 -21.921875 38.171875 -23.097656 40.984375 -25.453125 C 43.804688 -27.816406 45.21875 -31.125 45.21875 -35.375 C 45.21875 -39.726562 43.804688 -43.070312 40.984375 -45.40625 C 38.171875 -47.738281 34.097656 -48.90625 28.765625 -48.90625 L 14.453125 -48.90625 L 14.453125 -21.921875 Z M 28.765625 -21.921875 "/></g></g></g><g fill="#52111f" fill-opacity="1"><g transform="translate(310.646609, 229.241201)"><g/></g></g><g fill="#52111f" fill-opacity="1"><g transform="translate(330.797067, 229.241201)"><g><path d="M 64.671875 -53.828125 L 64.671875 0 L 59.21875 0 L 59.21875 -43.0625 L 38.0625 -6.84375 L 35.375 -6.84375 L 14.234375 -42.84375 L 14.234375 0 L 8.765625 0 L 8.765625 -53.828125 L 13.453125 -53.828125 L 36.84375 -13.921875 L 59.984375 -53.828125 Z M 64.671875 -53.828125 "/></g></g></g><g fill="#52111f" fill-opacity="1"><g transform="translate(404.246295, 229.241201)"><g><path d="M 8.765625 -53.828125 L 14.453125 -53.828125 L 14.453125 0 L 8.765625 0 Z M 8.765625 -53.828125 "/></g></g></g><g fill="#52111f" fill-opacity="1"><g transform="translate(427.473175, 229.241201)"><g><path d="M 23.609375 0.46875 C 19.609375 0.46875 15.773438 -0.171875 12.109375 -1.453125 C 8.441406 -2.742188 5.609375 -4.4375 3.609375 -6.53125 L 5.84375 -10.921875 C 7.789062 -8.972656 10.378906 -7.394531 13.609375 -6.1875 C 16.835938 -4.988281 20.171875 -4.390625 23.609375 -4.390625 C 28.429688 -4.390625 32.046875 -5.269531 34.453125 -7.03125 C 36.859375 -8.800781 38.0625 -11.097656 38.0625 -13.921875 C 38.0625 -16.078125 37.40625 -17.796875 36.09375 -19.078125 C 34.789062 -20.359375 33.191406 -21.34375 31.296875 -22.03125 C 29.398438 -22.726562 26.757812 -23.484375 23.375 -24.296875 C 19.320312 -25.328125 16.09375 -26.316406 13.6875 -27.265625 C 11.28125 -28.210938 9.21875 -29.660156 7.5 -31.609375 C 5.78125 -33.554688 4.921875 -36.195312 4.921875 -39.53125 C 4.921875 -42.25 5.640625 -44.722656 7.078125 -46.953125 C 8.515625 -49.179688 10.71875 -50.960938 13.6875 -52.296875 C 16.664062 -53.628906 20.359375 -54.296875 24.765625 -54.296875 C 27.835938 -54.296875 30.847656 -53.875 33.796875 -53.03125 C 36.742188 -52.1875 39.296875 -51.019531 41.453125 -49.53125 L 39.53125 -44.984375 C 37.269531 -46.472656 34.859375 -47.585938 32.296875 -48.328125 C 29.734375 -49.078125 27.222656 -49.453125 24.765625 -49.453125 C 20.046875 -49.453125 16.492188 -48.539062 14.109375 -46.71875 C 11.722656 -44.894531 10.53125 -42.550781 10.53125 -39.6875 C 10.53125 -37.53125 11.179688 -35.796875 12.484375 -34.484375 C 13.796875 -33.179688 15.4375 -32.179688 17.40625 -31.484375 C 19.382812 -30.796875 22.039062 -30.039062 25.375 -29.21875 C 29.320312 -28.25 32.515625 -27.289062 34.953125 -26.34375 C 37.390625 -25.394531 39.453125 -23.957031 41.140625 -22.03125 C 42.835938 -20.113281 43.6875 -17.515625 43.6875 -14.234375 C 43.6875 -11.515625 42.953125 -9.035156 41.484375 -6.796875 C 40.023438 -4.566406 37.78125 -2.796875 34.75 -1.484375 C 31.726562 -0.179688 28.015625 0.46875 23.609375 0.46875 Z M 23.609375 0.46875 "/></g></g></g><g fill="#52111f" fill-opacity="1"><g transform="translate(474.77293, 229.241201)"><g><path d="M 23.609375 0.46875 C 19.609375 0.46875 15.773438 -0.171875 12.109375 -1.453125 C 8.441406 -2.742188 5.609375 -4.4375 3.609375 -6.53125 L 5.84375 -10.921875 C 7.789062 -8.972656 10.378906 -7.394531 13.609375 -6.1875 C 16.835938 -4.988281 20.171875 -4.390625 23.609375 -4.390625 C 28.429688 -4.390625 32.046875 -5.269531 34.453125 -7.03125 C 36.859375 -8.800781 38.0625 -11.097656 38.0625 -13.921875 C 38.0625 -16.078125 37.40625 -17.796875 36.09375 -19.078125 C 34.789062 -20.359375 33.191406 -21.34375 31.296875 -22.03125 C 29.398438 -22.726562 26.757812 -23.484375 23.375 -24.296875 C 19.320312 -25.328125 16.09375 -26.316406 13.6875 -27.265625 C 11.28125 -28.210938 9.21875 -29.660156 7.5 -31.609375 C 5.78125 -33.554688 4.921875 -36.195312 4.921875 -39.53125 C 4.921875 -42.25 5.640625 -44.722656 7.078125 -46.953125 C 8.515625 -49.179688 10.71875 -50.960938 13.6875 -52.296875 C 16.664062 -53.628906 20.359375 -54.296875 24.765625 -54.296875 C 27.835938 -54.296875 30.847656 -53.875 33.796875 -53.03125 C 36.742188 -52.1875 39.296875 -51.019531 41.453125 -49.53125 L 39.53125 -44.984375 C 37.269531 -46.472656 34.859375 -47.585938 32.296875 -48.328125 C 29.734375 -49.078125 27.222656 -49.453125 24.765625 -49.453125 C 20.046875 -49.453125 16.492188 -48.539062 14.109375 -46.71875 C 11.722656 -44.894531 10.53125 -42.550781 10.53125 -39.6875 C 10.53125 -37.53125 11.179688 -35.796875 12.484375 -34.484375 C 13.796875 -33.179688 15.4375 -32.179688 17.40625 -31.484375 C 19.382812 -30.796875 22.039062 -30.039062 25.375 -29.21875 C 29.320312 -28.25 32.515625 -27.289062 34.953125 -26.34375 C 37.390625 -25.394531 39.453125 -23.957031 41.140625 -22.03125 C 42.835938 -20.113281 43.6875 -17.515625 43.6875 -14.234375 C 43.6875 -11.515625 42.953125 -9.035156 41.484375 -6.796875 C 40.023438 -4.566406 37.78125 -2.796875 34.75 -1.484375 C 31.726562 -0.179688 28.015625 0.46875 23.609375 0.46875 Z M 23.609375 0.46875 "/></g></g></g><g fill="#52111f" fill-opacity="1"><g transform="translate(522.072685, 229.241201)"><g><path d="M 8.765625 -53.828125 L 14.453125 -53.828125 L 14.453125 0 L 8.765625 0 Z M 8.765625 -53.828125 "/></g></g></g><g fill="#52111f" fill-opacity="1"><g transform="translate(545.299566, 229.241201)"><g><path d="M 32.296875 0.46875 C 26.960938 0.46875 22.128906 -0.722656 17.796875 -3.109375 C 13.472656 -5.492188 10.09375 -8.765625 7.65625 -12.921875 C 5.21875 -17.078125 4 -21.742188 4 -26.921875 C 4 -32.097656 5.21875 -36.757812 7.65625 -40.90625 C 10.09375 -45.0625 13.472656 -48.332031 17.796875 -50.71875 C 22.128906 -53.101562 26.960938 -54.296875 32.296875 -54.296875 C 37.628906 -54.296875 42.4375 -53.113281 46.71875 -50.75 C 51 -48.394531 54.367188 -45.128906 56.828125 -40.953125 C 59.296875 -36.773438 60.53125 -32.097656 60.53125 -26.921875 C 60.53125 -21.742188 59.296875 -17.0625 56.828125 -12.875 C 54.367188 -8.695312 51 -5.425781 46.71875 -3.0625 C 42.4375 -0.707031 37.628906 0.46875 32.296875 0.46875 Z M 32.296875 -4.609375 C 36.554688 -4.609375 40.398438 -5.566406 43.828125 -7.484375 C 47.265625 -9.410156 49.957031 -12.078125 51.90625 -15.484375 C 53.851562 -18.898438 54.828125 -22.710938 54.828125 -26.921875 C 54.828125 -31.117188 53.851562 -34.921875 51.90625 -38.328125 C 49.957031 -41.742188 47.265625 -44.410156 43.828125 -46.328125 C 40.398438 -48.253906 36.554688 -49.21875 32.296875 -49.21875 C 28.046875 -49.21875 24.1875 -48.253906 20.71875 -46.328125 C 17.257812 -44.410156 14.539062 -41.742188 12.5625 -38.328125 C 10.59375 -34.921875 9.609375 -31.117188 9.609375 -26.921875 C 9.609375 -22.710938 10.59375 -18.898438 12.5625 -15.484375 C 14.539062 -12.078125 17.257812 -9.410156 20.71875 -7.484375 C 24.1875 -5.566406 28.046875 -4.609375 32.296875 -4.609375 Z M 32.296875 -4.609375 "/></g></g></g><g fill="#52111f" fill-opacity="1"><g transform="translate(609.827209, 229.241201)"><g><path d="M 53.75 -53.828125 L 53.75 0 L 49.0625 0 L 14.453125 -43.6875 L 14.453125 0 L 8.765625 0 L 8.765625 -53.828125 L 13.453125 -53.828125 L 48.140625 -10.15625 L 48.140625 -53.828125 Z M 53.75 -53.828125 "/></g></g></g><g fill="#52111f" fill-opacity="1"><g transform="translate(672.365596, 229.241201)"><g/></g></g><path stroke-linecap="butt" transform="matrix(-0.75, -0.000562096, 0.000562096, -0.75, 2205.33829, 202.241203)" fill="none" stroke-linejoin="miter" d="M -0.00057378 1.998689 L 2001.442943 1.998683 " stroke="#52111f" stroke-width="4" stroke-opacity="1" stroke-miterlimit="4"/><g fill="#8a8665" fill-opacity="1"><g transform="translate(181.599211, 933.439037)"><g><path d="M 96.015625 9.171875 C 93.367188 12.421875 90.140625 14.894531 86.328125 16.59375 C 82.515625 18.289062 78.34375 19.140625 73.8125 19.140625 C 69.4375 19.140625 65.472656 18.570312 61.921875 17.4375 C 58.378906 16.300781 54.816406 14.429688 51.234375 11.828125 C 47.648438 9.222656 43.628906 5.582031 39.171875 0.90625 C 32.304688 -0.226562 26.191406 -2.679688 20.828125 -6.453125 C 15.472656 -10.222656 11.300781 -14.976562 8.3125 -20.71875 C 5.332031 -26.457031 3.84375 -32.757812 3.84375 -39.625 C 3.84375 -47.476562 5.75 -54.535156 9.5625 -60.796875 C 13.375 -67.066406 18.617188 -71.972656 25.296875 -75.515625 C 31.984375 -79.066406 39.515625 -80.84375 47.890625 -80.84375 C 56.265625 -80.84375 63.789062 -79.066406 70.46875 -75.515625 C 77.15625 -71.972656 82.40625 -67.066406 86.21875 -60.796875 C 90.03125 -54.535156 91.9375 -47.476562 91.9375 -39.625 C 91.9375 -30.71875 89.5 -22.847656 84.625 -16.015625 C 79.757812 -9.191406 73.210938 -4.304688 64.984375 -1.359375 C 66.492188 0.296875 67.984375 1.460938 69.453125 2.140625 C 70.929688 2.828125 72.535156 3.171875 74.265625 3.171875 C 78.722656 3.171875 82.722656 1.320312 86.265625 -2.375 Z M 26.5 -39.625 C 26.5 -35.175781 27.441406 -31.234375 29.328125 -27.796875 C 31.210938 -24.359375 33.773438 -21.695312 37.015625 -19.8125 C 40.265625 -17.925781 43.890625 -16.984375 47.890625 -16.984375 C 51.890625 -16.984375 55.507812 -17.925781 58.75 -19.8125 C 62 -21.695312 64.566406 -24.359375 66.453125 -27.796875 C 68.347656 -31.234375 69.296875 -35.175781 69.296875 -39.625 C 69.296875 -44.082031 68.347656 -48.023438 66.453125 -51.453125 C 64.566406 -54.890625 62 -57.550781 58.75 -59.4375 C 55.507812 -61.320312 51.890625 -62.265625 47.890625 -62.265625 C 43.890625 -62.265625 40.265625 -61.320312 37.015625 -59.4375 C 33.773438 -57.550781 31.210938 -54.890625 29.328125 -51.453125 C 27.441406 -48.023438 26.5 -44.082031 26.5 -39.625 Z M 26.5 -39.625 "/></g></g></g><g fill="#8a8665" fill-opacity="1"><g transform="translate(277.38343, 933.439037)"><g><path d="M 44.5 1.578125 C 32.71875 1.578125 23.5625 -1.625 17.03125 -8.03125 C 10.507812 -14.445312 7.25 -23.546875 7.25 -35.328125 L 7.25 -79.25 L 29.65625 -79.25 L 29.65625 -36 C 29.65625 -23.320312 34.675781 -16.984375 44.71875 -16.984375 C 54.6875 -16.984375 59.671875 -23.320312 59.671875 -36 L 59.671875 -79.25 L 81.75 -79.25 L 81.75 -35.328125 C 81.75 -23.546875 78.484375 -14.445312 71.953125 -8.03125 C 65.421875 -1.625 56.269531 1.578125 44.5 1.578125 Z M 44.5 1.578125 "/></g></g></g><g fill="#8a8665" fill-opacity="1"><g transform="translate(366.374437, 933.439037)"><g><path d="M 61.03125 -15.390625 L 27.515625 -15.390625 L 21.28125 0 L -1.578125 0 L 33.40625 -79.25 L 55.484375 -79.25 L 90.578125 0 L 67.25 0 Z M 54.453125 -31.921875 L 44.265625 -57.28125 L 34.078125 -31.921875 Z M 54.453125 -31.921875 "/></g></g></g><g fill="#8a8665" fill-opacity="1"><g transform="translate(455.365444, 933.439037)"><g><path d="M 7.921875 -79.25 L 30.34375 -79.25 L 30.34375 -17.78125 L 68.15625 -17.78125 L 68.15625 0 L 7.921875 0 Z M 7.921875 -79.25 "/></g></g></g><g fill="#8a8665" fill-opacity="1"><g transform="translate(524.429723, 933.439037)"><g><path d="M 7.921875 -79.25 L 30.34375 -79.25 L 30.34375 0 L 7.921875 0 Z M 7.921875 -79.25 "/></g></g></g><g fill="#8a8665" fill-opacity="1"><g transform="translate(562.811363, 933.439037)"><g><path d="M 24.796875 -61.484375 L 0.453125 -61.484375 L 0.453125 -79.25 L 71.4375 -79.25 L 71.4375 -61.484375 L 47.21875 -61.484375 L 47.21875 0 L 24.796875 0 Z M 24.796875 -61.484375 "/></g></g></g><g fill="#8a8665" fill-opacity="1"><g transform="translate(634.706135, 933.439037)"><g><path d="M 50.375 -28.421875 L 50.375 0 L 27.96875 0 L 27.96875 -28.75 L -2.265625 -79.25 L 21.390625 -79.25 L 40.1875 -47.78125 L 58.984375 -79.25 L 80.71875 -79.25 Z M 50.375 -28.421875 "/></g></g></g><g fill="#8a8665" fill-opacity="1"><g transform="translate(713.167666, 933.439037)"><g/></g></g><g fill="#8a8665" fill-opacity="1"><g transform="translate(746.114714, 933.439037)"><g><path d="M 47.4375 1.578125 C 39.132812 1.578125 31.679688 -0.171875 25.078125 -3.671875 C 18.472656 -7.179688 13.28125 -12.066406 9.5 -18.328125 C 5.726562 -24.597656 3.84375 -31.695312 3.84375 -39.625 C 3.84375 -47.550781 5.726562 -54.644531 9.5 -60.90625 C 13.28125 -67.175781 18.472656 -72.066406 25.078125 -75.578125 C 31.679688 -79.085938 39.132812 -80.84375 47.4375 -80.84375 C 54.6875 -80.84375 61.21875 -79.554688 67.03125 -76.984375 C 72.84375 -74.421875 77.671875 -70.722656 81.515625 -65.890625 L 67.25 -52.984375 C 62.113281 -59.171875 55.890625 -62.265625 48.578125 -62.265625 C 44.273438 -62.265625 40.441406 -61.320312 37.078125 -59.4375 C 33.722656 -57.550781 31.117188 -54.890625 29.265625 -51.453125 C 27.421875 -48.023438 26.5 -44.082031 26.5 -39.625 C 26.5 -35.175781 27.421875 -31.234375 29.265625 -27.796875 C 31.117188 -24.359375 33.722656 -21.695312 37.078125 -19.8125 C 40.441406 -17.925781 44.273438 -16.984375 48.578125 -16.984375 C 55.890625 -16.984375 62.113281 -20.078125 67.25 -26.265625 L 81.515625 -13.359375 C 77.671875 -8.523438 72.84375 -4.828125 67.03125 -2.265625 C 61.21875 0.296875 54.6875 1.578125 47.4375 1.578125 Z M 47.4375 1.578125 "/></g></g></g><g fill="#8a8665" fill-opacity="1"><g transform="translate(829.671148, 933.439037)"><g><path d="M 61.03125 -15.390625 L 27.515625 -15.390625 L 21.28125 0 L -1.578125 0 L 33.40625 -79.25 L 55.484375 -79.25 L 90.578125 0 L 67.25 0 Z M 54.453125 -31.921875 L 44.265625 -57.28125 L 34.078125 -31.921875 Z M 54.453125 -31.921875 "/></g></g></g><g fill="#8a8665" fill-opacity="1"><g transform="translate(918.662136, 933.439037)"><g><path d="M 42.5625 -21.0625 L 30.34375 -21.0625 L 30.34375 0 L 7.921875 0 L 7.921875 -79.25 L 44.15625 -79.25 C 51.320312 -79.25 57.546875 -78.0625 62.828125 -75.6875 C 68.117188 -73.3125 72.195312 -69.914062 75.0625 -65.5 C 77.925781 -61.082031 79.359375 -55.890625 79.359375 -49.921875 C 79.359375 -44.191406 78.019531 -39.191406 75.34375 -34.921875 C 72.664062 -30.660156 68.835938 -27.320312 63.859375 -24.90625 L 80.953125 0 L 56.953125 0 Z M 56.71875 -49.921875 C 56.71875 -53.628906 55.546875 -56.5 53.203125 -58.53125 C 50.867188 -60.570312 47.398438 -61.59375 42.796875 -61.59375 L 30.34375 -61.59375 L 30.34375 -38.375 L 42.796875 -38.375 C 47.398438 -38.375 50.867188 -39.375 53.203125 -41.375 C 55.546875 -43.375 56.71875 -46.222656 56.71875 -49.921875 Z M 56.71875 -49.921875 "/></g></g></g><g fill="#8a8665" fill-opacity="1"><g transform="translate(1002.445003, 933.439037)"><g><path d="M 71.546875 -17.328125 L 71.546875 0 L 7.921875 0 L 7.921875 -79.25 L 70.078125 -79.25 L 70.078125 -61.9375 L 30.109375 -61.9375 L 30.109375 -48.578125 L 65.328125 -48.578125 L 65.328125 -31.8125 L 30.109375 -31.8125 L 30.109375 -17.328125 Z M 71.546875 -17.328125 "/></g></g></g><g fill="#384259" fill-opacity="1"><g transform="translate(183.800887, 1267.273227)"><g><path d="M 56.6875 -14.296875 L 25.5625 -14.296875 L 19.765625 0 L -1.46875 0 L 31.03125 -73.625 L 51.53125 -73.625 L 84.140625 0 L 62.46875 0 Z M 50.59375 -29.65625 L 41.125 -53.21875 L 31.65625 -29.65625 Z M 50.59375 -29.65625 "/></g></g></g><g fill="#384259" fill-opacity="1"><g transform="translate(266.464047, 1267.273227)"><g><path d="M 77.40625 -73.625 L 77.40625 0 L 60.265625 0 L 27.765625 -39.234375 L 27.765625 0 L 7.359375 0 L 7.359375 -73.625 L 24.5 -73.625 L 57 -34.390625 L 57 -73.625 Z M 77.40625 -73.625 "/></g></g></g><g fill="#384259" fill-opacity="1"><g transform="translate(351.230602, 1267.273227)"><g><path d="M 7.359375 -73.625 L 42.171875 -73.625 C 50.234375 -73.625 57.382812 -72.113281 63.625 -69.09375 C 69.863281 -66.082031 74.703125 -61.804688 78.140625 -56.265625 C 81.578125 -50.722656 83.296875 -44.238281 83.296875 -36.8125 C 83.296875 -29.375 81.578125 -22.882812 78.140625 -17.34375 C 74.703125 -11.8125 69.863281 -7.535156 63.625 -4.515625 C 57.382812 -1.503906 50.234375 0 42.171875 0 L 7.359375 0 Z M 41.328125 -16.609375 C 47.640625 -16.609375 52.707031 -18.394531 56.53125 -21.96875 C 60.351562 -25.550781 62.265625 -30.5 62.265625 -36.8125 C 62.265625 -43.125 60.351562 -48.066406 56.53125 -51.640625 C 52.707031 -55.210938 47.640625 -57 41.328125 -57 L 28.1875 -57 L 28.1875 -16.609375 Z M 41.328125 -16.609375 "/></g></g></g><g fill="#384259" fill-opacity="1"><g transform="translate(438.100541, 1267.273227)"><g/></g></g><g fill="#384259" fill-opacity="1"><g transform="translate(468.704847, 1267.273227)"><g><path d="M 122.84375 -73.625 L 98.96875 0 L 76.671875 0 L 62.578125 -44.796875 L 47.859375 0 L 25.5625 0 L 1.6875 -73.625 L 23.140625 -73.625 L 37.96875 -26.609375 L 53.53125 -73.625 L 72.671875 -73.625 L 87.5 -26.1875 L 102.96875 -73.625 Z M 122.84375 -73.625 "/></g></g></g><g fill="#384259" fill-opacity="1"><g transform="translate(593.225446, 1267.273227)"><g><path d="M 66.46875 -16.09375 L 66.46875 0 L 7.359375 0 L 7.359375 -73.625 L 65.09375 -73.625 L 65.09375 -57.53125 L 27.96875 -57.53125 L 27.96875 -45.125 L 60.6875 -45.125 L 60.6875 -29.546875 L 27.96875 -29.546875 L 27.96875 -16.09375 Z M 66.46875 -16.09375 "/></g></g></g><g fill="#384259" fill-opacity="1"><g transform="translate(663.899305, 1267.273227)"><g><path d="M 7.359375 -73.625 L 28.1875 -73.625 L 28.1875 -16.515625 L 63.3125 -16.515625 L 63.3125 0 L 7.359375 0 Z M 7.359375 -73.625 "/></g></g></g><g fill="#384259" fill-opacity="1"><g transform="translate(728.052665, 1267.273227)"><g><path d="M 7.359375 -73.625 L 28.1875 -73.625 L 28.1875 -16.515625 L 63.3125 -16.515625 L 63.3125 0 L 7.359375 0 Z M 7.359375 -73.625 "/></g></g></g><g fill="#384259" fill-opacity="1"><g transform="translate(792.206025, 1267.273227)"><g><path d="M 77.40625 -73.625 L 77.40625 0 L 60.265625 0 L 27.765625 -39.234375 L 27.765625 0 L 7.359375 0 L 7.359375 -73.625 L 24.5 -73.625 L 57 -34.390625 L 57 -73.625 Z M 77.40625 -73.625 "/></g></g></g><g fill="#384259" fill-opacity="1"><g transform="translate(876.972551, 1267.273227)"><g><path d="M 66.46875 -16.09375 L 66.46875 0 L 7.359375 0 L 7.359375 -73.625 L 65.09375 -73.625 L 65.09375 -57.53125 L 27.96875 -57.53125 L 27.96875 -45.125 L 60.6875 -45.125 L 60.6875 -29.546875 L 27.96875 -29.546875 L 27.96875 -16.09375 Z M 66.46875 -16.09375 "/></g></g></g><g fill="#384259" fill-opacity="1"><g transform="translate(947.646372, 1267.273227)"><g><path d="M 33.234375 1.46875 C 27.273438 1.46875 21.488281 0.734375 15.875 -0.734375 C 10.269531 -2.203125 5.710938 -4.164062 2.203125 -6.625 L 9.046875 -21.984375 C 12.335938 -19.804688 16.15625 -18.050781 20.5 -16.71875 C 24.851562 -15.382812 29.132812 -14.71875 33.34375 -14.71875 C 41.332031 -14.71875 45.328125 -16.71875 45.328125 -20.71875 C 45.328125 -22.820312 44.1875 -24.378906 41.90625 -25.390625 C 39.632812 -26.410156 35.972656 -27.484375 30.921875 -28.609375 C 25.378906 -29.796875 20.75 -31.070312 17.03125 -32.4375 C 13.320312 -33.8125 10.132812 -36.003906 7.46875 -39.015625 C 4.800781 -42.035156 3.46875 -46.101562 3.46875 -51.21875 C 3.46875 -55.707031 4.691406 -59.753906 7.140625 -63.359375 C 9.597656 -66.972656 13.265625 -69.832031 18.140625 -71.9375 C 23.015625 -74.039062 28.992188 -75.09375 36.078125 -75.09375 C 40.910156 -75.09375 45.675781 -74.546875 50.375 -73.453125 C 55.070312 -72.367188 59.207031 -70.773438 62.78125 -68.671875 L 56.375 -53.21875 C 49.363281 -57 42.5625 -58.890625 35.96875 -58.890625 C 31.832031 -58.890625 28.816406 -58.273438 26.921875 -57.046875 C 25.023438 -55.828125 24.078125 -54.234375 24.078125 -52.265625 C 24.078125 -50.304688 25.195312 -48.832031 27.4375 -47.84375 C 29.6875 -46.863281 33.300781 -45.847656 38.28125 -44.796875 C 43.894531 -43.609375 48.539062 -42.328125 52.21875 -40.953125 C 55.894531 -39.585938 59.082031 -37.414062 61.78125 -34.4375 C 64.488281 -31.457031 65.84375 -27.410156 65.84375 -22.296875 C 65.84375 -17.878906 64.613281 -13.878906 62.15625 -10.296875 C 59.695312 -6.722656 56.015625 -3.867188 51.109375 -1.734375 C 46.203125 0.398438 40.242188 1.46875 33.234375 1.46875 Z M 33.234375 1.46875 "/></g></g></g><g fill="#384259" fill-opacity="1"><g transform="translate(1015.691002, 1267.273227)"><g><path d="M 33.234375 1.46875 C 27.273438 1.46875 21.488281 0.734375 15.875 -0.734375 C 10.269531 -2.203125 5.710938 -4.164062 2.203125 -6.625 L 9.046875 -21.984375 C 12.335938 -19.804688 16.15625 -18.050781 20.5 -16.71875 C 24.851562 -15.382812 29.132812 -14.71875 33.34375 -14.71875 C 41.332031 -14.71875 45.328125 -16.71875 45.328125 -20.71875 C 45.328125 -22.820312 44.1875 -24.378906 41.90625 -25.390625 C 39.632812 -26.410156 35.972656 -27.484375 30.921875 -28.609375 C 25.378906 -29.796875 20.75 -31.070312 17.03125 -32.4375 C 13.320312 -33.8125 10.132812 -36.003906 7.46875 -39.015625 C 4.800781 -42.035156 3.46875 -46.101562 3.46875 -51.21875 C 3.46875 -55.707031 4.691406 -59.753906 7.140625 -63.359375 C 9.597656 -66.972656 13.265625 -69.832031 18.140625 -71.9375 C 23.015625 -74.039062 28.992188 -75.09375 36.078125 -75.09375 C 40.910156 -75.09375 45.675781 -74.546875 50.375 -73.453125 C 55.070312 -72.367188 59.207031 -70.773438 62.78125 -68.671875 L 56.375 -53.21875 C 49.363281 -57 42.5625 -58.890625 35.96875 -58.890625 C 31.832031 -58.890625 28.816406 -58.273438 26.921875 -57.046875 C 25.023438 -55.828125 24.078125 -54.234375 24.078125 -52.265625 C 24.078125 -50.304688 25.195312 -48.832031 27.4375 -47.84375 C 29.6875 -46.863281 33.300781 -45.847656 38.28125 -44.796875 C 43.894531 -43.609375 48.539062 -42.328125 52.21875 -40.953125 C 55.894531 -39.585938 59.082031 -37.414062 61.78125 -34.4375 C 64.488281 -31.457031 65.84375 -27.410156 65.84375 -22.296875 C 65.84375 -17.878906 64.613281 -13.878906 62.15625 -10.296875 C 59.695312 -6.722656 56.015625 -3.867188 51.109375 -1.734375 C 46.203125 0.398438 40.242188 1.46875 33.234375 1.46875 Z M 33.234375 1.46875 "/></g></g></g><g fill="#5a5f6d" fill-opacity="1"><g transform="translate(183.800887, 1137.273886)"><g><path d="M 26.234375 -53.546875 L 26.234375 -38.46875 L 56.484375 -38.46875 L 56.484375 -23.5 L 26.234375 -23.5 L 26.234375 0 L 6.859375 0 L 6.859375 -68.515625 L 60.59375 -68.515625 L 60.59375 -53.546875 Z M 26.234375 -53.546875 "/></g></g></g><g fill="#5a5f6d" fill-opacity="1"><g transform="translate(246.644194, 1137.273886)"><g><path d="M 41.40625 1.375 C 34.164062 1.375 27.65625 -0.15625 21.875 -3.21875 C 16.101562 -6.289062 11.566406 -10.535156 8.265625 -15.953125 C 4.972656 -21.367188 3.328125 -27.472656 3.328125 -34.265625 C 3.328125 -41.046875 4.972656 -47.144531 8.265625 -52.5625 C 11.566406 -57.976562 16.101562 -62.21875 21.875 -65.28125 C 27.65625 -68.351562 34.164062 -69.890625 41.40625 -69.890625 C 48.65625 -69.890625 55.164062 -68.351562 60.9375 -65.28125 C 66.707031 -62.21875 71.238281 -57.976562 74.53125 -52.5625 C 77.832031 -47.144531 79.484375 -41.046875 79.484375 -34.265625 C 79.484375 -27.472656 77.832031 -21.367188 74.53125 -15.953125 C 71.238281 -10.535156 66.707031 -6.289062 60.9375 -3.21875 C 55.164062 -0.15625 48.65625 1.375 41.40625 1.375 Z M 41.40625 -14.6875 C 44.863281 -14.6875 47.992188 -15.5 50.796875 -17.125 C 53.609375 -18.757812 55.828125 -21.0625 57.453125 -24.03125 C 59.085938 -27 59.90625 -30.410156 59.90625 -34.265625 C 59.90625 -38.109375 59.085938 -41.515625 57.453125 -44.484375 C 55.828125 -47.453125 53.609375 -49.753906 50.796875 -51.390625 C 47.992188 -53.023438 44.863281 -53.84375 41.40625 -53.84375 C 37.945312 -53.84375 34.8125 -53.023438 32 -51.390625 C 29.195312 -49.753906 26.976562 -47.453125 25.34375 -44.484375 C 23.71875 -41.515625 22.90625 -38.109375 22.90625 -34.265625 C 22.90625 -30.410156 23.71875 -27 25.34375 -24.03125 C 26.976562 -21.0625 29.195312 -18.757812 32 -17.125 C 34.8125 -15.5 37.945312 -14.6875 41.40625 -14.6875 Z M 41.40625 -14.6875 "/></g></g></g><g fill="#5a5f6d" fill-opacity="1"><g transform="translate(329.456407, 1137.273886)"><g><path d="M 36.8125 -18.203125 L 26.234375 -18.203125 L 26.234375 0 L 6.859375 0 L 6.859375 -68.515625 L 38.171875 -68.515625 C 44.378906 -68.515625 49.765625 -67.488281 54.328125 -65.4375 C 58.898438 -63.382812 62.425781 -60.445312 64.90625 -56.625 C 67.382812 -52.8125 68.625 -48.328125 68.625 -43.171875 C 68.625 -38.210938 67.460938 -33.890625 65.140625 -30.203125 C 62.828125 -26.515625 59.515625 -23.625 55.203125 -21.53125 L 69.984375 0 L 49.234375 0 Z M 49.046875 -43.171875 C 49.046875 -46.367188 48.03125 -48.847656 46 -50.609375 C 43.976562 -52.367188 40.976562 -53.25 37 -53.25 L 26.234375 -53.25 L 26.234375 -33.1875 L 37 -33.1875 C 40.976562 -33.1875 43.976562 -34.050781 46 -35.78125 C 48.03125 -37.507812 49.046875 -39.972656 49.046875 -43.171875 Z M 49.046875 -43.171875 "/></g></g></g><g fill="#5a5f6d" fill-opacity="1"><g transform="translate(401.892632, 1137.273886)"><g/></g></g><g fill="#5a5f6d" fill-opacity="1"><g transform="translate(430.377698, 1137.273886)"><g><path d="M 21.4375 -53.15625 L 0.390625 -53.15625 L 0.390625 -68.515625 L 61.765625 -68.515625 L 61.765625 -53.15625 L 40.828125 -53.15625 L 40.828125 0 L 21.4375 0 Z M 21.4375 -53.15625 "/></g></g></g><g fill="#5a5f6d" fill-opacity="1"><g transform="translate(492.535802, 1137.273886)"><g><path d="M 72.046875 -68.515625 L 72.046875 0 L 52.671875 0 L 52.671875 -26.71875 L 26.234375 -26.71875 L 26.234375 0 L 6.859375 0 L 6.859375 -68.515625 L 26.234375 -68.515625 L 26.234375 -42.78125 L 52.671875 -42.78125 L 52.671875 -68.515625 Z M 72.046875 -68.515625 "/></g></g></g><g fill="#5a5f6d" fill-opacity="1"><g transform="translate(571.432541, 1137.273886)"><g><path d="M 61.859375 -14.984375 L 61.859375 0 L 6.859375 0 L 6.859375 -68.515625 L 60.59375 -68.515625 L 60.59375 -53.546875 L 26.03125 -53.546875 L 26.03125 -42 L 56.484375 -42 L 56.484375 -27.5 L 26.03125 -27.5 L 26.03125 -14.984375 Z M 61.859375 -14.984375 "/></g></g></g><g fill="#5a5f6d" fill-opacity="1"><g transform="translate(637.212465, 1137.273886)"><g/></g></g><g fill="#5a5f6d" fill-opacity="1"><g transform="translate(665.69753, 1137.273886)"><g><path d="M 72.046875 -68.515625 L 72.046875 0 L 52.671875 0 L 52.671875 -26.71875 L 26.234375 -26.71875 L 26.234375 0 L 6.859375 0 L 6.859375 -68.515625 L 26.234375 -68.515625 L 26.234375 -42.78125 L 52.671875 -42.78125 L 52.671875 -68.515625 Z M 72.046875 -68.515625 "/></g></g></g><g fill="#5a5f6d" fill-opacity="1"><g transform="translate(744.59425, 1137.273886)"><g><path d="M 61.859375 -14.984375 L 61.859375 0 L 6.859375 0 L 6.859375 -68.515625 L 60.59375 -68.515625 L 60.59375 -53.546875 L 26.03125 -53.546875 L 26.03125 -42 L 56.484375 -42 L 56.484375 -27.5 L 26.03125 -27.5 L 26.03125 -14.984375 Z M 61.859375 -14.984375 "/></g></g></g><g fill="#5a5f6d" fill-opacity="1"><g transform="translate(810.374173, 1137.273886)"><g><path d="M 52.765625 -13.3125 L 23.78125 -13.3125 L 18.40625 0 L -1.375 0 L 28.875 -68.515625 L 47.96875 -68.515625 L 78.3125 0 L 58.140625 0 Z M 47.078125 -27.609375 L 38.28125 -49.53125 L 29.46875 -27.609375 Z M 47.078125 -27.609375 "/></g></g></g><g fill="#5a5f6d" fill-opacity="1"><g transform="translate(887.313161, 1137.273886)"><g><path d="M 6.859375 -68.515625 L 26.234375 -68.515625 L 26.234375 -15.375 L 58.9375 -15.375 L 58.9375 0 L 6.859375 0 Z M 6.859375 -68.515625 "/></g></g></g><g fill="#5a5f6d" fill-opacity="1"><g transform="translate(947.0241, 1137.273886)"><g><path d="M 21.4375 -53.15625 L 0.390625 -53.15625 L 0.390625 -68.515625 L 61.765625 -68.515625 L 61.765625 -53.15625 L 40.828125 -53.15625 L 40.828125 0 L 21.4375 0 Z M 21.4375 -53.15625 "/></g></g></g><g fill="#5a5f6d" fill-opacity="1"><g transform="translate(1009.182223, 1137.273886)"><g><path d="M 72.046875 -68.515625 L 72.046875 0 L 52.671875 0 L 52.671875 -26.71875 L 26.234375 -26.71875 L 26.234375 0 L 6.859375 0 L 6.859375 -68.515625 L 26.234375 -68.515625 L 26.234375 -42.78125 L 52.671875 -42.78125 L 52.671875 -68.515625 Z M 72.046875 -68.515625 "/></g></g></g><g fill="#af7531" fill-opacity="1"><g transform="translate(186.002575, 1529.386847)"><g><path d="M 179.171875 -107.390625 L 144.359375 0 L 111.828125 0 L 91.28125 -65.34375 L 69.796875 0 L 37.28125 0 L 2.453125 -107.390625 L 33.75 -107.390625 L 55.375 -38.8125 L 78.078125 -107.390625 L 106 -107.390625 L 127.640625 -38.203125 L 150.1875 -107.390625 Z M 179.171875 -107.390625 "/></g></g></g><g fill="#af7531" fill-opacity="1"><g transform="translate(367.637455, 1529.386847)"><g><path d="M 96.953125 -23.46875 L 96.953125 0 L 10.734375 0 L 10.734375 -107.390625 L 94.953125 -107.390625 L 94.953125 -83.90625 L 40.8125 -83.90625 L 40.8125 -65.8125 L 88.515625 -65.8125 L 88.515625 -43.109375 L 40.8125 -43.109375 L 40.8125 -23.46875 Z M 96.953125 -23.46875 "/></g></g></g><g fill="#af7531" fill-opacity="1"><g transform="translate(470.727516, 1529.386847)"><g/></g></g><g fill="#af7531" fill-opacity="1"><g transform="translate(515.369198, 1529.386847)"><g><path d="M 48.46875 2.140625 C 39.78125 2.140625 31.34375 1.066406 23.15625 -1.078125 C 14.976562 -3.222656 8.332031 -6.085938 3.21875 -9.671875 L 13.1875 -32.0625 C 18 -28.894531 23.570312 -26.335938 29.90625 -24.390625 C 36.25 -22.453125 42.488281 -21.484375 48.625 -21.484375 C 60.289062 -21.484375 66.125 -24.394531 66.125 -30.21875 C 66.125 -33.289062 64.457031 -35.566406 61.125 -37.046875 C 57.800781 -38.523438 52.457031 -40.082031 45.09375 -41.71875 C 37.019531 -43.457031 30.269531 -45.320312 24.84375 -47.3125 C 19.425781 -49.3125 14.773438 -52.507812 10.890625 -56.90625 C 7.003906 -61.3125 5.0625 -67.242188 5.0625 -74.703125 C 5.0625 -81.253906 6.847656 -87.160156 10.421875 -92.421875 C 14.003906 -97.691406 19.347656 -101.859375 26.453125 -104.921875 C 33.566406 -107.992188 42.289062 -109.53125 52.625 -109.53125 C 59.675781 -109.53125 66.628906 -108.738281 73.484375 -107.15625 C 80.335938 -105.570312 86.367188 -103.242188 91.578125 -100.171875 L 82.21875 -77.625 C 72 -83.144531 62.082031 -85.90625 52.46875 -85.90625 C 46.425781 -85.90625 42.023438 -85.007812 39.265625 -83.21875 C 36.503906 -81.425781 35.125 -79.101562 35.125 -76.25 C 35.125 -73.382812 36.757812 -71.234375 40.03125 -69.796875 C 43.3125 -68.367188 48.582031 -66.882812 55.84375 -65.34375 C 64.019531 -63.613281 70.789062 -61.75 76.15625 -59.75 C 81.53125 -57.757812 86.1875 -54.585938 90.125 -50.234375 C 94.0625 -45.890625 96.03125 -39.984375 96.03125 -32.515625 C 96.03125 -26.078125 94.238281 -20.25 90.65625 -15.03125 C 87.082031 -9.8125 81.710938 -5.644531 74.546875 -2.53125 C 67.390625 0.582031 58.695312 2.140625 48.46875 2.140625 Z M 48.46875 2.140625 "/></g></g></g><g fill="#af7531" fill-opacity="1"><g transform="translate(614.62408, 1529.386847)"><g><path d="M 96.953125 -23.46875 L 96.953125 0 L 10.734375 0 L 10.734375 -107.390625 L 94.953125 -107.390625 L 94.953125 -83.90625 L 40.8125 -83.90625 L 40.8125 -65.8125 L 88.515625 -65.8125 L 88.515625 -43.109375 L 40.8125 -43.109375 L 40.8125 -23.46875 Z M 96.953125 -23.46875 "/></g></g></g><g fill="#af7531" fill-opacity="1"><g transform="translate(717.714141, 1529.386847)"><g><path d="M 57.6875 -28.53125 L 41.109375 -28.53125 L 41.109375 0 L 10.734375 0 L 10.734375 -107.390625 L 59.828125 -107.390625 C 69.546875 -107.390625 77.984375 -105.773438 85.140625 -102.546875 C 92.296875 -99.328125 97.816406 -94.722656 101.703125 -88.734375 C 105.585938 -82.753906 107.53125 -75.726562 107.53125 -67.65625 C 107.53125 -59.882812 105.710938 -53.109375 102.078125 -47.328125 C 98.453125 -41.546875 93.265625 -37.019531 86.515625 -33.75 L 109.6875 0 L 77.15625 0 Z M 76.859375 -67.65625 C 76.859375 -72.664062 75.269531 -76.550781 72.09375 -79.3125 C 68.925781 -82.070312 64.222656 -83.453125 57.984375 -83.453125 L 41.109375 -83.453125 L 41.109375 -52 L 57.984375 -52 C 64.222656 -52 68.925781 -53.351562 72.09375 -56.0625 C 75.269531 -58.78125 76.859375 -62.644531 76.859375 -67.65625 Z M 76.859375 -67.65625 "/></g></g></g><g fill="#af7531" fill-opacity="1"><g transform="translate(831.235957, 1529.386847)"><g><path d="M 119.65625 -107.390625 L 73.640625 0 L 43.71875 0 L -2.140625 -107.390625 L 30.6875 -107.390625 L 59.828125 -37.4375 L 89.59375 -107.390625 Z M 119.65625 -107.390625 "/></g></g></g><g fill="#af7531" fill-opacity="1"><g transform="translate(948.746387, 1529.386847)"><g><path d="M 96.953125 -23.46875 L 96.953125 0 L 10.734375 0 L 10.734375 -107.390625 L 94.953125 -107.390625 L 94.953125 -83.90625 L 40.8125 -83.90625 L 40.8125 -65.8125 L 88.515625 -65.8125 L 88.515625 -43.109375 L 40.8125 -43.109375 L 40.8125 -23.46875 Z M 96.953125 -23.46875 "/></g></g></g><g fill="#af7531" fill-opacity="1"><g transform="translate(1051.836487, 1529.386847)"><g><path d="M 21.625 1.375 C 16.71875 1.375 12.578125 -0.257812 9.203125 -3.53125 C 5.828125 -6.800781 4.140625 -10.941406 4.140625 -15.953125 C 4.140625 -21.066406 5.800781 -25.207031 9.125 -28.375 C 12.445312 -31.550781 16.613281 -33.140625 21.625 -33.140625 C 26.738281 -33.140625 30.929688 -31.550781 34.203125 -28.375 C 37.484375 -25.207031 39.125 -21.066406 39.125 -15.953125 C 39.125 -10.941406 37.457031 -6.800781 34.125 -3.53125 C 30.800781 -0.257812 26.632812 1.375 21.625 1.375 Z M 21.625 1.375 "/></g></g></g><g fill="#a17d80" fill-opacity="1"><g transform="translate(177.195833, 644.300012)"><g><path d="M 100.046875 -61.375 L 79.96875 0 L 64.71875 0 L 51.203125 -41.5625 L 37.265625 0 L 22.09375 0 L 1.921875 -61.375 L 16.65625 -61.375 L 30.515625 -18.234375 L 44.984375 -61.375 L 58.140625 -61.375 L 72.171875 -17.890625 L 86.453125 -61.375 Z M 100.046875 -61.375 "/></g></g></g><g fill="#a17d80" fill-opacity="1"><g transform="translate(279.166083, 644.300012)"><g><path d="M 63.578125 -61.375 L 63.578125 0 L 49.375 0 L 49.375 -25.171875 L 21.484375 -25.171875 L 21.484375 0 L 7.28125 0 L 7.28125 -61.375 L 21.484375 -61.375 L 21.484375 -37.171875 L 49.375 -37.171875 L 49.375 -61.375 Z M 63.578125 -61.375 "/></g></g></g><g fill="#a17d80" fill-opacity="1"><g transform="translate(350.010415, 644.300012)"><g><path d="M 37 1.046875 C 30.632812 1.046875 24.890625 -0.320312 19.765625 -3.0625 C 14.648438 -5.8125 10.644531 -9.597656 7.75 -14.421875 C 4.863281 -19.242188 3.421875 -24.664062 3.421875 -30.6875 C 3.421875 -36.707031 4.863281 -42.128906 7.75 -46.953125 C 10.644531 -51.773438 14.648438 -55.5625 19.765625 -58.3125 C 24.890625 -61.0625 30.632812 -62.4375 37 -62.4375 C 43.375 -62.4375 49.101562 -61.0625 54.1875 -58.3125 C 59.269531 -55.5625 63.273438 -51.773438 66.203125 -46.953125 C 69.128906 -42.128906 70.59375 -36.707031 70.59375 -30.6875 C 70.59375 -24.664062 69.128906 -19.242188 66.203125 -14.421875 C 63.273438 -9.597656 59.269531 -5.8125 54.1875 -3.0625 C 49.101562 -0.320312 43.375 1.046875 37 1.046875 Z M 37 -11.046875 C 40.625 -11.046875 43.894531 -11.878906 46.8125 -13.546875 C 49.738281 -15.210938 52.035156 -17.535156 53.703125 -20.515625 C 55.367188 -23.492188 56.203125 -26.882812 56.203125 -30.6875 C 56.203125 -34.488281 55.367188 -37.878906 53.703125 -40.859375 C 52.035156 -43.835938 49.738281 -46.160156 46.8125 -47.828125 C 43.894531 -49.492188 40.625 -50.328125 37 -50.328125 C 33.375 -50.328125 30.097656 -49.492188 27.171875 -47.828125 C 24.253906 -46.160156 21.960938 -43.835938 20.296875 -40.859375 C 18.628906 -37.878906 17.796875 -34.488281 17.796875 -30.6875 C 17.796875 -26.882812 18.628906 -23.492188 20.296875 -20.515625 C 21.960938 -17.535156 24.253906 -15.210938 27.171875 -13.546875 C 30.097656 -11.878906 33.375 -11.046875 37 -11.046875 Z M 37 -11.046875 "/></g></g></g><g fill="#a17d80" fill-opacity="1"><g transform="translate(424.011172, 644.300012)"><g/></g></g><g fill="#a17d80" fill-opacity="1"><g transform="translate(448.824221, 644.300012)"><g><path d="M 33.84375 -61.375 C 39.28125 -61.375 44 -60.46875 48 -58.65625 C 52.007812 -56.84375 55.09375 -54.269531 57.25 -50.9375 C 59.414062 -47.613281 60.5 -43.671875 60.5 -39.109375 C 60.5 -34.609375 59.414062 -30.675781 57.25 -27.3125 C 55.09375 -23.945312 52.007812 -21.375 48 -19.59375 C 44 -17.8125 39.28125 -16.921875 33.84375 -16.921875 L 21.484375 -16.921875 L 21.484375 0 L 7.28125 0 L 7.28125 -61.375 Z M 33.0625 -28.5 C 37.320312 -28.5 40.5625 -29.414062 42.78125 -31.25 C 45.007812 -33.09375 46.125 -35.710938 46.125 -39.109375 C 46.125 -42.554688 45.007812 -45.203125 42.78125 -47.046875 C 40.5625 -48.890625 37.320312 -49.8125 33.0625 -49.8125 L 21.484375 -49.8125 L 21.484375 -28.5 Z M 33.0625 -28.5 "/></g></g></g><g fill="#a17d80" fill-opacity="1"><g transform="translate(513.004966, 644.300012)"><g><path d="M 46.390625 0 L 34.546875 -17.09375 L 21.484375 -17.09375 L 21.484375 0 L 7.28125 0 L 7.28125 -61.375 L 33.84375 -61.375 C 39.28125 -61.375 44 -60.46875 48 -58.65625 C 52.007812 -56.84375 55.09375 -54.269531 57.25 -50.9375 C 59.414062 -47.613281 60.5 -43.671875 60.5 -39.109375 C 60.5 -34.546875 59.398438 -30.613281 57.203125 -27.3125 C 55.015625 -24.007812 51.90625 -21.484375 47.875 -19.734375 L 61.640625 0 Z M 46.125 -39.109375 C 46.125 -42.554688 45.007812 -45.203125 42.78125 -47.046875 C 40.5625 -48.890625 37.320312 -49.8125 33.0625 -49.8125 L 21.484375 -49.8125 L 21.484375 -28.40625 L 33.0625 -28.40625 C 37.320312 -28.40625 40.5625 -29.335938 42.78125 -31.203125 C 45.007812 -33.078125 46.125 -35.710938 46.125 -39.109375 Z M 46.125 -39.109375 "/></g></g></g><g fill="#a17d80" fill-opacity="1"><g transform="translate(577.44876, 644.300012)"><g><path d="M 37 1.046875 C 30.632812 1.046875 24.890625 -0.320312 19.765625 -3.0625 C 14.648438 -5.8125 10.644531 -9.597656 7.75 -14.421875 C 4.863281 -19.242188 3.421875 -24.664062 3.421875 -30.6875 C 3.421875 -36.707031 4.863281 -42.128906 7.75 -46.953125 C 10.644531 -51.773438 14.648438 -55.5625 19.765625 -58.3125 C 24.890625 -61.0625 30.632812 -62.4375 37 -62.4375 C 43.375 -62.4375 49.101562 -61.0625 54.1875 -58.3125 C 59.269531 -55.5625 63.273438 -51.773438 66.203125 -46.953125 C 69.128906 -42.128906 70.59375 -36.707031 70.59375 -30.6875 C 70.59375 -24.664062 69.128906 -19.242188 66.203125 -14.421875 C 63.273438 -9.597656 59.269531 -5.8125 54.1875 -3.0625 C 49.101562 -0.320312 43.375 1.046875 37 1.046875 Z M 37 -11.046875 C 40.625 -11.046875 43.894531 -11.878906 46.8125 -13.546875 C 49.738281 -15.210938 52.035156 -17.535156 53.703125 -20.515625 C 55.367188 -23.492188 56.203125 -26.882812 56.203125 -30.6875 C 56.203125 -34.488281 55.367188 -37.878906 53.703125 -40.859375 C 52.035156 -43.835938 49.738281 -46.160156 46.8125 -47.828125 C 43.894531 -49.492188 40.625 -50.328125 37 -50.328125 C 33.375 -50.328125 30.097656 -49.492188 27.171875 -47.828125 C 24.253906 -46.160156 21.960938 -43.835938 20.296875 -40.859375 C 18.628906 -37.878906 17.796875 -34.488281 17.796875 -30.6875 C 17.796875 -26.882812 18.628906 -23.492188 20.296875 -20.515625 C 21.960938 -17.535156 24.253906 -15.210938 27.171875 -13.546875 C 30.097656 -11.878906 33.375 -11.046875 37 -11.046875 Z M 37 -11.046875 "/></g></g></g><g fill="#a17d80" fill-opacity="1"><g transform="translate(651.449517, 644.300012)"><g><path d="M 66.296875 -61.375 L 39.71875 0 L 25.6875 0 L -0.796875 -61.375 L 14.5625 -61.375 L 33.234375 -17.53125 L 52.171875 -61.375 Z M 66.296875 -61.375 "/></g></g></g><g fill="#a17d80" fill-opacity="1"><g transform="translate(716.857777, 644.300012)"><g><path d="M 7.28125 -61.375 L 21.484375 -61.375 L 21.484375 0 L 7.28125 0 Z M 7.28125 -61.375 "/></g></g></g><g fill="#a17d80" fill-opacity="1"><g transform="translate(745.616356, 644.300012)"><g><path d="M 7.28125 -61.375 L 35.15625 -61.375 C 41.820312 -61.375 47.710938 -60.101562 52.828125 -57.5625 C 57.941406 -55.019531 61.914062 -51.4375 64.75 -46.8125 C 67.59375 -42.195312 69.015625 -36.820312 69.015625 -30.6875 C 69.015625 -24.550781 67.59375 -19.171875 64.75 -14.546875 C 61.914062 -9.929688 57.941406 -6.351562 52.828125 -3.8125 C 47.710938 -1.269531 41.820312 0 35.15625 0 L 7.28125 0 Z M 34.46875 -11.65625 C 40.601562 -11.65625 45.492188 -13.363281 49.140625 -16.78125 C 52.796875 -20.207031 54.625 -24.84375 54.625 -30.6875 C 54.625 -36.53125 52.796875 -41.160156 49.140625 -44.578125 C 45.492188 -48.003906 40.601562 -49.71875 34.46875 -49.71875 L 21.484375 -49.71875 L 21.484375 -11.65625 Z M 34.46875 -11.65625 "/></g></g></g><g fill="#a17d80" fill-opacity="1"><g transform="translate(818.0389, 644.300012)"><g><path d="M 54.796875 -11.40625 L 54.796875 0 L 7.28125 0 L 7.28125 -61.375 L 53.671875 -61.375 L 53.671875 -49.984375 L 21.390625 -49.984375 L 21.390625 -36.65625 L 49.890625 -36.65625 L 49.890625 -25.609375 L 21.390625 -25.609375 L 21.390625 -11.40625 Z M 54.796875 -11.40625 "/></g></g></g><g fill="#a17d80" fill-opacity="1"><g transform="translate(876.871242, 644.300012)"><g/></g></g><g fill="#a17d80" fill-opacity="1"><g transform="translate(901.684271, 644.300012)"><g><path d="M 20 -49.8125 L 0.34375 -49.8125 L 0.34375 -61.375 L 53.84375 -61.375 L 53.84375 -49.8125 L 34.203125 -49.8125 L 34.203125 0 L 20 0 Z M 20 -49.8125 "/></g></g></g><g fill="#a17d80" fill-opacity="1"><g transform="translate(955.869704, 644.300012)"><g><path d="M 63.578125 -61.375 L 63.578125 0 L 49.375 0 L 49.375 -25.171875 L 21.484375 -25.171875 L 21.484375 0 L 7.28125 0 L 7.28125 -61.375 L 21.484375 -61.375 L 21.484375 -37.171875 L 49.375 -37.171875 L 49.375 -61.375 Z M 63.578125 -61.375 "/></g></g></g><g fill="#a17d80" fill-opacity="1"><g transform="translate(1026.714075, 644.300012)"><g><path d="M 54.796875 -11.40625 L 54.796875 0 L 7.28125 0 L 7.28125 -61.375 L 53.671875 -61.375 L 53.671875 -49.984375 L 21.390625 -49.984375 L 21.390625 -36.65625 L 49.890625 -36.65625 L 49.890625 -25.609375 L 21.390625 -25.609375 L 21.390625 -11.40625 Z M 54.796875 -11.40625 "/></g></g></g><g fill="#a17d80" fill-opacity="1"><g transform="translate(1085.550235, 644.300012)"><g/></g></g><g fill="#a17d80" fill-opacity="1"><g transform="translate(1110.363283, 644.300012)"><g/></g></g><g fill="#a19f83" fill-opacity="1"><g transform="translate(183.800887, 1023.067957)"><g><path d="M 31.71875 -8 L 14.296875 -8 L 11.0625 0 L -0.828125 0 L 17.359375 -41.1875 L 28.828125 -41.1875 L 47.078125 0 L 34.953125 0 Z M 28.296875 -16.59375 L 23.015625 -29.78125 L 17.71875 -16.59375 Z M 28.296875 -16.59375 "/></g></g></g><g fill="#a19f83" fill-opacity="1"><g transform="translate(230.04581, 1023.067957)"><g><path d="M 43.3125 -41.1875 L 43.3125 0 L 33.71875 0 L 15.53125 -21.953125 L 15.53125 0 L 4.125 0 L 4.125 -41.1875 L 13.703125 -41.1875 L 31.890625 -19.234375 L 31.890625 -41.1875 Z M 43.3125 -41.1875 "/></g></g></g><g fill="#a19f83" fill-opacity="1"><g transform="translate(277.467451, 1023.067957)"><g><path d="M 4.125 -41.1875 L 23.59375 -41.1875 C 28.101562 -41.1875 32.101562 -40.34375 35.59375 -38.65625 C 39.09375 -36.96875 41.800781 -34.570312 43.71875 -31.46875 C 45.644531 -28.375 46.609375 -24.75 46.609375 -20.59375 C 46.609375 -16.4375 45.644531 -12.804688 43.71875 -9.703125 C 41.800781 -6.609375 39.09375 -4.21875 35.59375 -2.53125 C 32.101562 -0.84375 28.101562 0 23.59375 0 L 4.125 0 Z M 23.125 -9.296875 C 26.65625 -9.296875 29.488281 -10.296875 31.625 -12.296875 C 33.757812 -14.296875 34.828125 -17.0625 34.828125 -20.59375 C 34.828125 -24.125 33.757812 -26.890625 31.625 -28.890625 C 29.488281 -30.890625 26.65625 -31.890625 23.125 -31.890625 L 15.765625 -31.890625 L 15.765625 -9.296875 Z M 23.125 -9.296875 "/></g></g></g><g fill="#a19f83" fill-opacity="1"><g transform="translate(326.065809, 1023.067957)"><g/></g></g><g fill="#a19f83" fill-opacity="1"><g transform="translate(343.187024, 1023.067957)"><g><path d="M 18.59375 0.828125 C 15.257812 0.828125 12.019531 0.414062 8.875 -0.40625 C 5.738281 -1.226562 3.191406 -2.328125 1.234375 -3.703125 L 5.0625 -12.296875 C 6.90625 -11.078125 9.039062 -10.09375 11.46875 -9.34375 C 13.90625 -8.601562 16.300781 -8.234375 18.65625 -8.234375 C 23.125 -8.234375 25.359375 -9.351562 25.359375 -11.59375 C 25.359375 -12.769531 24.71875 -13.640625 23.4375 -14.203125 C 22.164062 -14.773438 20.117188 -15.375 17.296875 -16 C 14.203125 -16.664062 11.613281 -17.378906 9.53125 -18.140625 C 7.445312 -18.910156 5.660156 -20.140625 4.171875 -21.828125 C 2.679688 -23.515625 1.9375 -25.789062 1.9375 -28.65625 C 1.9375 -31.164062 2.625 -33.429688 4 -35.453125 C 5.375 -37.472656 7.421875 -39.070312 10.140625 -40.25 C 12.867188 -41.425781 16.21875 -42.015625 20.1875 -42.015625 C 22.894531 -42.015625 25.5625 -41.707031 28.1875 -41.09375 C 30.8125 -40.488281 33.125 -39.597656 35.125 -38.421875 L 31.546875 -29.78125 C 27.617188 -31.894531 23.8125 -32.953125 20.125 -32.953125 C 17.8125 -32.953125 16.125 -32.609375 15.0625 -31.921875 C 14 -31.234375 13.46875 -30.34375 13.46875 -29.25 C 13.46875 -28.144531 14.09375 -27.316406 15.34375 -26.765625 C 16.601562 -26.222656 18.628906 -25.65625 21.421875 -25.0625 C 24.554688 -24.394531 27.15625 -23.675781 29.21875 -22.90625 C 31.28125 -22.144531 33.066406 -20.929688 34.578125 -19.265625 C 36.085938 -17.597656 36.84375 -15.332031 36.84375 -12.46875 C 36.84375 -10 36.15625 -7.765625 34.78125 -5.765625 C 33.40625 -3.765625 31.34375 -2.164062 28.59375 -0.96875 C 25.851562 0.226562 22.519531 0.828125 18.59375 0.828125 Z M 18.59375 0.828125 "/></g></g></g><g fill="#a19f83" fill-opacity="1"><g transform="translate(381.253776, 1023.067957)"><g><path d="M 12.890625 -31.953125 L 0.234375 -31.953125 L 0.234375 -41.1875 L 37.125 -41.1875 L 37.125 -31.953125 L 24.53125 -31.953125 L 24.53125 0 L 12.890625 0 Z M 12.890625 -31.953125 "/></g></g></g><g fill="#a19f83" fill-opacity="1"><g transform="translate(418.614496, 1023.067957)"><g><path d="M 22.125 -10.9375 L 15.765625 -10.9375 L 15.765625 0 L 4.125 0 L 4.125 -41.1875 L 22.953125 -41.1875 C 26.679688 -41.1875 29.914062 -40.566406 32.65625 -39.328125 C 35.40625 -38.097656 37.523438 -36.332031 39.015625 -34.03125 C 40.503906 -31.738281 41.25 -29.046875 41.25 -25.953125 C 41.25 -22.972656 40.550781 -20.375 39.15625 -18.15625 C 37.769531 -15.9375 35.78125 -14.203125 33.1875 -12.953125 L 42.078125 0 L 29.59375 0 Z M 29.484375 -25.953125 C 29.484375 -27.867188 28.875 -29.359375 27.65625 -30.421875 C 26.4375 -31.484375 24.632812 -32.015625 22.25 -32.015625 L 15.765625 -32.015625 L 15.765625 -19.953125 L 22.25 -19.953125 C 24.632812 -19.953125 26.4375 -20.46875 27.65625 -21.5 C 28.875 -22.539062 29.484375 -24.023438 29.484375 -25.953125 Z M 29.484375 -25.953125 "/></g></g></g><g fill="#a19f83" fill-opacity="1"><g transform="translate(462.152963, 1023.067957)"><g><path d="M 23.125 0.828125 C 17.007812 0.828125 12.253906 -0.835938 8.859375 -4.171875 C 5.460938 -7.503906 3.765625 -12.234375 3.765625 -18.359375 L 3.765625 -41.1875 L 15.421875 -41.1875 L 15.421875 -18.71875 C 15.421875 -12.125 18.03125 -8.828125 23.25 -8.828125 C 28.425781 -8.828125 31.015625 -12.125 31.015625 -18.71875 L 31.015625 -41.1875 L 42.484375 -41.1875 L 42.484375 -18.359375 C 42.484375 -12.234375 40.785156 -7.503906 37.390625 -4.171875 C 34.003906 -0.835938 29.25 0.828125 23.125 0.828125 Z M 23.125 0.828125 "/></g></g></g><g fill="#a19f83" fill-opacity="1"><g transform="translate(508.397896, 1023.067957)"><g><path d="M 24.65625 0.828125 C 20.34375 0.828125 16.46875 -0.0820312 13.03125 -1.90625 C 9.601562 -3.738281 6.90625 -6.28125 4.9375 -9.53125 C 2.976562 -12.789062 2 -16.476562 2 -20.59375 C 2 -24.71875 2.976562 -28.40625 4.9375 -31.65625 C 6.90625 -34.914062 9.601562 -37.457031 13.03125 -39.28125 C 16.46875 -41.101562 20.34375 -42.015625 24.65625 -42.015625 C 28.414062 -42.015625 31.804688 -41.347656 34.828125 -40.015625 C 37.847656 -38.679688 40.363281 -36.757812 42.375 -34.25 L 34.953125 -27.53125 C 32.285156 -30.75 29.050781 -32.359375 25.25 -32.359375 C 23.007812 -32.359375 21.015625 -31.867188 19.265625 -30.890625 C 17.523438 -29.910156 16.171875 -28.523438 15.203125 -26.734375 C 14.242188 -24.953125 13.765625 -22.90625 13.765625 -20.59375 C 13.765625 -18.28125 14.242188 -16.226562 15.203125 -14.4375 C 16.171875 -12.65625 17.523438 -11.273438 19.265625 -10.296875 C 21.015625 -9.316406 23.007812 -8.828125 25.25 -8.828125 C 29.050781 -8.828125 32.285156 -10.4375 34.953125 -13.65625 L 42.375 -6.9375 C 40.363281 -4.425781 37.847656 -2.503906 34.828125 -1.171875 C 31.804688 0.160156 28.414062 0.828125 24.65625 0.828125 Z M 24.65625 0.828125 "/></g></g></g><g fill="#a19f83" fill-opacity="1"><g transform="translate(551.818699, 1023.067957)"><g><path d="M 12.890625 -31.953125 L 0.234375 -31.953125 L 0.234375 -41.1875 L 37.125 -41.1875 L 37.125 -31.953125 L 24.53125 -31.953125 L 24.53125 0 L 12.890625 0 Z M 12.890625 -31.953125 "/></g></g></g><g fill="#a19f83" fill-opacity="1"><g transform="translate(589.179418, 1023.067957)"><g><path d="M 23.125 0.828125 C 17.007812 0.828125 12.253906 -0.835938 8.859375 -4.171875 C 5.460938 -7.503906 3.765625 -12.234375 3.765625 -18.359375 L 3.765625 -41.1875 L 15.421875 -41.1875 L 15.421875 -18.71875 C 15.421875 -12.125 18.03125 -8.828125 23.25 -8.828125 C 28.425781 -8.828125 31.015625 -12.125 31.015625 -18.71875 L 31.015625 -41.1875 L 42.484375 -41.1875 L 42.484375 -18.359375 C 42.484375 -12.234375 40.785156 -7.503906 37.390625 -4.171875 C 34.003906 -0.835938 29.25 0.828125 23.125 0.828125 Z M 23.125 0.828125 "/></g></g></g><g fill="#a19f83" fill-opacity="1"><g transform="translate(635.424351, 1023.067957)"><g><path d="M 22.125 -10.9375 L 15.765625 -10.9375 L 15.765625 0 L 4.125 0 L 4.125 -41.1875 L 22.953125 -41.1875 C 26.679688 -41.1875 29.914062 -40.566406 32.65625 -39.328125 C 35.40625 -38.097656 37.523438 -36.332031 39.015625 -34.03125 C 40.503906 -31.738281 41.25 -29.046875 41.25 -25.953125 C 41.25 -22.972656 40.550781 -20.375 39.15625 -18.15625 C 37.769531 -15.9375 35.78125 -14.203125 33.1875 -12.953125 L 42.078125 0 L 29.59375 0 Z M 29.484375 -25.953125 C 29.484375 -27.867188 28.875 -29.359375 27.65625 -30.421875 C 26.4375 -31.484375 24.632812 -32.015625 22.25 -32.015625 L 15.765625 -32.015625 L 15.765625 -19.953125 L 22.25 -19.953125 C 24.632812 -19.953125 26.4375 -20.46875 27.65625 -21.5 C 28.875 -22.539062 29.484375 -24.023438 29.484375 -25.953125 Z M 29.484375 -25.953125 "/></g></g></g><g fill="#a19f83" fill-opacity="1"><g transform="translate(678.962818, 1023.067957)"><g><path d="M 37.1875 -9 L 37.1875 0 L 4.125 0 L 4.125 -41.1875 L 36.421875 -41.1875 L 36.421875 -32.1875 L 15.65625 -32.1875 L 15.65625 -25.25 L 33.953125 -25.25 L 33.953125 -16.53125 L 15.65625 -16.53125 L 15.65625 -9 Z M 37.1875 -9 "/></g></g></g><g fill="#a19f83" fill-opacity="1"><g transform="translate(718.500477, 1023.067957)"><g><path d="M 4.125 -41.1875 L 23.59375 -41.1875 C 28.101562 -41.1875 32.101562 -40.34375 35.59375 -38.65625 C 39.09375 -36.96875 41.800781 -34.570312 43.71875 -31.46875 C 45.644531 -28.375 46.609375 -24.75 46.609375 -20.59375 C 46.609375 -16.4375 45.644531 -12.804688 43.71875 -9.703125 C 41.800781 -6.609375 39.09375 -4.21875 35.59375 -2.53125 C 32.101562 -0.84375 28.101562 0 23.59375 0 L 4.125 0 Z M 23.125 -9.296875 C 26.65625 -9.296875 29.488281 -10.296875 31.625 -12.296875 C 33.757812 -14.296875 34.828125 -17.0625 34.828125 -20.59375 C 34.828125 -24.125 33.757812 -26.890625 31.625 -28.890625 C 29.488281 -30.890625 26.65625 -31.890625 23.125 -31.890625 L 15.765625 -31.890625 L 15.765625 -9.296875 Z M 23.125 -9.296875 "/></g></g></g><g fill="#a19f83" fill-opacity="1"><g transform="translate(767.098844, 1023.067957)"><g/></g></g><g fill="#a19f83" fill-opacity="1"><g transform="translate(784.220079, 1023.067957)"><g><path d="M 18.59375 0.828125 C 15.257812 0.828125 12.019531 0.414062 8.875 -0.40625 C 5.738281 -1.226562 3.191406 -2.328125 1.234375 -3.703125 L 5.0625 -12.296875 C 6.90625 -11.078125 9.039062 -10.09375 11.46875 -9.34375 C 13.90625 -8.601562 16.300781 -8.234375 18.65625 -8.234375 C 23.125 -8.234375 25.359375 -9.351562 25.359375 -11.59375 C 25.359375 -12.769531 24.71875 -13.640625 23.4375 -14.203125 C 22.164062 -14.773438 20.117188 -15.375 17.296875 -16 C 14.203125 -16.664062 11.613281 -17.378906 9.53125 -18.140625 C 7.445312 -18.910156 5.660156 -20.140625 4.171875 -21.828125 C 2.679688 -23.515625 1.9375 -25.789062 1.9375 -28.65625 C 1.9375 -31.164062 2.625 -33.429688 4 -35.453125 C 5.375 -37.472656 7.421875 -39.070312 10.140625 -40.25 C 12.867188 -41.425781 16.21875 -42.015625 20.1875 -42.015625 C 22.894531 -42.015625 25.5625 -41.707031 28.1875 -41.09375 C 30.8125 -40.488281 33.125 -39.597656 35.125 -38.421875 L 31.546875 -29.78125 C 27.617188 -31.894531 23.8125 -32.953125 20.125 -32.953125 C 17.8125 -32.953125 16.125 -32.609375 15.0625 -31.921875 C 14 -31.234375 13.46875 -30.34375 13.46875 -29.25 C 13.46875 -28.144531 14.09375 -27.316406 15.34375 -26.765625 C 16.601562 -26.222656 18.628906 -25.65625 21.421875 -25.0625 C 24.554688 -24.394531 27.15625 -23.675781 29.21875 -22.90625 C 31.28125 -22.144531 33.066406 -20.929688 34.578125 -19.265625 C 36.085938 -17.597656 36.84375 -15.332031 36.84375 -12.46875 C 36.84375 -10 36.15625 -7.765625 34.78125 -5.765625 C 33.40625 -3.765625 31.34375 -2.164062 28.59375 -0.96875 C 25.851562 0.226562 22.519531 0.828125 18.59375 0.828125 Z M 18.59375 0.828125 "/></g></g></g><g fill="#a19f83" fill-opacity="1"><g transform="translate(822.286821, 1023.067957)"><g><path d="M 23.125 0.828125 C 17.007812 0.828125 12.253906 -0.835938 8.859375 -4.171875 C 5.460938 -7.503906 3.765625 -12.234375 3.765625 -18.359375 L 3.765625 -41.1875 L 15.421875 -41.1875 L 15.421875 -18.71875 C 15.421875 -12.125 18.03125 -8.828125 23.25 -8.828125 C 28.425781 -8.828125 31.015625 -12.125 31.015625 -18.71875 L 31.015625 -41.1875 L 42.484375 -41.1875 L 42.484375 -18.359375 C 42.484375 -12.234375 40.785156 -7.503906 37.390625 -4.171875 C 34.003906 -0.835938 29.25 0.828125 23.125 0.828125 Z M 23.125 0.828125 "/></g></g></g><g fill="#a19f83" fill-opacity="1"><g transform="translate(868.531754, 1023.067957)"><g><path d="M 22.953125 -41.1875 C 26.679688 -41.1875 29.914062 -40.566406 32.65625 -39.328125 C 35.40625 -38.097656 37.523438 -36.332031 39.015625 -34.03125 C 40.503906 -31.738281 41.25 -29.046875 41.25 -25.953125 C 41.25 -22.847656 40.503906 -20.15625 39.015625 -17.875 C 37.523438 -15.601562 35.40625 -13.847656 32.65625 -12.609375 C 29.914062 -11.378906 26.679688 -10.765625 22.953125 -10.765625 L 15.765625 -10.765625 L 15.765625 0 L 4.125 0 L 4.125 -41.1875 Z M 22.25 -19.953125 C 24.632812 -19.953125 26.4375 -20.46875 27.65625 -21.5 C 28.875 -22.539062 29.484375 -24.023438 29.484375 -25.953125 C 29.484375 -27.867188 28.875 -29.359375 27.65625 -30.421875 C 26.4375 -31.484375 24.632812 -32.015625 22.25 -32.015625 L 15.765625 -32.015625 L 15.765625 -19.953125 Z M 22.25 -19.953125 "/></g></g></g><g fill="#a19f83" fill-opacity="1"><g transform="translate(911.893725, 1023.067957)"><g><path d="M 22.953125 -41.1875 C 26.679688 -41.1875 29.914062 -40.566406 32.65625 -39.328125 C 35.40625 -38.097656 37.523438 -36.332031 39.015625 -34.03125 C 40.503906 -31.738281 41.25 -29.046875 41.25 -25.953125 C 41.25 -22.847656 40.503906 -20.15625 39.015625 -17.875 C 37.523438 -15.601562 35.40625 -13.847656 32.65625 -12.609375 C 29.914062 -11.378906 26.679688 -10.765625 22.953125 -10.765625 L 15.765625 -10.765625 L 15.765625 0 L 4.125 0 L 4.125 -41.1875 Z M 22.25 -19.953125 C 24.632812 -19.953125 26.4375 -20.46875 27.65625 -21.5 C 28.875 -22.539062 29.484375 -24.023438 29.484375 -25.953125 C 29.484375 -27.867188 28.875 -29.359375 27.65625 -30.421875 C 26.4375 -31.484375 24.632812 -32.015625 22.25 -32.015625 L 15.765625 -32.015625 L 15.765625 -19.953125 Z M 22.25 -19.953125 "/></g></g></g><g fill="#a19f83" fill-opacity="1"><g transform="translate(955.255696, 1023.067957)"><g><path d="M 24.890625 0.828125 C 20.535156 0.828125 16.617188 -0.09375 13.140625 -1.9375 C 9.671875 -3.78125 6.945312 -6.328125 4.96875 -9.578125 C 2.988281 -12.835938 2 -16.507812 2 -20.59375 C 2 -24.675781 2.988281 -28.34375 4.96875 -31.59375 C 6.945312 -34.851562 9.671875 -37.40625 13.140625 -39.25 C 16.617188 -41.09375 20.535156 -42.015625 24.890625 -42.015625 C 29.242188 -42.015625 33.15625 -41.09375 36.625 -39.25 C 40.101562 -37.40625 42.832031 -34.851562 44.8125 -31.59375 C 46.789062 -28.34375 47.78125 -24.675781 47.78125 -20.59375 C 47.78125 -16.507812 46.789062 -12.835938 44.8125 -9.578125 C 42.832031 -6.328125 40.101562 -3.78125 36.625 -1.9375 C 33.15625 -0.09375 29.242188 0.828125 24.890625 0.828125 Z M 24.890625 -8.828125 C 26.972656 -8.828125 28.851562 -9.316406 30.53125 -10.296875 C 32.21875 -11.273438 33.550781 -12.65625 34.53125 -14.4375 C 35.519531 -16.226562 36.015625 -18.28125 36.015625 -20.59375 C 36.015625 -22.90625 35.519531 -24.953125 34.53125 -26.734375 C 33.550781 -28.523438 32.21875 -29.910156 30.53125 -30.890625 C 28.851562 -31.867188 26.972656 -32.359375 24.890625 -32.359375 C 22.804688 -32.359375 20.921875 -31.867188 19.234375 -30.890625 C 17.554688 -29.910156 16.222656 -28.523438 15.234375 -26.734375 C 14.253906 -24.953125 13.765625 -22.90625 13.765625 -20.59375 C 13.765625 -18.28125 14.253906 -16.226562 15.234375 -14.4375 C 16.222656 -12.65625 17.554688 -11.273438 19.234375 -10.296875 C 20.921875 -9.316406 22.804688 -8.828125 24.890625 -8.828125 Z M 24.890625 -8.828125 "/></g></g></g><g fill="#a19f83" fill-opacity="1"><g transform="translate(1005.030743, 1023.067957)"><g><path d="M 22.125 -10.9375 L 15.765625 -10.9375 L 15.765625 0 L 4.125 0 L 4.125 -41.1875 L 22.953125 -41.1875 C 26.679688 -41.1875 29.914062 -40.566406 32.65625 -39.328125 C 35.40625 -38.097656 37.523438 -36.332031 39.015625 -34.03125 C 40.503906 -31.738281 41.25 -29.046875 41.25 -25.953125 C 41.25 -22.972656 40.550781 -20.375 39.15625 -18.15625 C 37.769531 -15.9375 35.78125 -14.203125 33.1875 -12.953125 L 42.078125 0 L 29.59375 0 Z M 29.484375 -25.953125 C 29.484375 -27.867188 28.875 -29.359375 27.65625 -30.421875 C 26.4375 -31.484375 24.632812 -32.015625 22.25 -32.015625 L 15.765625 -32.015625 L 15.765625 -19.953125 L 22.25 -19.953125 C 24.632812 -19.953125 26.4375 -20.46875 27.65625 -21.5 C 28.875 -22.539062 29.484375 -24.023438 29.484375 -25.953125 Z M 29.484375 -25.953125 "/></g></g></g><g fill="#a19f83" fill-opacity="1"><g transform="translate(1048.56921, 1023.067957)"><g><path d="M 12.890625 -31.953125 L 0.234375 -31.953125 L 0.234375 -41.1875 L 37.125 -41.1875 L 37.125 -31.953125 L 24.53125 -31.953125 L 24.53125 0 L 12.890625 0 Z M 12.890625 -31.953125 "/></g></g></g><g fill="#a19f83" fill-opacity="1"><g transform="translate(1085.935509, 1023.067957)"><g/></g></g><g fill="#c19462" fill-opacity="1"><g transform="translate(186.002575, 1368.27882)"><g><path d="M 33.765625 1.125 C 27.859375 1.125 22.550781 -0.125 17.84375 -2.625 C 13.132812 -5.132812 9.4375 -8.597656 6.75 -13.015625 C 4.0625 -17.429688 2.71875 -22.40625 2.71875 -27.9375 C 2.71875 -33.46875 4.0625 -38.441406 6.75 -42.859375 C 9.4375 -47.285156 13.132812 -50.75 17.84375 -53.25 C 22.550781 -55.75 27.859375 -57 33.765625 -57 C 39.671875 -57 44.976562 -55.75 49.6875 -53.25 C 54.394531 -50.75 58.09375 -47.285156 60.78125 -42.859375 C 63.476562 -38.441406 64.828125 -33.46875 64.828125 -27.9375 C 64.828125 -22.40625 63.476562 -17.429688 60.78125 -13.015625 C 58.09375 -8.597656 54.394531 -5.132812 49.6875 -2.625 C 44.976562 -0.125 39.671875 1.125 33.765625 1.125 Z M 33.765625 -11.96875 C 36.585938 -11.96875 39.140625 -12.632812 41.421875 -13.96875 C 43.710938 -15.300781 45.523438 -17.175781 46.859375 -19.59375 C 48.191406 -22.019531 48.859375 -24.800781 48.859375 -27.9375 C 48.859375 -31.082031 48.191406 -33.863281 46.859375 -36.28125 C 45.523438 -38.695312 43.710938 -40.570312 41.421875 -41.90625 C 39.140625 -43.238281 36.585938 -43.90625 33.765625 -43.90625 C 30.941406 -43.90625 28.382812 -43.238281 26.09375 -41.90625 C 23.8125 -40.570312 22.003906 -38.695312 20.671875 -36.28125 C 19.347656 -33.863281 18.6875 -31.082031 18.6875 -27.9375 C 18.6875 -24.800781 19.347656 -22.019531 20.671875 -19.59375 C 22.003906 -17.175781 23.8125 -15.300781 26.09375 -13.96875 C 28.382812 -12.632812 30.941406 -11.96875 33.765625 -11.96875 Z M 33.765625 -11.96875 "/></g></g></g><g fill="#c19462" fill-opacity="1"><g transform="translate(253.524797, 1368.27882)"><g><path d="M 21.390625 -43.671875 L 21.390625 -31.375 L 46.0625 -31.375 L 46.0625 -19.15625 L 21.390625 -19.15625 L 21.390625 0 L 5.59375 0 L 5.59375 -55.875 L 49.40625 -55.875 L 49.40625 -43.671875 Z M 21.390625 -43.671875 "/></g></g></g><g fill="#c19462" fill-opacity="1"><g transform="translate(304.765067, 1368.27882)"><g/></g></g><g fill="#c19462" fill-opacity="1"><g transform="translate(327.990795, 1368.27882)"><g><path d="M 17.484375 -43.34375 L 0.3125 -43.34375 L 0.3125 -55.875 L 50.375 -55.875 L 50.375 -43.34375 L 33.28125 -43.34375 L 33.28125 0 L 17.484375 0 Z M 17.484375 -43.34375 "/></g></g></g><g fill="#c19462" fill-opacity="1"><g transform="translate(378.67238, 1368.27882)"><g><path d="M 58.75 -55.875 L 58.75 0 L 42.953125 0 L 42.953125 -21.796875 L 21.390625 -21.796875 L 21.390625 0 L 5.59375 0 L 5.59375 -55.875 L 21.390625 -55.875 L 21.390625 -34.890625 L 42.953125 -34.890625 L 42.953125 -55.875 Z M 58.75 -55.875 "/></g></g></g><g fill="#c19462" fill-opacity="1"><g transform="translate(443.002056, 1368.27882)"><g><path d="M 50.453125 -12.21875 L 50.453125 0 L 5.59375 0 L 5.59375 -55.875 L 49.40625 -55.875 L 49.40625 -43.671875 L 21.234375 -43.671875 L 21.234375 -34.25 L 46.0625 -34.25 L 46.0625 -22.4375 L 21.234375 -22.4375 L 21.234375 -12.21875 Z M 50.453125 -12.21875 "/></g></g></g><g fill="#c19462" fill-opacity="1"><g transform="translate(496.636733, 1368.27882)"><g/></g></g><g fill="#c19462" fill-opacity="1"><g transform="translate(519.862461, 1368.27882)"><g><path d="M 31.140625 -55.875 C 36.191406 -55.875 40.578125 -55.035156 44.296875 -53.359375 C 48.023438 -51.679688 50.898438 -49.285156 52.921875 -46.171875 C 54.941406 -43.066406 55.953125 -39.410156 55.953125 -35.203125 C 55.953125 -30.992188 54.941406 -27.347656 52.921875 -24.265625 C 50.898438 -21.179688 48.023438 -18.800781 44.296875 -17.125 C 40.578125 -15.445312 36.191406 -14.609375 31.140625 -14.609375 L 21.390625 -14.609375 L 21.390625 0 L 5.59375 0 L 5.59375 -55.875 Z M 30.171875 -27.0625 C 33.421875 -27.0625 35.867188 -27.765625 37.515625 -29.171875 C 39.171875 -30.585938 40 -32.597656 40 -35.203125 C 40 -37.804688 39.171875 -39.828125 37.515625 -41.265625 C 35.867188 -42.703125 33.421875 -43.421875 30.171875 -43.421875 L 21.390625 -43.421875 L 21.390625 -27.0625 Z M 30.171875 -27.0625 "/></g></g></g><g fill="#c19462" fill-opacity="1"><g transform="translate(578.684998, 1368.27882)"><g><path d="M 33.765625 1.125 C 27.859375 1.125 22.550781 -0.125 17.84375 -2.625 C 13.132812 -5.132812 9.4375 -8.597656 6.75 -13.015625 C 4.0625 -17.429688 2.71875 -22.40625 2.71875 -27.9375 C 2.71875 -33.46875 4.0625 -38.441406 6.75 -42.859375 C 9.4375 -47.285156 13.132812 -50.75 17.84375 -53.25 C 22.550781 -55.75 27.859375 -57 33.765625 -57 C 39.671875 -57 44.976562 -55.75 49.6875 -53.25 C 54.394531 -50.75 58.09375 -47.285156 60.78125 -42.859375 C 63.476562 -38.441406 64.828125 -33.46875 64.828125 -27.9375 C 64.828125 -22.40625 63.476562 -17.429688 60.78125 -13.015625 C 58.09375 -8.597656 54.394531 -5.132812 49.6875 -2.625 C 44.976562 -0.125 39.671875 1.125 33.765625 1.125 Z M 33.765625 -11.96875 C 36.585938 -11.96875 39.140625 -12.632812 41.421875 -13.96875 C 43.710938 -15.300781 45.523438 -17.175781 46.859375 -19.59375 C 48.191406 -22.019531 48.859375 -24.800781 48.859375 -27.9375 C 48.859375 -31.082031 48.191406 -33.863281 46.859375 -36.28125 C 45.523438 -38.695312 43.710938 -40.570312 41.421875 -41.90625 C 39.140625 -43.238281 36.585938 -43.90625 33.765625 -43.90625 C 30.941406 -43.90625 28.382812 -43.238281 26.09375 -41.90625 C 23.8125 -40.570312 22.003906 -38.695312 20.671875 -36.28125 C 19.347656 -33.863281 18.6875 -31.082031 18.6875 -27.9375 C 18.6875 -24.800781 19.347656 -22.019531 20.671875 -19.59375 C 22.003906 -17.175781 23.8125 -15.300781 26.09375 -13.96875 C 28.382812 -12.632812 30.941406 -11.96875 33.765625 -11.96875 Z M 33.765625 -11.96875 "/></g></g></g><g fill="#c19462" fill-opacity="1"><g transform="translate(646.207229, 1368.27882)"><g><path d="M 31.140625 -55.875 C 36.191406 -55.875 40.578125 -55.035156 44.296875 -53.359375 C 48.023438 -51.679688 50.898438 -49.285156 52.921875 -46.171875 C 54.941406 -43.066406 55.953125 -39.410156 55.953125 -35.203125 C 55.953125 -30.992188 54.941406 -27.347656 52.921875 -24.265625 C 50.898438 -21.179688 48.023438 -18.800781 44.296875 -17.125 C 40.578125 -15.445312 36.191406 -14.609375 31.140625 -14.609375 L 21.390625 -14.609375 L 21.390625 0 L 5.59375 0 L 5.59375 -55.875 Z M 30.171875 -27.0625 C 33.421875 -27.0625 35.867188 -27.765625 37.515625 -29.171875 C 39.171875 -30.585938 40 -32.597656 40 -35.203125 C 40 -37.804688 39.171875 -39.828125 37.515625 -41.265625 C 35.867188 -42.703125 33.421875 -43.421875 30.171875 -43.421875 L 21.390625 -43.421875 L 21.390625 -27.0625 Z M 30.171875 -27.0625 "/></g></g></g><g fill="#c19462" fill-opacity="1"><g transform="translate(705.029766, 1368.27882)"><g><path d="M 31.375 1.125 C 23.070312 1.125 16.617188 -1.132812 12.015625 -5.65625 C 7.410156 -10.1875 5.109375 -16.601562 5.109375 -24.90625 L 5.109375 -55.875 L 20.921875 -55.875 L 20.921875 -25.390625 C 20.921875 -16.441406 24.457031 -11.96875 31.53125 -11.96875 C 38.550781 -11.96875 42.0625 -16.441406 42.0625 -25.390625 L 42.0625 -55.875 L 57.640625 -55.875 L 57.640625 -24.90625 C 57.640625 -16.601562 55.335938 -10.1875 50.734375 -5.65625 C 46.128906 -1.132812 39.675781 1.125 31.375 1.125 Z M 31.375 1.125 "/></g></g></g><g fill="#c19462" fill-opacity="1"><g transform="translate(767.763183, 1368.27882)"><g><path d="M 5.59375 -55.875 L 21.390625 -55.875 L 21.390625 -12.53125 L 48.0625 -12.53125 L 48.0625 0 L 5.59375 0 Z M 5.59375 -55.875 "/></g></g></g><g fill="#c19462" fill-opacity="1"><g transform="translate(816.449417, 1368.27882)"><g><path d="M 43.03125 -10.859375 L 19.390625 -10.859375 L 15 0 L -1.125 0 L 23.546875 -55.875 L 39.109375 -55.875 L 63.859375 0 L 47.421875 0 Z M 38.390625 -22.515625 L 31.21875 -40.390625 L 24.03125 -22.515625 Z M 38.390625 -22.515625 "/></g></g></g><g fill="#c19462" fill-opacity="1"><g transform="translate(879.182795, 1368.27882)"><g><path d="M 17.484375 -43.34375 L 0.3125 -43.34375 L 0.3125 -55.875 L 50.375 -55.875 L 50.375 -43.34375 L 33.28125 -43.34375 L 33.28125 0 L 17.484375 0 Z M 17.484375 -43.34375 "/></g></g></g><g fill="#c19462" fill-opacity="1"><g transform="translate(929.86439, 1368.27882)"><g><path d="M 5.59375 -55.875 L 21.390625 -55.875 L 21.390625 0 L 5.59375 0 Z M 5.59375 -55.875 "/></g></g></g><g fill="#c19462" fill-opacity="1"><g transform="translate(956.921173, 1368.27882)"><g><path d="M 33.765625 1.125 C 27.859375 1.125 22.550781 -0.125 17.84375 -2.625 C 13.132812 -5.132812 9.4375 -8.597656 6.75 -13.015625 C 4.0625 -17.429688 2.71875 -22.40625 2.71875 -27.9375 C 2.71875 -33.46875 4.0625 -38.441406 6.75 -42.859375 C 9.4375 -47.285156 13.132812 -50.75 17.84375 -53.25 C 22.550781 -55.75 27.859375 -57 33.765625 -57 C 39.671875 -57 44.976562 -55.75 49.6875 -53.25 C 54.394531 -50.75 58.09375 -47.285156 60.78125 -42.859375 C 63.476562 -38.441406 64.828125 -33.46875 64.828125 -27.9375 C 64.828125 -22.40625 63.476562 -17.429688 60.78125 -13.015625 C 58.09375 -8.597656 54.394531 -5.132812 49.6875 -2.625 C 44.976562 -0.125 39.671875 1.125 33.765625 1.125 Z M 33.765625 -11.96875 C 36.585938 -11.96875 39.140625 -12.632812 41.421875 -13.96875 C 43.710938 -15.300781 45.523438 -17.175781 46.859375 -19.59375 C 48.191406 -22.019531 48.859375 -24.800781 48.859375 -27.9375 C 48.859375 -31.082031 48.191406 -33.863281 46.859375 -36.28125 C 45.523438 -38.695312 43.710938 -40.570312 41.421875 -41.90625 C 39.140625 -43.238281 36.585938 -43.90625 33.765625 -43.90625 C 30.941406 -43.90625 28.382812 -43.238281 26.09375 -41.90625 C 23.8125 -40.570312 22.003906 -38.695312 20.671875 -36.28125 C 19.347656 -33.863281 18.6875 -31.082031 18.6875 -27.9375 C 18.6875 -24.800781 19.347656 -22.019531 20.671875 -19.59375 C 22.003906 -17.175781 23.8125 -15.300781 26.09375 -13.96875 C 28.382812 -12.632812 30.941406 -11.96875 33.765625 -11.96875 Z M 33.765625 -11.96875 "/></g></g></g><g fill="#c19462" fill-opacity="1"><g transform="translate(1024.443404, 1368.27882)"><g><path d="M 58.75 -55.875 L 58.75 0 L 45.734375 0 L 21.078125 -29.78125 L 21.078125 0 L 5.59375 0 L 5.59375 -55.875 L 18.59375 -55.875 L 43.265625 -26.109375 L 43.265625 -55.875 Z M 58.75 -55.875 "/></g></g></g><g fill="#c19462" fill-opacity="1"><g transform="translate(1088.782668, 1368.27882)"><g/></g></g><g fill="#7c4b53" fill-opacity="1"><g transform="translate(177.195833, 553.451229)"><g><path d="M 28.25 0.9375 C 23.300781 0.9375 18.859375 -0.101562 14.921875 -2.1875 C 10.992188 -4.28125 7.90625 -7.191406 5.65625 -10.921875 C 3.414062 -14.648438 2.296875 -18.875 2.296875 -23.59375 C 2.296875 -28.3125 3.414062 -32.535156 5.65625 -36.265625 C 7.90625 -39.992188 10.992188 -42.898438 14.921875 -44.984375 C 18.859375 -47.078125 23.300781 -48.125 28.25 -48.125 C 32.5625 -48.125 36.445312 -47.359375 39.90625 -45.828125 C 43.363281 -44.304688 46.238281 -42.109375 48.53125 -39.234375 L 40.046875 -31.546875 C 36.984375 -35.234375 33.273438 -37.078125 28.921875 -37.078125 C 26.359375 -37.078125 24.078125 -36.515625 22.078125 -35.390625 C 20.078125 -34.265625 18.523438 -32.675781 17.421875 -30.625 C 16.316406 -28.582031 15.765625 -26.238281 15.765625 -23.59375 C 15.765625 -20.9375 16.316406 -18.585938 17.421875 -16.546875 C 18.523438 -14.503906 20.078125 -12.921875 22.078125 -11.796875 C 24.078125 -10.671875 26.359375 -10.109375 28.921875 -10.109375 C 33.273438 -10.109375 36.984375 -11.953125 40.046875 -15.640625 L 48.53125 -7.953125 C 46.238281 -5.078125 43.363281 -2.875 39.90625 -1.34375 C 36.445312 0.175781 32.5625 0.9375 28.25 0.9375 Z M 28.25 0.9375 "/></g></g></g><g fill="#7c4b53" fill-opacity="1"><g transform="translate(226.940875, 553.451229)"><g><path d="M 36.328125 -9.171875 L 16.375 -9.171875 L 12.671875 0 L -0.9375 0 L 19.890625 -47.1875 L 33.03125 -47.1875 L 53.921875 0 L 40.046875 0 Z M 32.421875 -19.015625 L 26.359375 -34.109375 L 20.296875 -19.015625 Z M 32.421875 -19.015625 "/></g></g></g><g fill="#7c4b53" fill-opacity="1"><g transform="translate(279.92137, 553.451229)"><g><path d="M 25.34375 -12.53125 L 18.0625 -12.53125 L 18.0625 0 L 4.71875 0 L 4.71875 -47.1875 L 26.28125 -47.1875 C 30.550781 -47.1875 34.257812 -46.476562 37.40625 -45.0625 C 40.550781 -43.644531 42.976562 -41.617188 44.6875 -38.984375 C 46.394531 -36.359375 47.25 -33.269531 47.25 -29.71875 C 47.25 -26.3125 46.453125 -23.335938 44.859375 -20.796875 C 43.265625 -18.253906 40.984375 -16.265625 38.015625 -14.828125 L 48.203125 0 L 33.90625 0 Z M 33.765625 -29.71875 C 33.765625 -31.925781 33.066406 -33.632812 31.671875 -34.84375 C 30.285156 -36.0625 28.222656 -36.671875 25.484375 -36.671875 L 18.0625 -36.671875 L 18.0625 -22.84375 L 25.484375 -22.84375 C 28.222656 -22.84375 30.285156 -23.4375 31.671875 -24.625 C 33.066406 -25.820312 33.765625 -27.519531 33.765625 -29.71875 Z M 33.765625 -29.71875 "/></g></g></g><g fill="#7c4b53" fill-opacity="1"><g transform="translate(329.80122, 553.451229)"><g><path d="M 4.71875 -47.1875 L 18.0625 -47.1875 L 18.0625 0 L 4.71875 0 Z M 4.71875 -47.1875 "/></g></g></g><g fill="#7c4b53" fill-opacity="1"><g transform="translate(352.651578, 553.451229)"><g><path d="M 49.609375 -47.1875 L 49.609375 0 L 38.625 0 L 17.796875 -25.140625 L 17.796875 0 L 4.71875 0 L 4.71875 -47.1875 L 15.703125 -47.1875 L 36.53125 -22.046875 L 36.53125 -47.1875 Z M 49.609375 -47.1875 "/></g></g></g><g fill="#7c4b53" fill-opacity="1"><g transform="translate(406.980159, 553.451229)"><g><path d="M 36.328125 -24.609375 L 48.125 -24.609375 L 48.125 -5.0625 C 45.425781 -3.125 42.320312 -1.640625 38.8125 -0.609375 C 35.3125 0.421875 31.8125 0.9375 28.3125 0.9375 C 23.363281 0.9375 18.910156 -0.101562 14.953125 -2.1875 C 11.003906 -4.28125 7.90625 -7.191406 5.65625 -10.921875 C 3.414062 -14.648438 2.296875 -18.875 2.296875 -23.59375 C 2.296875 -28.3125 3.414062 -32.535156 5.65625 -36.265625 C 7.90625 -39.992188 11.03125 -42.898438 15.03125 -44.984375 C 19.03125 -47.078125 23.546875 -48.125 28.578125 -48.125 C 32.984375 -48.125 36.9375 -47.378906 40.4375 -45.890625 C 43.945312 -44.410156 46.867188 -42.28125 49.203125 -39.5 L 40.71875 -31.8125 C 37.519531 -35.320312 33.695312 -37.078125 29.25 -37.078125 C 25.207031 -37.078125 21.945312 -35.847656 19.46875 -33.390625 C 17 -30.941406 15.765625 -27.675781 15.765625 -23.59375 C 15.765625 -20.988281 16.328125 -18.660156 17.453125 -16.609375 C 18.578125 -14.566406 20.148438 -12.972656 22.171875 -11.828125 C 24.191406 -10.679688 26.507812 -10.109375 29.125 -10.109375 C 31.6875 -10.109375 34.085938 -10.625 36.328125 -11.65625 Z M 36.328125 -24.609375 "/></g></g></g><g fill="#7c4b53" fill-opacity="1"><g transform="translate(458.882162, 553.451229)"><g/></g></g><g fill="#7c4b53" fill-opacity="1"><g transform="translate(478.497087, 553.451229)"><g><path d="M 26.28125 -47.1875 C 30.550781 -47.1875 34.257812 -46.476562 37.40625 -45.0625 C 40.550781 -43.644531 42.976562 -41.617188 44.6875 -38.984375 C 46.394531 -36.359375 47.25 -33.269531 47.25 -29.71875 C 47.25 -26.175781 46.394531 -23.097656 44.6875 -20.484375 C 42.976562 -17.878906 40.550781 -15.867188 37.40625 -14.453125 C 34.257812 -13.035156 30.550781 -12.328125 26.28125 -12.328125 L 18.0625 -12.328125 L 18.0625 0 L 4.71875 0 L 4.71875 -47.1875 Z M 25.484375 -22.84375 C 28.222656 -22.84375 30.285156 -23.4375 31.671875 -24.625 C 33.066406 -25.820312 33.765625 -27.519531 33.765625 -29.71875 C 33.765625 -31.925781 33.066406 -33.632812 31.671875 -34.84375 C 30.285156 -36.0625 28.222656 -36.671875 25.484375 -36.671875 L 18.0625 -36.671875 L 18.0625 -22.84375 Z M 25.484375 -22.84375 "/></g></g></g><g fill="#7c4b53" fill-opacity="1"><g transform="translate(528.174745, 553.451229)"><g><path d="M 25.34375 -12.53125 L 18.0625 -12.53125 L 18.0625 0 L 4.71875 0 L 4.71875 -47.1875 L 26.28125 -47.1875 C 30.550781 -47.1875 34.257812 -46.476562 37.40625 -45.0625 C 40.550781 -43.644531 42.976562 -41.617188 44.6875 -38.984375 C 46.394531 -36.359375 47.25 -33.269531 47.25 -29.71875 C 47.25 -26.3125 46.453125 -23.335938 44.859375 -20.796875 C 43.265625 -18.253906 40.984375 -16.265625 38.015625 -14.828125 L 48.203125 0 L 33.90625 0 Z M 33.765625 -29.71875 C 33.765625 -31.925781 33.066406 -33.632812 31.671875 -34.84375 C 30.285156 -36.0625 28.222656 -36.671875 25.484375 -36.671875 L 18.0625 -36.671875 L 18.0625 -22.84375 L 25.484375 -22.84375 C 28.222656 -22.84375 30.285156 -23.4375 31.671875 -24.625 C 33.066406 -25.820312 33.765625 -27.519531 33.765625 -29.71875 Z M 33.765625 -29.71875 "/></g></g></g><g fill="#7c4b53" fill-opacity="1"><g transform="translate(578.054595, 553.451229)"><g><path d="M 28.515625 0.9375 C 23.523438 0.9375 19.039062 -0.113281 15.0625 -2.21875 C 11.082031 -4.332031 7.957031 -7.253906 5.6875 -10.984375 C 3.425781 -14.710938 2.296875 -18.914062 2.296875 -23.59375 C 2.296875 -28.269531 3.425781 -32.472656 5.6875 -36.203125 C 7.957031 -39.929688 11.082031 -42.847656 15.0625 -44.953125 C 19.039062 -47.066406 23.523438 -48.125 28.515625 -48.125 C 33.503906 -48.125 37.984375 -47.066406 41.953125 -44.953125 C 45.929688 -42.847656 49.054688 -39.929688 51.328125 -36.203125 C 53.597656 -32.472656 54.734375 -28.269531 54.734375 -23.59375 C 54.734375 -18.914062 53.597656 -14.710938 51.328125 -10.984375 C 49.054688 -7.253906 45.929688 -4.332031 41.953125 -2.21875 C 37.984375 -0.113281 33.503906 0.9375 28.515625 0.9375 Z M 28.515625 -10.109375 C 30.890625 -10.109375 33.039062 -10.671875 34.96875 -11.796875 C 36.90625 -12.921875 38.4375 -14.503906 39.5625 -16.546875 C 40.6875 -18.585938 41.25 -20.9375 41.25 -23.59375 C 41.25 -26.238281 40.6875 -28.582031 39.5625 -30.625 C 38.4375 -32.675781 36.90625 -34.265625 34.96875 -35.390625 C 33.039062 -36.515625 30.890625 -37.078125 28.515625 -37.078125 C 26.128906 -37.078125 23.96875 -36.515625 22.03125 -35.390625 C 20.101562 -34.265625 18.578125 -32.675781 17.453125 -30.625 C 16.328125 -28.582031 15.765625 -26.238281 15.765625 -23.59375 C 15.765625 -20.9375 16.328125 -18.585938 17.453125 -16.546875 C 18.578125 -14.503906 20.101562 -12.921875 22.03125 -11.796875 C 23.96875 -10.671875 26.128906 -10.109375 28.515625 -10.109375 Z M 28.515625 -10.109375 "/></g></g></g><g fill="#7c4b53" fill-opacity="1"><g transform="translate(635.079407, 553.451229)"><g><path d="M 18.0625 -36.875 L 18.0625 -26.484375 L 38.890625 -26.484375 L 38.890625 -16.171875 L 18.0625 -16.171875 L 18.0625 0 L 4.71875 0 L 4.71875 -47.1875 L 41.71875 -47.1875 L 41.71875 -36.875 Z M 18.0625 -36.875 "/></g></g></g><g fill="#7c4b53" fill-opacity="1"><g transform="translate(678.353526, 553.451229)"><g><path d="M 42.59375 -10.3125 L 42.59375 0 L 4.71875 0 L 4.71875 -47.1875 L 41.71875 -47.1875 L 41.71875 -36.875 L 17.9375 -36.875 L 17.9375 -28.921875 L 38.890625 -28.921875 L 38.890625 -18.9375 L 17.9375 -18.9375 L 17.9375 -10.3125 Z M 42.59375 -10.3125 "/></g></g></g><g fill="#7c4b53" fill-opacity="1"><g transform="translate(723.649837, 553.451229)"><g><path d="M 21.296875 0.9375 C 17.484375 0.9375 13.773438 0.46875 10.171875 -0.46875 C 6.578125 -1.414062 3.660156 -2.675781 1.421875 -4.25 L 5.796875 -14.09375 C 7.910156 -12.695312 10.359375 -11.570312 13.140625 -10.71875 C 15.929688 -9.863281 18.675781 -9.4375 21.375 -9.4375 C 26.488281 -9.4375 29.046875 -10.71875 29.046875 -13.28125 C 29.046875 -14.625 28.316406 -15.617188 26.859375 -16.265625 C 25.398438 -16.921875 23.050781 -17.609375 19.8125 -18.328125 C 16.269531 -19.097656 13.304688 -19.921875 10.921875 -20.796875 C 8.535156 -21.671875 6.488281 -23.070312 4.78125 -25 C 3.070312 -26.9375 2.21875 -29.546875 2.21875 -32.828125 C 2.21875 -35.703125 3.003906 -38.296875 4.578125 -40.609375 C 6.148438 -42.921875 8.5 -44.75 11.625 -46.09375 C 14.75 -47.445312 18.582031 -48.125 23.125 -48.125 C 26.21875 -48.125 29.269531 -47.773438 32.28125 -47.078125 C 35.289062 -46.378906 37.941406 -45.359375 40.234375 -44.015625 L 36.125 -34.109375 C 31.632812 -36.535156 27.273438 -37.75 23.046875 -37.75 C 20.398438 -37.75 18.46875 -37.351562 17.25 -36.5625 C 16.039062 -35.78125 15.4375 -34.757812 15.4375 -33.5 C 15.4375 -32.238281 16.15625 -31.289062 17.59375 -30.65625 C 19.03125 -30.03125 21.34375 -29.382812 24.53125 -28.71875 C 28.125 -27.945312 31.097656 -27.125 33.453125 -26.25 C 35.816406 -25.375 37.863281 -23.976562 39.59375 -22.0625 C 41.332031 -20.15625 42.203125 -17.566406 42.203125 -14.296875 C 42.203125 -11.460938 41.414062 -8.898438 39.84375 -6.609375 C 38.269531 -4.316406 35.910156 -2.484375 32.765625 -1.109375 C 29.617188 0.253906 25.796875 0.9375 21.296875 0.9375 Z M 21.296875 0.9375 "/></g></g></g><g fill="#7c4b53" fill-opacity="1"><g transform="translate(767.260994, 553.451229)"><g><path d="M 21.296875 0.9375 C 17.484375 0.9375 13.773438 0.46875 10.171875 -0.46875 C 6.578125 -1.414062 3.660156 -2.675781 1.421875 -4.25 L 5.796875 -14.09375 C 7.910156 -12.695312 10.359375 -11.570312 13.140625 -10.71875 C 15.929688 -9.863281 18.675781 -9.4375 21.375 -9.4375 C 26.488281 -9.4375 29.046875 -10.71875 29.046875 -13.28125 C 29.046875 -14.625 28.316406 -15.617188 26.859375 -16.265625 C 25.398438 -16.921875 23.050781 -17.609375 19.8125 -18.328125 C 16.269531 -19.097656 13.304688 -19.921875 10.921875 -20.796875 C 8.535156 -21.671875 6.488281 -23.070312 4.78125 -25 C 3.070312 -26.9375 2.21875 -29.546875 2.21875 -32.828125 C 2.21875 -35.703125 3.003906 -38.296875 4.578125 -40.609375 C 6.148438 -42.921875 8.5 -44.75 11.625 -46.09375 C 14.75 -47.445312 18.582031 -48.125 23.125 -48.125 C 26.21875 -48.125 29.269531 -47.773438 32.28125 -47.078125 C 35.289062 -46.378906 37.941406 -45.359375 40.234375 -44.015625 L 36.125 -34.109375 C 31.632812 -36.535156 27.273438 -37.75 23.046875 -37.75 C 20.398438 -37.75 18.46875 -37.351562 17.25 -36.5625 C 16.039062 -35.78125 15.4375 -34.757812 15.4375 -33.5 C 15.4375 -32.238281 16.15625 -31.289062 17.59375 -30.65625 C 19.03125 -30.03125 21.34375 -29.382812 24.53125 -28.71875 C 28.125 -27.945312 31.097656 -27.125 33.453125 -26.25 C 35.816406 -25.375 37.863281 -23.976562 39.59375 -22.0625 C 41.332031 -20.15625 42.203125 -17.566406 42.203125 -14.296875 C 42.203125 -11.460938 41.414062 -8.898438 39.84375 -6.609375 C 38.269531 -4.316406 35.910156 -2.484375 32.765625 -1.109375 C 29.617188 0.253906 25.796875 0.9375 21.296875 0.9375 Z M 21.296875 0.9375 "/></g></g></g><g fill="#7c4b53" fill-opacity="1"><g transform="translate(810.872151, 553.451229)"><g><path d="M 4.71875 -47.1875 L 18.0625 -47.1875 L 18.0625 0 L 4.71875 0 Z M 4.71875 -47.1875 "/></g></g></g><g fill="#7c4b53" fill-opacity="1"><g transform="translate(833.722499, 553.451229)"><g><path d="M 28.515625 0.9375 C 23.523438 0.9375 19.039062 -0.113281 15.0625 -2.21875 C 11.082031 -4.332031 7.957031 -7.253906 5.6875 -10.984375 C 3.425781 -14.710938 2.296875 -18.914062 2.296875 -23.59375 C 2.296875 -28.269531 3.425781 -32.472656 5.6875 -36.203125 C 7.957031 -39.929688 11.082031 -42.847656 15.0625 -44.953125 C 19.039062 -47.066406 23.523438 -48.125 28.515625 -48.125 C 33.503906 -48.125 37.984375 -47.066406 41.953125 -44.953125 C 45.929688 -42.847656 49.054688 -39.929688 51.328125 -36.203125 C 53.597656 -32.472656 54.734375 -28.269531 54.734375 -23.59375 C 54.734375 -18.914062 53.597656 -14.710938 51.328125 -10.984375 C 49.054688 -7.253906 45.929688 -4.332031 41.953125 -2.21875 C 37.984375 -0.113281 33.503906 0.9375 28.515625 0.9375 Z M 28.515625 -10.109375 C 30.890625 -10.109375 33.039062 -10.671875 34.96875 -11.796875 C 36.90625 -12.921875 38.4375 -14.503906 39.5625 -16.546875 C 40.6875 -18.585938 41.25 -20.9375 41.25 -23.59375 C 41.25 -26.238281 40.6875 -28.582031 39.5625 -30.625 C 38.4375 -32.675781 36.90625 -34.265625 34.96875 -35.390625 C 33.039062 -36.515625 30.890625 -37.078125 28.515625 -37.078125 C 26.128906 -37.078125 23.96875 -36.515625 22.03125 -35.390625 C 20.101562 -34.265625 18.578125 -32.675781 17.453125 -30.625 C 16.328125 -28.582031 15.765625 -26.238281 15.765625 -23.59375 C 15.765625 -20.9375 16.328125 -18.585938 17.453125 -16.546875 C 18.578125 -14.503906 20.101562 -12.921875 22.03125 -11.796875 C 23.96875 -10.671875 26.128906 -10.109375 28.515625 -10.109375 Z M 28.515625 -10.109375 "/></g></g></g><g fill="#7c4b53" fill-opacity="1"><g transform="translate(890.747272, 553.451229)"><g><path d="M 49.609375 -47.1875 L 49.609375 0 L 38.625 0 L 17.796875 -25.140625 L 17.796875 0 L 4.71875 0 L 4.71875 -47.1875 L 15.703125 -47.1875 L 36.53125 -22.046875 L 36.53125 -47.1875 Z M 49.609375 -47.1875 "/></g></g></g><g fill="#7c4b53" fill-opacity="1"><g transform="translate(945.075892, 553.451229)"><g><path d="M 36.328125 -9.171875 L 16.375 -9.171875 L 12.671875 0 L -0.9375 0 L 19.890625 -47.1875 L 33.03125 -47.1875 L 53.921875 0 L 40.046875 0 Z M 32.421875 -19.015625 L 26.359375 -34.109375 L 20.296875 -19.015625 Z M 32.421875 -19.015625 "/></g></g></g><g fill="#7c4b53" fill-opacity="1"><g transform="translate(998.056357, 553.451229)"><g><path d="M 4.71875 -47.1875 L 18.0625 -47.1875 L 18.0625 -10.578125 L 40.578125 -10.578125 L 40.578125 0 L 4.71875 0 Z M 4.71875 -47.1875 "/></g></g></g><g fill="#7c4b53" fill-opacity="1"><g transform="translate(1039.173513, 553.451229)"><g><path d="M 21.296875 0.9375 C 17.484375 0.9375 13.773438 0.46875 10.171875 -0.46875 C 6.578125 -1.414062 3.660156 -2.675781 1.421875 -4.25 L 5.796875 -14.09375 C 7.910156 -12.695312 10.359375 -11.570312 13.140625 -10.71875 C 15.929688 -9.863281 18.675781 -9.4375 21.375 -9.4375 C 26.488281 -9.4375 29.046875 -10.71875 29.046875 -13.28125 C 29.046875 -14.625 28.316406 -15.617188 26.859375 -16.265625 C 25.398438 -16.921875 23.050781 -17.609375 19.8125 -18.328125 C 16.269531 -19.097656 13.304688 -19.921875 10.921875 -20.796875 C 8.535156 -21.671875 6.488281 -23.070312 4.78125 -25 C 3.070312 -26.9375 2.21875 -29.546875 2.21875 -32.828125 C 2.21875 -35.703125 3.003906 -38.296875 4.578125 -40.609375 C 6.148438 -42.921875 8.5 -44.75 11.625 -46.09375 C 14.75 -47.445312 18.582031 -48.125 23.125 -48.125 C 26.21875 -48.125 29.269531 -47.773438 32.28125 -47.078125 C 35.289062 -46.378906 37.941406 -45.359375 40.234375 -44.015625 L 36.125 -34.109375 C 31.632812 -36.535156 27.273438 -37.75 23.046875 -37.75 C 20.398438 -37.75 18.46875 -37.351562 17.25 -36.5625 C 16.039062 -35.78125 15.4375 -34.757812 15.4375 -33.5 C 15.4375 -32.238281 16.15625 -31.289062 17.59375 -30.65625 C 19.03125 -30.03125 21.34375 -29.382812 24.53125 -28.71875 C 28.125 -27.945312 31.097656 -27.125 33.453125 -26.25 C 35.816406 -25.375 37.863281 -23.976562 39.59375 -22.0625 C 41.332031 -20.15625 42.203125 -17.566406 42.203125 -14.296875 C 42.203125 -11.460938 41.414062 -8.898438 39.84375 -6.609375 C 38.269531 -4.316406 35.910156 -2.484375 32.765625 -1.109375 C 29.617188 0.253906 25.796875 0.9375 21.296875 0.9375 Z M 21.296875 0.9375 "/></g></g></g><g fill="#7c4b53" fill-opacity="1"><g transform="translate(1082.786583, 553.451229)"><g/></g></g><g fill="#52111f" fill-opacity="1"><g transform="translate(181.599211, 464.255383)"><g><path d="M 74.671875 -72.09375 L 74.671875 0 L 57.984375 0 L 57.984375 -29.5625 L 25.234375 -29.5625 L 25.234375 0 L 8.546875 0 L 8.546875 -72.09375 L 25.234375 -72.09375 L 25.234375 -43.671875 L 57.984375 -43.671875 L 57.984375 -72.09375 Z M 74.671875 -72.09375 "/></g></g></g><g fill="#52111f" fill-opacity="1"><g transform="translate(264.817964, 464.255383)"><g><path d="M 8.546875 -72.09375 L 25.234375 -72.09375 L 25.234375 0 L 8.546875 0 Z M 8.546875 -72.09375 "/></g></g></g><g fill="#52111f" fill-opacity="1"><g transform="translate(298.599833, 464.255383)"><g><path d="M 54.484375 0 L 40.578125 -20.078125 L 25.234375 -20.078125 L 25.234375 0 L 8.546875 0 L 8.546875 -72.09375 L 39.765625 -72.09375 C 46.148438 -72.09375 51.691406 -71.03125 56.390625 -68.90625 C 61.097656 -66.78125 64.71875 -63.757812 67.25 -59.84375 C 69.789062 -55.925781 71.0625 -51.289062 71.0625 -45.9375 C 71.0625 -40.582031 69.773438 -35.960938 67.203125 -32.078125 C 64.628906 -28.203125 60.972656 -25.234375 56.234375 -23.171875 L 72.40625 0 Z M 54.171875 -45.9375 C 54.171875 -49.988281 52.863281 -53.09375 50.25 -55.25 C 47.644531 -57.414062 43.835938 -58.5 38.828125 -58.5 L 25.234375 -58.5 L 25.234375 -33.375 L 38.828125 -33.375 C 43.835938 -33.375 47.644531 -34.472656 50.25 -36.671875 C 52.863281 -38.867188 54.171875 -41.957031 54.171875 -45.9375 Z M 54.171875 -45.9375 "/></g></g></g><g fill="#52111f" fill-opacity="1"><g transform="translate(374.300048, 464.255383)"><g><path d="M 64.375 -13.390625 L 64.375 0 L 8.546875 0 L 8.546875 -72.09375 L 63.03125 -72.09375 L 63.03125 -58.703125 L 25.125 -58.703125 L 25.125 -43.046875 L 58.609375 -43.046875 L 58.609375 -30.078125 L 25.125 -30.078125 L 25.125 -13.390625 Z M 64.375 -13.390625 "/></g></g></g><g fill="#52111f" fill-opacity="1"><g transform="translate(443.408678, 464.255383)"><g/></g></g><g fill="#52111f" fill-opacity="1"><g transform="translate(472.555838, 464.255383)"><g><path d="M 56.03125 -15.453125 L 22.5625 -15.453125 L 16.171875 0 L -0.921875 0 L 31.203125 -72.09375 L 47.6875 -72.09375 L 79.921875 0 L 62.421875 0 Z M 50.78125 -28.125 L 39.34375 -55.71875 L 27.90625 -28.125 Z M 50.78125 -28.125 "/></g></g></g><g fill="#52111f" fill-opacity="1"><g transform="translate(551.448858, 464.255383)"><g><path d="M 74.671875 -72.09375 L 74.671875 0 L 60.96875 0 L 25.03125 -43.78125 L 25.03125 0 L 8.546875 0 L 8.546875 -72.09375 L 22.34375 -72.09375 L 58.1875 -28.328125 L 58.1875 -72.09375 Z M 74.671875 -72.09375 "/></g></g></g><g fill="#52111f" fill-opacity="1"><g transform="translate(634.66763, 464.255383)"><g><path d="M 8.546875 -72.09375 L 41.296875 -72.09375 C 49.128906 -72.09375 56.046875 -70.597656 62.046875 -67.609375 C 68.054688 -64.628906 72.726562 -60.425781 76.0625 -55 C 79.394531 -49.570312 81.0625 -43.253906 81.0625 -36.046875 C 81.0625 -28.835938 79.394531 -22.519531 76.0625 -17.09375 C 72.726562 -11.675781 68.054688 -7.472656 62.046875 -4.484375 C 56.046875 -1.492188 49.128906 0 41.296875 0 L 8.546875 0 Z M 40.484375 -13.703125 C 47.691406 -13.703125 53.441406 -15.707031 57.734375 -19.71875 C 62.023438 -23.738281 64.171875 -29.179688 64.171875 -36.046875 C 64.171875 -42.910156 62.023438 -48.351562 57.734375 -52.375 C 53.441406 -56.394531 47.691406 -58.40625 40.484375 -58.40625 L 25.234375 -58.40625 L 25.234375 -13.703125 Z M 40.484375 -13.703125 "/></g></g></g><g fill="#52111f" fill-opacity="1"><g transform="translate(719.74027, 464.255383)"><g/></g></g><g fill="#52111f" fill-opacity="1"><g transform="translate(748.887411, 464.255383)"><g><path d="M 23.484375 -58.5 L 0.40625 -58.5 L 0.40625 -72.09375 L 63.234375 -72.09375 L 63.234375 -58.5 L 40.171875 -58.5 L 40.171875 0 L 23.484375 0 Z M 23.484375 -58.5 "/></g></g></g><g fill="#52111f" fill-opacity="1"><g transform="translate(812.537402, 464.255383)"><g><path d="M 54.484375 0 L 40.578125 -20.078125 L 25.234375 -20.078125 L 25.234375 0 L 8.546875 0 L 8.546875 -72.09375 L 39.765625 -72.09375 C 46.148438 -72.09375 51.691406 -71.03125 56.390625 -68.90625 C 61.097656 -66.78125 64.71875 -63.757812 67.25 -59.84375 C 69.789062 -55.925781 71.0625 -51.289062 71.0625 -45.9375 C 71.0625 -40.582031 69.773438 -35.960938 67.203125 -32.078125 C 64.628906 -28.203125 60.972656 -25.234375 56.234375 -23.171875 L 72.40625 0 Z M 54.171875 -45.9375 C 54.171875 -49.988281 52.863281 -53.09375 50.25 -55.25 C 47.644531 -57.414062 43.835938 -58.5 38.828125 -58.5 L 25.234375 -58.5 L 25.234375 -33.375 L 38.828125 -33.375 C 43.835938 -33.375 47.644531 -34.472656 50.25 -36.671875 C 52.863281 -38.867188 54.171875 -41.957031 54.171875 -45.9375 Z M 54.171875 -45.9375 "/></g></g></g><g fill="#52111f" fill-opacity="1"><g transform="translate(888.237617, 464.255383)"><g><path d="M 56.03125 -15.453125 L 22.5625 -15.453125 L 16.171875 0 L -0.921875 0 L 31.203125 -72.09375 L 47.6875 -72.09375 L 79.921875 0 L 62.421875 0 Z M 50.78125 -28.125 L 39.34375 -55.71875 L 27.90625 -28.125 Z M 50.78125 -28.125 "/></g></g></g><g fill="#52111f" fill-opacity="1"><g transform="translate(967.130618, 464.255383)"><g><path d="M 8.546875 -72.09375 L 25.234375 -72.09375 L 25.234375 0 L 8.546875 0 Z M 8.546875 -72.09375 "/></g></g></g><g fill="#52111f" fill-opacity="1"><g transform="translate(1000.912507, 464.255383)"><g><path d="M 74.671875 -72.09375 L 74.671875 0 L 60.96875 0 L 25.03125 -43.78125 L 25.03125 0 L 8.546875 0 L 8.546875 -72.09375 L 22.34375 -72.09375 L 58.1875 -28.328125 L 58.1875 -72.09375 Z M 74.671875 -72.09375 "/></g></g></g><g fill="#52111f" fill-opacity="1"><g transform="translate(1084.136971, 464.255383)"><g/></g></g><g fill="#77734e" fill-opacity="1"><g transform="translate(177.195833, 818.436285)"><g><path d="M 142.25 -135.28125 L 142.25 0 L 103.984375 0 L 103.984375 -52.765625 L 51.796875 -52.765625 L 51.796875 0 L 13.53125 0 L 13.53125 -135.28125 L 51.796875 -135.28125 L 51.796875 -84.453125 L 103.984375 -84.453125 L 103.984375 -135.28125 Z M 142.25 -135.28125 "/></g></g></g><g fill="#77734e" fill-opacity="1"><g transform="translate(332.972337, 818.436285)"><g><path d="M 13.53125 -135.28125 L 51.796875 -135.28125 L 51.796875 0 L 13.53125 0 Z M 13.53125 -135.28125 "/></g></g></g><g fill="#77734e" fill-opacity="1"><g transform="translate(398.491251, 818.436285)"><g><path d="M 104.171875 -70.546875 L 137.984375 -70.546875 L 137.984375 -14.5 C 130.253906 -8.957031 121.363281 -4.703125 111.3125 -1.734375 C 101.269531 1.222656 91.222656 2.703125 81.171875 2.703125 C 66.992188 2.703125 54.234375 -0.289062 42.890625 -6.28125 C 31.554688 -12.269531 22.671875 -20.609375 16.234375 -31.296875 C 9.796875 -41.992188 6.578125 -54.109375 6.578125 -67.640625 C 6.578125 -81.171875 9.796875 -93.28125 16.234375 -103.96875 C 22.671875 -114.664062 31.625 -123.007812 43.09375 -129 C 54.5625 -134.988281 67.507812 -137.984375 81.9375 -137.984375 C 94.570312 -137.984375 105.910156 -135.859375 115.953125 -131.609375 C 126.003906 -127.359375 134.378906 -121.238281 141.078125 -113.25 L 116.734375 -91.21875 C 107.585938 -101.269531 96.632812 -106.296875 83.875 -106.296875 C 72.28125 -106.296875 62.9375 -102.785156 55.84375 -95.765625 C 48.757812 -88.742188 45.21875 -79.367188 45.21875 -67.640625 C 45.21875 -60.171875 46.828125 -53.503906 50.046875 -47.640625 C 53.273438 -41.773438 57.785156 -37.195312 63.578125 -33.90625 C 69.378906 -30.625 76.015625 -28.984375 83.484375 -28.984375 C 90.828125 -28.984375 97.722656 -30.46875 104.171875 -33.4375 Z M 104.171875 -70.546875 "/></g></g></g><g fill="#77734e" fill-opacity="1"><g transform="translate(547.310027, 818.436285)"><g><path d="M 142.25 -135.28125 L 142.25 0 L 103.984375 0 L 103.984375 -52.765625 L 51.796875 -52.765625 L 51.796875 0 L 13.53125 0 L 13.53125 -135.28125 L 51.796875 -135.28125 L 51.796875 -84.453125 L 103.984375 -84.453125 L 103.984375 -135.28125 Z M 142.25 -135.28125 "/></g></g></g><g fill="#77734e" fill-opacity="1"><g transform="translate(703.086544, 818.436285)"><g><path d="M 122.140625 -29.5625 L 122.140625 0 L 13.53125 0 L 13.53125 -135.28125 L 119.625 -135.28125 L 119.625 -105.71875 L 51.40625 -105.71875 L 51.40625 -82.90625 L 111.515625 -82.90625 L 111.515625 -54.3125 L 51.40625 -54.3125 L 51.40625 -29.5625 Z M 122.140625 -29.5625 "/></g></g></g><g fill="#77734e" fill-opacity="1"><g transform="translate(832.964789, 818.436285)"><g><path d="M 61.078125 2.703125 C 50.117188 2.703125 39.484375 1.351562 29.171875 -1.34375 C 18.867188 -4.050781 10.5 -7.660156 4.0625 -12.171875 L 16.625 -40.390625 C 22.675781 -36.398438 29.695312 -33.179688 37.6875 -30.734375 C 45.675781 -28.285156 53.535156 -27.0625 61.265625 -27.0625 C 75.953125 -27.0625 83.296875 -30.734375 83.296875 -38.078125 C 83.296875 -41.941406 81.203125 -44.804688 77.015625 -46.671875 C 72.828125 -48.535156 66.09375 -50.5 56.8125 -52.5625 C 46.632812 -54.757812 38.128906 -57.113281 31.296875 -59.625 C 24.472656 -62.132812 18.613281 -66.160156 13.71875 -71.703125 C 8.820312 -77.242188 6.375 -84.71875 6.375 -94.125 C 6.375 -102.363281 8.628906 -109.800781 13.140625 -116.4375 C 17.648438 -123.070312 24.378906 -128.320312 33.328125 -132.1875 C 42.285156 -136.050781 53.273438 -137.984375 66.296875 -137.984375 C 75.179688 -137.984375 83.9375 -136.984375 92.5625 -134.984375 C 101.195312 -132.992188 108.800781 -130.066406 115.375 -126.203125 L 103.59375 -97.796875 C 90.707031 -104.753906 78.207031 -108.234375 66.09375 -108.234375 C 58.488281 -108.234375 52.945312 -107.101562 49.46875 -104.84375 C 46 -102.59375 44.265625 -99.660156 44.265625 -96.046875 C 44.265625 -92.441406 46.320312 -89.738281 50.4375 -87.9375 C 54.5625 -86.132812 61.195312 -84.265625 70.34375 -82.328125 C 80.65625 -80.140625 89.191406 -77.789062 95.953125 -75.28125 C 102.722656 -72.769531 108.585938 -68.773438 113.546875 -63.296875 C 118.503906 -57.816406 120.984375 -50.375 120.984375 -40.96875 C 120.984375 -32.851562 118.726562 -25.507812 114.21875 -18.9375 C 109.707031 -12.363281 102.941406 -7.113281 93.921875 -3.1875 C 84.910156 0.738281 73.960938 2.703125 61.078125 2.703125 Z M 61.078125 2.703125 "/></g></g></g><g fill="#77734e" fill-opacity="1"><g transform="translate(958.011197, 818.436285)"><g><path d="M 42.328125 -104.9375 L 0.765625 -104.9375 L 0.765625 -135.28125 L 121.953125 -135.28125 L 121.953125 -104.9375 L 80.59375 -104.9375 L 80.59375 0 L 42.328125 0 Z M 42.328125 -104.9375 "/></g></g></g><g fill="#77734e" fill-opacity="1"><g transform="translate(1080.741276, 818.436285)"><g/></g></g><g fill="#77734e" fill-opacity="1"><g transform="translate(1136.98315, 818.436285)"><g/></g></g></svg>