<svg xmlns="http://www.w3.org/2000/svg" xmlns:xlink="http://www.w3.org/1999/xlink" width="1728" zoomAndPan="magnify" viewBox="0 0 1296 1727.999927" height="2304" preserveAspectRatio="xMidYMid meet" version="1.0"><defs><g/></defs><rect x="-129.6" width="1555.2" fill="#ffffff" y="-172.799993" height="2073.599912" fill-opacity="1"/><rect x="-129.6" width="1555.2" fill="#52111f" y="-172.799993" height="2073.599912" fill-opacity="1"/><g fill="#ffffff" fill-opacity="1"><g transform="translate(129.600017, 229.241232)"><g><path d="M 32.296875 0.46875 C 26.960938 0.46875 22.128906 -0.722656 17.796875 -3.109375 C 13.472656 -5.492188 10.09375 -8.765625 7.65625 -12.921875 C 5.21875 -17.078125 4 -21.742188 4 -26.921875 C 4 -32.097656 5.21875 -36.757812 7.65625 -40.90625 C 10.09375 -45.0625 13.472656 -48.332031 17.796875 -50.71875 C 22.128906 -53.101562 26.960938 -54.296875 32.296875 -54.296875 C 37.628906 -54.296875 42.4375 -53.113281 46.71875 -50.75 C 51 -48.394531 54.367188 -45.128906 56.828125 -40.953125 C 59.296875 -36.773438 60.53125 -32.097656 60.53125 -26.921875 C 60.53125 -21.742188 59.296875 -17.0625 56.828125 -12.875 C 54.367188 -8.695312 51 -5.425781 46.71875 -3.0625 C 42.4375 -0.707031 37.628906 0.46875 32.296875 0.46875 Z M 32.296875 -4.609375 C 36.554688 -4.609375 40.398438 -5.566406 43.828125 -7.484375 C 47.265625 -9.410156 49.957031 -12.078125 51.90625 -15.484375 C 53.851562 -18.898438 54.828125 -22.710938 54.828125 -26.921875 C 54.828125 -31.117188 53.851562 -34.921875 51.90625 -38.328125 C 49.957031 -41.742188 47.265625 -44.410156 43.828125 -46.328125 C 40.398438 -48.253906 36.554688 -49.21875 32.296875 -49.21875 C 28.046875 -49.21875 24.1875 -48.253906 20.71875 -46.328125 C 17.257812 -44.410156 14.539062 -41.742188 12.5625 -38.328125 C 10.59375 -34.921875 9.609375 -31.117188 9.609375 -26.921875 C 9.609375 -22.710938 10.59375 -18.898438 12.5625 -15.484375 C 14.539062 -12.078125 17.257812 -9.410156 20.71875 -7.484375 C 24.1875 -5.566406 28.046875 -4.609375 32.296875 -4.609375 Z M 32.296875 -4.609375 "/></g></g></g><g fill="#ffffff" fill-opacity="1"><g transform="translate(194.127671, 229.241232)"><g><path d="M 30.453125 0.46875 C 23.484375 0.46875 18.050781 -1.53125 14.15625 -5.53125 C 10.257812 -9.53125 8.3125 -15.351562 8.3125 -23 L 8.3125 -53.828125 L 14 -53.828125 L 14 -23.21875 C 14 -16.96875 15.40625 -12.300781 18.21875 -9.21875 C 21.039062 -6.144531 25.117188 -4.609375 30.453125 -4.609375 C 35.835938 -4.609375 39.9375 -6.144531 42.75 -9.21875 C 45.570312 -12.300781 46.984375 -16.96875 46.984375 -23.21875 L 46.984375 -53.828125 L 52.53125 -53.828125 L 52.53125 -23 C 52.53125 -15.351562 50.59375 -9.53125 46.71875 -5.53125 C 42.851562 -1.53125 37.429688 0.46875 30.453125 0.46875 Z M 30.453125 0.46875 "/></g></g></g><g fill="#ffffff" fill-opacity="1"><g transform="translate(255.040538, 229.241232)"><g><path d="M 45.53125 0 L 33.21875 -17.296875 C 31.832031 -17.148438 30.398438 -17.078125 28.921875 -17.078125 L 14.453125 -17.078125 L 14.453125 0 L 8.765625 0 L 8.765625 -53.828125 L 28.921875 -53.828125 C 35.785156 -53.828125 41.164062 -52.1875 45.0625 -48.90625 C 48.957031 -45.625 50.90625 -41.113281 50.90625 -35.375 C 50.90625 -31.175781 49.84375 -27.625 47.71875 -24.71875 C 45.59375 -21.820312 42.554688 -19.734375 38.609375 -18.453125 L 51.765625 0 Z M 28.765625 -21.921875 C 34.097656 -21.921875 38.171875 -23.097656 40.984375 -25.453125 C 43.804688 -27.816406 45.21875 -31.125 45.21875 -35.375 C 45.21875 -39.726562 43.804688 -43.070312 40.984375 -45.40625 C 38.171875 -47.738281 34.097656 -48.90625 28.765625 -48.90625 L 14.453125 -48.90625 L 14.453125 -21.921875 Z M 28.765625 -21.921875 "/></g></g></g><g fill="#ffffff" fill-opacity="1"><g transform="translate(310.646609, 229.241232)"><g/></g></g><g fill="#ffffff" fill-opacity="1"><g transform="translate(330.797067, 229.241232)"><g><path d="M 53.53125 -53.828125 L 29.6875 0 L 24.078125 0 L 0.234375 -53.828125 L 6.390625 -53.828125 L 27 -7.078125 L 47.765625 -53.828125 Z M 53.53125 -53.828125 "/></g></g></g><g fill="#ffffff" fill-opacity="1"><g transform="translate(384.480381, 229.241232)"><g><path d="M 8.765625 -53.828125 L 14.453125 -53.828125 L 14.453125 0 L 8.765625 0 Z M 8.765625 -53.828125 "/></g></g></g><g fill="#ffffff" fill-opacity="1"><g transform="translate(407.707262, 229.241232)"><g><path d="M 23.609375 0.46875 C 19.609375 0.46875 15.773438 -0.171875 12.109375 -1.453125 C 8.441406 -2.742188 5.609375 -4.4375 3.609375 -6.53125 L 5.84375 -10.921875 C 7.789062 -8.972656 10.378906 -7.394531 13.609375 -6.1875 C 16.835938 -4.988281 20.171875 -4.390625 23.609375 -4.390625 C 28.429688 -4.390625 32.046875 -5.269531 34.453125 -7.03125 C 36.859375 -8.800781 38.0625 -11.097656 38.0625 -13.921875 C 38.0625 -16.078125 37.40625 -17.796875 36.09375 -19.078125 C 34.789062 -20.359375 33.191406 -21.34375 31.296875 -22.03125 C 29.398438 -22.726562 26.757812 -23.484375 23.375 -24.296875 C 19.320312 -25.328125 16.09375 -26.316406 13.6875 -27.265625 C 11.28125 -28.210938 9.21875 -29.660156 7.5 -31.609375 C 5.78125 -33.554688 4.921875 -36.195312 4.921875 -39.53125 C 4.921875 -42.25 5.640625 -44.722656 7.078125 -46.953125 C 8.515625 -49.179688 10.71875 -50.960938 13.6875 -52.296875 C 16.664062 -53.628906 20.359375 -54.296875 24.765625 -54.296875 C 27.835938 -54.296875 30.847656 -53.875 33.796875 -53.03125 C 36.742188 -52.1875 39.296875 -51.019531 41.453125 -49.53125 L 39.53125 -44.984375 C 37.269531 -46.472656 34.859375 -47.585938 32.296875 -48.328125 C 29.734375 -49.078125 27.222656 -49.453125 24.765625 -49.453125 C 20.046875 -49.453125 16.492188 -48.539062 14.109375 -46.71875 C 11.722656 -44.894531 10.53125 -42.550781 10.53125 -39.6875 C 10.53125 -37.53125 11.179688 -35.796875 12.484375 -34.484375 C 13.796875 -33.179688 15.4375 -32.179688 17.40625 -31.484375 C 19.382812 -30.796875 22.039062 -30.039062 25.375 -29.21875 C 29.320312 -28.25 32.515625 -27.289062 34.953125 -26.34375 C 37.390625 -25.394531 39.453125 -23.957031 41.140625 -22.03125 C 42.835938 -20.113281 43.6875 -17.515625 43.6875 -14.234375 C 43.6875 -11.515625 42.953125 -9.035156 41.484375 -6.796875 C 40.023438 -4.566406 37.78125 -2.796875 34.75 -1.484375 C 31.726562 -0.179688 28.015625 0.46875 23.609375 0.46875 Z M 23.609375 0.46875 "/></g></g></g><g fill="#ffffff" fill-opacity="1"><g transform="translate(455.007017, 229.241232)"><g><path d="M 8.765625 -53.828125 L 14.453125 -53.828125 L 14.453125 0 L 8.765625 0 Z M 8.765625 -53.828125 "/></g></g></g><g fill="#ffffff" fill-opacity="1"><g transform="translate(478.233898, 229.241232)"><g><path d="M 32.296875 0.46875 C 26.960938 0.46875 22.128906 -0.722656 17.796875 -3.109375 C 13.472656 -5.492188 10.09375 -8.765625 7.65625 -12.921875 C 5.21875 -17.078125 4 -21.742188 4 -26.921875 C 4 -32.097656 5.21875 -36.757812 7.65625 -40.90625 C 10.09375 -45.0625 13.472656 -48.332031 17.796875 -50.71875 C 22.128906 -53.101562 26.960938 -54.296875 32.296875 -54.296875 C 37.628906 -54.296875 42.4375 -53.113281 46.71875 -50.75 C 51 -48.394531 54.367188 -45.128906 56.828125 -40.953125 C 59.296875 -36.773438 60.53125 -32.097656 60.53125 -26.921875 C 60.53125 -21.742188 59.296875 -17.0625 56.828125 -12.875 C 54.367188 -8.695312 51 -5.425781 46.71875 -3.0625 C 42.4375 -0.707031 37.628906 0.46875 32.296875 0.46875 Z M 32.296875 -4.609375 C 36.554688 -4.609375 40.398438 -5.566406 43.828125 -7.484375 C 47.265625 -9.410156 49.957031 -12.078125 51.90625 -15.484375 C 53.851562 -18.898438 54.828125 -22.710938 54.828125 -26.921875 C 54.828125 -31.117188 53.851562 -34.921875 51.90625 -38.328125 C 49.957031 -41.742188 47.265625 -44.410156 43.828125 -46.328125 C 40.398438 -48.253906 36.554688 -49.21875 32.296875 -49.21875 C 28.046875 -49.21875 24.1875 -48.253906 20.71875 -46.328125 C 17.257812 -44.410156 14.539062 -41.742188 12.5625 -38.328125 C 10.59375 -34.921875 9.609375 -31.117188 9.609375 -26.921875 C 9.609375 -22.710938 10.59375 -18.898438 12.5625 -15.484375 C 14.539062 -12.078125 17.257812 -9.410156 20.71875 -7.484375 C 24.1875 -5.566406 28.046875 -4.609375 32.296875 -4.609375 Z M 32.296875 -4.609375 "/></g></g></g><g fill="#ffffff" fill-opacity="1"><g transform="translate(542.761541, 229.241232)"><g><path d="M 53.75 -53.828125 L 53.75 0 L 49.0625 0 L 14.453125 -43.6875 L 14.453125 0 L 8.765625 0 L 8.765625 -53.828125 L 13.453125 -53.828125 L 48.140625 -10.15625 L 48.140625 -53.828125 Z M 53.75 -53.828125 "/></g></g></g><path stroke-linecap="butt" transform="matrix(-0.75, -0.000562096, 0.000562096, -0.75, 2130.12664, 204.303734)" fill="none" stroke-linejoin="miter" d="M -0.00152331 1.998731 L 2001.441994 1.998725 " stroke="#f5f0ea" stroke-width="4" stroke-opacity="1" stroke-miterlimit="4"/><g fill="#ffffff" fill-opacity="1"><g transform="translate(168.868271, 730.281731)"><g/></g></g><g fill="#ffffff" fill-opacity="1"><g transform="translate(206.43858, 730.281731)"><g><path d="M 69.578125 -17.5625 L 31.375 -17.5625 L 24.265625 0 L -1.8125 0 L 38.078125 -90.359375 L 63.25 -90.359375 L 103.28125 0 L 76.6875 0 Z M 62.09375 -36.40625 L 50.46875 -65.328125 L 38.859375 -36.40625 Z M 62.09375 -36.40625 "/></g></g></g><g fill="#ffffff" fill-opacity="1"><g transform="translate(307.906318, 730.281731)"><g><path d="M 9.03125 -90.359375 L 34.59375 -90.359375 L 34.59375 -20.265625 L 77.71875 -20.265625 L 77.71875 0 L 9.03125 0 Z M 9.03125 -90.359375 "/></g></g></g><g fill="#ffffff" fill-opacity="1"><g transform="translate(386.653542, 730.281731)"><g><path d="M 9.03125 -90.359375 L 34.59375 -90.359375 L 34.59375 -20.265625 L 77.71875 -20.265625 L 77.71875 0 L 9.03125 0 Z M 9.03125 -90.359375 "/></g></g></g><g fill="#ffffff" fill-opacity="1"><g transform="translate(465.400778, 730.281731)"><g/></g></g><g fill="#ffffff" fill-opacity="1"><g transform="translate(502.967081, 730.281731)"><g><path d="M 50.34375 -90.359375 C 58.519531 -90.359375 65.617188 -89.003906 71.640625 -86.296875 C 77.671875 -83.585938 82.320312 -79.710938 85.59375 -74.671875 C 88.863281 -69.640625 90.5 -63.726562 90.5 -56.9375 C 90.5 -50.132812 88.863281 -44.234375 85.59375 -39.234375 C 82.320312 -34.242188 77.671875 -30.394531 71.640625 -27.6875 C 65.617188 -24.976562 58.519531 -23.625 50.34375 -23.625 L 34.59375 -23.625 L 34.59375 0 L 9.03125 0 L 9.03125 -90.359375 Z M 48.796875 -43.765625 C 54.046875 -43.765625 58.003906 -44.90625 60.671875 -47.1875 C 63.335938 -49.46875 64.671875 -52.71875 64.671875 -56.9375 C 64.671875 -61.144531 63.335938 -64.410156 60.671875 -66.734375 C 58.003906 -69.066406 54.046875 -70.234375 48.796875 -70.234375 L 34.59375 -70.234375 L 34.59375 -43.765625 Z M 48.796875 -43.765625 "/></g></g></g><g fill="#ffffff" fill-opacity="1"><g transform="translate(598.109202, 730.281731)"><g><path d="M 81.59375 -19.75 L 81.59375 0 L 9.03125 0 L 9.03125 -90.359375 L 79.90625 -90.359375 L 79.90625 -70.609375 L 34.34375 -70.609375 L 34.34375 -55.375 L 74.484375 -55.375 L 74.484375 -36.28125 L 34.34375 -36.28125 L 34.34375 -19.75 Z M 81.59375 -19.75 "/></g></g></g><g fill="#ffffff" fill-opacity="1"><g transform="translate(684.860262, 730.281731)"><g><path d="M 54.609375 1.8125 C 45.054688 1.8125 36.46875 -0.207031 28.84375 -4.25 C 21.226562 -8.300781 15.25 -13.894531 10.90625 -21.03125 C 6.5625 -28.175781 4.390625 -36.226562 4.390625 -45.1875 C 4.390625 -54.132812 6.5625 -62.175781 10.90625 -69.3125 C 15.25 -76.457031 21.226562 -82.050781 28.84375 -86.09375 C 36.46875 -90.144531 45.054688 -92.171875 54.609375 -92.171875 C 64.160156 -92.171875 72.742188 -90.144531 80.359375 -86.09375 C 87.972656 -82.050781 93.953125 -76.457031 98.296875 -69.3125 C 102.648438 -62.175781 104.828125 -54.132812 104.828125 -45.1875 C 104.828125 -36.226562 102.648438 -28.175781 98.296875 -21.03125 C 93.953125 -13.894531 87.972656 -8.300781 80.359375 -4.25 C 72.742188 -0.207031 64.160156 1.8125 54.609375 1.8125 Z M 54.609375 -19.359375 C 59.171875 -19.359375 63.300781 -20.429688 67 -22.578125 C 70.695312 -24.734375 73.617188 -27.769531 75.765625 -31.6875 C 77.921875 -35.601562 79 -40.101562 79 -45.1875 C 79 -50.257812 77.921875 -54.753906 75.765625 -58.671875 C 73.617188 -62.585938 70.695312 -65.617188 67 -67.765625 C 63.300781 -69.921875 59.171875 -71 54.609375 -71 C 50.046875 -71 45.910156 -69.921875 42.203125 -67.765625 C 38.503906 -65.617188 35.578125 -62.585938 33.421875 -58.671875 C 31.273438 -54.753906 30.203125 -50.257812 30.203125 -45.1875 C 30.203125 -40.101562 31.273438 -35.601562 33.421875 -31.6875 C 35.578125 -27.769531 38.503906 -24.734375 42.203125 -22.578125 C 45.910156 -20.429688 50.046875 -19.359375 54.609375 -19.359375 Z M 54.609375 -19.359375 "/></g></g></g><g fill="#ffffff" fill-opacity="1"><g transform="translate(794.073602, 730.281731)"><g><path d="M 50.34375 -90.359375 C 58.519531 -90.359375 65.617188 -89.003906 71.640625 -86.296875 C 77.671875 -83.585938 82.320312 -79.710938 85.59375 -74.671875 C 88.863281 -69.640625 90.5 -63.726562 90.5 -56.9375 C 90.5 -50.132812 88.863281 -44.234375 85.59375 -39.234375 C 82.320312 -34.242188 77.671875 -30.394531 71.640625 -27.6875 C 65.617188 -24.976562 58.519531 -23.625 50.34375 -23.625 L 34.59375 -23.625 L 34.59375 0 L 9.03125 0 L 9.03125 -90.359375 Z M 48.796875 -43.765625 C 54.046875 -43.765625 58.003906 -44.90625 60.671875 -47.1875 C 63.335938 -49.46875 64.671875 -52.71875 64.671875 -56.9375 C 64.671875 -61.144531 63.335938 -64.410156 60.671875 -66.734375 C 58.003906 -69.066406 54.046875 -70.234375 48.796875 -70.234375 L 34.59375 -70.234375 L 34.59375 -43.765625 Z M 48.796875 -43.765625 "/></g></g></g><g fill="#ffffff" fill-opacity="1"><g transform="translate(889.215745, 730.281731)"><g><path d="M 9.03125 -90.359375 L 34.59375 -90.359375 L 34.59375 -20.265625 L 77.71875 -20.265625 L 77.71875 0 L 9.03125 0 Z M 9.03125 -90.359375 "/></g></g></g><g fill="#ffffff" fill-opacity="1"><g transform="translate(967.962991, 730.281731)"><g><path d="M 81.59375 -19.75 L 81.59375 0 L 9.03125 0 L 9.03125 -90.359375 L 79.90625 -90.359375 L 79.90625 -70.609375 L 34.34375 -70.609375 L 34.34375 -55.375 L 74.484375 -55.375 L 74.484375 -36.28125 L 34.34375 -36.28125 L 34.34375 -19.75 Z M 81.59375 -19.75 "/></g></g></g><g fill="#ffffff" fill-opacity="1"><g transform="translate(1054.714052, 730.281731)"><g><path d="M 18.328125 -27.890625 C 22.546875 -27.890625 26.03125 -26.550781 28.78125 -23.875 C 31.539062 -21.207031 32.921875 -17.722656 32.921875 -13.421875 C 32.921875 -11.441406 32.660156 -9.460938 32.140625 -7.484375 C 31.628906 -5.503906 30.46875 -2.535156 28.65625 1.421875 L 20.53125 20.265625 L 5.15625 20.265625 L 11.234375 -0.78125 C 8.816406 -1.894531 6.941406 -3.546875 5.609375 -5.734375 C 4.273438 -7.929688 3.609375 -10.492188 3.609375 -13.421875 C 3.609375 -17.722656 4.984375 -21.207031 7.734375 -23.875 C 10.492188 -26.550781 14.023438 -27.890625 18.328125 -27.890625 Z M 18.328125 -27.890625 "/></g></g></g><g fill="#ffffff" fill-opacity="1"><g transform="translate(204.878549, 1023.843202)"><g><path d="M 16.3125 -12.1875 L 12.765625 -8.40625 L 12.765625 0 L 3.359375 0 L 3.359375 -33.59375 L 12.765625 -33.59375 L 12.765625 -19.625 L 25.78125 -33.59375 L 36.234375 -33.59375 L 22.515625 -18.71875 L 36.953125 0 L 25.921875 0 Z M 16.3125 -12.1875 "/></g></g></g><g fill="#ffffff" fill-opacity="1"><g transform="translate(240.974482, 1023.843202)"><g><path d="M 35.328125 -33.59375 L 35.328125 0 L 27.5 0 L 12.671875 -17.90625 L 12.671875 0 L 3.359375 0 L 3.359375 -33.59375 L 11.1875 -33.59375 L 26.015625 -15.703125 L 26.015625 -33.59375 Z M 35.328125 -33.59375 "/></g></g></g><g fill="#ffffff" fill-opacity="1"><g transform="translate(279.66241, 1023.843202)"><g><path d="M 20.296875 0.671875 C 16.742188 0.671875 13.550781 -0.078125 10.71875 -1.578125 C 7.894531 -3.085938 5.671875 -5.171875 4.046875 -7.828125 C 2.429688 -10.484375 1.625 -13.472656 1.625 -16.796875 C 1.625 -20.128906 2.429688 -23.125 4.046875 -25.78125 C 5.671875 -28.4375 7.894531 -30.515625 10.71875 -32.015625 C 13.550781 -33.515625 16.742188 -34.265625 20.296875 -34.265625 C 23.847656 -34.265625 27.039062 -33.515625 29.875 -32.015625 C 32.707031 -30.515625 34.929688 -28.4375 36.546875 -25.78125 C 38.160156 -23.125 38.96875 -20.128906 38.96875 -16.796875 C 38.96875 -13.472656 38.160156 -10.484375 36.546875 -7.828125 C 34.929688 -5.171875 32.707031 -3.085938 29.875 -1.578125 C 27.039062 -0.078125 23.847656 0.671875 20.296875 0.671875 Z M 20.296875 -7.203125 C 21.992188 -7.203125 23.53125 -7.597656 24.90625 -8.390625 C 26.28125 -9.191406 27.367188 -10.320312 28.171875 -11.78125 C 28.972656 -13.238281 29.375 -14.910156 29.375 -16.796875 C 29.375 -18.679688 28.972656 -20.351562 28.171875 -21.8125 C 27.367188 -23.269531 26.28125 -24.398438 24.90625 -25.203125 C 23.53125 -26.003906 21.992188 -26.40625 20.296875 -26.40625 C 18.609375 -26.40625 17.070312 -26.003906 15.6875 -25.203125 C 14.3125 -24.398438 13.222656 -23.269531 12.421875 -21.8125 C 11.628906 -20.351562 11.234375 -18.679688 11.234375 -16.796875 C 11.234375 -14.910156 11.628906 -13.238281 12.421875 -11.78125 C 13.222656 -10.320312 14.3125 -9.191406 15.6875 -8.390625 C 17.070312 -7.597656 18.609375 -7.203125 20.296875 -7.203125 Z M 20.296875 -7.203125 "/></g></g></g><g fill="#ffffff" fill-opacity="1"><g transform="translate(320.270336, 1023.843202)"><g><path d="M 56.0625 -33.59375 L 45.171875 0 L 34.984375 0 L 28.5625 -20.453125 L 21.84375 0 L 11.65625 0 L 0.765625 -33.59375 L 10.5625 -33.59375 L 17.328125 -12.140625 L 24.4375 -33.59375 L 33.171875 -33.59375 L 39.9375 -11.953125 L 46.984375 -33.59375 Z M 56.0625 -33.59375 "/></g></g></g><g fill="#ffffff" fill-opacity="1"><g transform="translate(377.10224, 1023.843202)"><g/></g></g><g fill="#ffffff" fill-opacity="1"><g transform="translate(391.070211, 1023.843202)"><g><path d="M 10.515625 -26.0625 L 0.1875 -26.0625 L 0.1875 -33.59375 L 30.28125 -33.59375 L 30.28125 -26.0625 L 20.015625 -26.0625 L 20.015625 0 L 10.515625 0 Z M 10.515625 -26.0625 "/></g></g></g><g fill="#ffffff" fill-opacity="1"><g transform="translate(421.550162, 1023.843202)"><g><path d="M 35.328125 -33.59375 L 35.328125 0 L 25.828125 0 L 25.828125 -13.109375 L 12.859375 -13.109375 L 12.859375 0 L 3.359375 0 L 3.359375 -33.59375 L 12.859375 -33.59375 L 12.859375 -20.96875 L 25.828125 -20.96875 L 25.828125 -33.59375 Z M 35.328125 -33.59375 "/></g></g></g><g fill="#ffffff" fill-opacity="1"><g transform="translate(460.2381, 1023.843202)"><g><path d="M 30.34375 -7.34375 L 30.34375 0 L 3.359375 0 L 3.359375 -33.59375 L 29.71875 -33.59375 L 29.71875 -26.25 L 12.765625 -26.25 L 12.765625 -20.59375 L 27.703125 -20.59375 L 27.703125 -13.484375 L 12.765625 -13.484375 L 12.765625 -7.34375 Z M 30.34375 -7.34375 "/></g></g></g><g fill="#ffffff" fill-opacity="1"><g transform="translate(492.494049, 1023.843202)"><g><path d="M 21.359375 -12.046875 L 21.359375 0 L 11.859375 0 L 11.859375 -12.1875 L -0.953125 -33.59375 L 9.078125 -33.59375 L 17.046875 -20.25 L 25.015625 -33.59375 L 34.21875 -33.59375 Z M 21.359375 -12.046875 "/></g></g></g><g fill="#ffffff" fill-opacity="1"><g transform="translate(525.757993, 1023.843202)"><g/></g></g><g fill="#ffffff" fill-opacity="1"><g transform="translate(539.725963, 1023.843202)"><g><path d="M 25.875 -6.53125 L 11.65625 -6.53125 L 9.03125 0 L -0.671875 0 L 14.15625 -33.59375 L 23.515625 -33.59375 L 38.40625 0 L 28.515625 0 Z M 23.09375 -13.53125 L 18.765625 -24.28125 L 14.453125 -13.53125 Z M 23.09375 -13.53125 "/></g></g></g><g fill="#ffffff" fill-opacity="1"><g transform="translate(577.453881, 1023.843202)"><g><path d="M 18.046875 -8.921875 L 12.859375 -8.921875 L 12.859375 0 L 3.359375 0 L 3.359375 -33.59375 L 18.71875 -33.59375 C 21.757812 -33.59375 24.398438 -33.085938 26.640625 -32.078125 C 28.878906 -31.078125 30.601562 -29.640625 31.8125 -27.765625 C 33.03125 -25.890625 33.640625 -23.691406 33.640625 -21.171875 C 33.640625 -18.734375 33.070312 -16.609375 31.9375 -14.796875 C 30.800781 -12.992188 29.179688 -11.582031 27.078125 -10.5625 L 34.3125 0 L 24.140625 0 Z M 24.046875 -21.171875 C 24.046875 -22.734375 23.550781 -23.945312 22.5625 -24.8125 C 21.570312 -25.675781 20.097656 -26.109375 18.140625 -26.109375 L 12.859375 -26.109375 L 12.859375 -16.265625 L 18.140625 -16.265625 C 20.097656 -16.265625 21.570312 -16.6875 22.5625 -17.53125 C 23.550781 -18.382812 24.046875 -19.597656 24.046875 -21.171875 Z M 24.046875 -21.171875 "/></g></g></g><g fill="#ffffff" fill-opacity="1"><g transform="translate(612.973821, 1023.843202)"><g><path d="M 30.34375 -7.34375 L 30.34375 0 L 3.359375 0 L 3.359375 -33.59375 L 29.71875 -33.59375 L 29.71875 -26.25 L 12.765625 -26.25 L 12.765625 -20.59375 L 27.703125 -20.59375 L 27.703125 -13.484375 L 12.765625 -13.484375 L 12.765625 -7.34375 Z M 30.34375 -7.34375 "/></g></g></g><g fill="#ffffff" fill-opacity="1"><g transform="translate(645.229769, 1023.843202)"><g/></g></g><g fill="#ffffff" fill-opacity="1"><g transform="translate(659.19774, 1023.843202)"><g><path d="M 20.109375 0.671875 C 16.585938 0.671875 13.425781 -0.0703125 10.625 -1.5625 C 7.832031 -3.050781 5.632812 -5.125 4.03125 -7.78125 C 2.425781 -10.4375 1.625 -13.441406 1.625 -16.796875 C 1.625 -20.160156 2.425781 -23.171875 4.03125 -25.828125 C 5.632812 -28.484375 7.832031 -30.550781 10.625 -32.03125 C 13.425781 -33.519531 16.585938 -34.265625 20.109375 -34.265625 C 23.179688 -34.265625 25.945312 -33.722656 28.40625 -32.640625 C 30.875 -31.554688 32.925781 -29.988281 34.5625 -27.9375 L 28.515625 -22.46875 C 26.335938 -25.09375 23.695312 -26.40625 20.59375 -26.40625 C 18.769531 -26.40625 17.144531 -26.003906 15.71875 -25.203125 C 14.289062 -24.398438 13.1875 -23.269531 12.40625 -21.8125 C 11.625 -20.351562 11.234375 -18.679688 11.234375 -16.796875 C 11.234375 -14.910156 11.625 -13.238281 12.40625 -11.78125 C 13.1875 -10.320312 14.289062 -9.191406 15.71875 -8.390625 C 17.144531 -7.597656 18.769531 -7.203125 20.59375 -7.203125 C 23.695312 -7.203125 26.335938 -8.515625 28.515625 -11.140625 L 34.5625 -5.65625 C 32.925781 -3.613281 30.875 -2.046875 28.40625 -0.953125 C 25.945312 0.128906 23.179688 0.671875 20.109375 0.671875 Z M 20.109375 0.671875 "/></g></g></g><g fill="#ffffff" fill-opacity="1"><g transform="translate(694.621687, 1023.843202)"><g><path d="M 18.046875 -8.921875 L 12.859375 -8.921875 L 12.859375 0 L 3.359375 0 L 3.359375 -33.59375 L 18.71875 -33.59375 C 21.757812 -33.59375 24.398438 -33.085938 26.640625 -32.078125 C 28.878906 -31.078125 30.601562 -29.640625 31.8125 -27.765625 C 33.03125 -25.890625 33.640625 -23.691406 33.640625 -21.171875 C 33.640625 -18.734375 33.070312 -16.609375 31.9375 -14.796875 C 30.800781 -12.992188 29.179688 -11.582031 27.078125 -10.5625 L 34.3125 0 L 24.140625 0 Z M 24.046875 -21.171875 C 24.046875 -22.734375 23.550781 -23.945312 22.5625 -24.8125 C 21.570312 -25.675781 20.097656 -26.109375 18.140625 -26.109375 L 12.859375 -26.109375 L 12.859375 -16.265625 L 18.140625 -16.265625 C 20.097656 -16.265625 21.570312 -16.6875 22.5625 -17.53125 C 23.550781 -18.382812 24.046875 -19.597656 24.046875 -21.171875 Z M 24.046875 -21.171875 "/></g></g></g><g fill="#ffffff" fill-opacity="1"><g transform="translate(730.141627, 1023.843202)"><g><path d="M 30.34375 -7.34375 L 30.34375 0 L 3.359375 0 L 3.359375 -33.59375 L 29.71875 -33.59375 L 29.71875 -26.25 L 12.765625 -26.25 L 12.765625 -20.59375 L 27.703125 -20.59375 L 27.703125 -13.484375 L 12.765625 -13.484375 L 12.765625 -7.34375 Z M 30.34375 -7.34375 "/></g></g></g><g fill="#ffffff" fill-opacity="1"><g transform="translate(762.397576, 1023.843202)"><g><path d="M 25.875 -6.53125 L 11.65625 -6.53125 L 9.03125 0 L -0.671875 0 L 14.15625 -33.59375 L 23.515625 -33.59375 L 38.40625 0 L 28.515625 0 Z M 23.09375 -13.53125 L 18.765625 -24.28125 L 14.453125 -13.53125 Z M 23.09375 -13.53125 "/></g></g></g><g fill="#ffffff" fill-opacity="1"><g transform="translate(800.125493, 1023.843202)"><g><path d="M 10.515625 -26.0625 L 0.1875 -26.0625 L 0.1875 -33.59375 L 30.28125 -33.59375 L 30.28125 -26.0625 L 20.015625 -26.0625 L 20.015625 0 L 10.515625 0 Z M 10.515625 -26.0625 "/></g></g></g><g fill="#ffffff" fill-opacity="1"><g transform="translate(830.605456, 1023.843202)"><g><path d="M 30.34375 -7.34375 L 30.34375 0 L 3.359375 0 L 3.359375 -33.59375 L 29.71875 -33.59375 L 29.71875 -26.25 L 12.765625 -26.25 L 12.765625 -20.59375 L 27.703125 -20.59375 L 27.703125 -13.484375 L 12.765625 -13.484375 L 12.765625 -7.34375 Z M 30.34375 -7.34375 "/></g></g></g><g fill="#ffffff" fill-opacity="1"><g transform="translate(862.861404, 1023.843202)"><g><path d="M 3.359375 -33.59375 L 19.25 -33.59375 C 22.925781 -33.59375 26.1875 -32.90625 29.03125 -31.53125 C 31.882812 -30.15625 34.09375 -28.203125 35.65625 -25.671875 C 37.226562 -23.148438 38.015625 -20.191406 38.015625 -16.796875 C 38.015625 -13.410156 37.226562 -10.453125 35.65625 -7.921875 C 34.09375 -5.390625 31.882812 -3.4375 29.03125 -2.0625 C 26.1875 -0.6875 22.925781 0 19.25 0 L 3.359375 0 Z M 18.859375 -7.578125 C 21.742188 -7.578125 24.054688 -8.394531 25.796875 -10.03125 C 27.546875 -11.664062 28.421875 -13.921875 28.421875 -16.796875 C 28.421875 -19.679688 27.546875 -21.9375 25.796875 -23.5625 C 24.054688 -25.195312 21.742188 -26.015625 18.859375 -26.015625 L 12.859375 -26.015625 L 12.859375 -7.578125 Z M 18.859375 -7.578125 "/></g></g></g><g fill="#ffffff" fill-opacity="1"><g transform="translate(902.50932, 1023.843202)"><g/></g></g><g fill="#ffffff" fill-opacity="1"><g transform="translate(916.47729, 1023.843202)"><g><path d="M 3.359375 -33.59375 L 12.859375 -33.59375 L 12.859375 0 L 3.359375 0 Z M 3.359375 -33.59375 "/></g></g></g><g fill="#ffffff" fill-opacity="1"><g transform="translate(932.749277, 1023.843202)"><g><path d="M 35.328125 -33.59375 L 35.328125 0 L 27.5 0 L 12.671875 -17.90625 L 12.671875 0 L 3.359375 0 L 3.359375 -33.59375 L 11.1875 -33.59375 L 26.015625 -15.703125 L 26.015625 -33.59375 Z M 35.328125 -33.59375 "/></g></g></g><g fill="#ffffff" fill-opacity="1"><g transform="translate(971.437216, 1023.843202)"><g/></g></g><g fill="#ffffff" fill-opacity="1"><g transform="translate(985.405186, 1023.843202)"><g><path d="M 10.515625 -26.0625 L 0.1875 -26.0625 L 0.1875 -33.59375 L 30.28125 -33.59375 L 30.28125 -26.0625 L 20.015625 -26.0625 L 20.015625 0 L 10.515625 0 Z M 10.515625 -26.0625 "/></g></g></g><g fill="#ffffff" fill-opacity="1"><g transform="translate(1015.885103, 1023.843202)"><g><path d="M 35.328125 -33.59375 L 35.328125 0 L 25.828125 0 L 25.828125 -13.109375 L 12.859375 -13.109375 L 12.859375 0 L 3.359375 0 L 3.359375 -33.59375 L 12.859375 -33.59375 L 12.859375 -20.96875 L 25.828125 -20.96875 L 25.828125 -33.59375 Z M 35.328125 -33.59375 "/></g></g></g><g fill="#ffffff" fill-opacity="1"><g transform="translate(1054.572997, 1023.843202)"><g><path d="M 30.34375 -7.34375 L 30.34375 0 L 3.359375 0 L 3.359375 -33.59375 L 29.71875 -33.59375 L 29.71875 -26.25 L 12.765625 -26.25 L 12.765625 -20.59375 L 27.703125 -20.59375 L 27.703125 -13.484375 L 12.765625 -13.484375 L 12.765625 -7.34375 Z M 30.34375 -7.34375 "/></g></g></g><g fill="#ffffff" fill-opacity="1"><g transform="translate(1086.8316, 1023.843202)"><g/></g></g><g fill="#ffffff" fill-opacity="1"><g transform="translate(1100.799571, 1023.843202)"><g/></g></g><g fill="#ffffff" fill-opacity="1"><g transform="translate(204.878549, 856.272576)"><g><path d="M 37.296875 -18.453125 L 26.578125 -18.453125 L 26.578125 0 L 6.9375 0 L 6.9375 -69.4375 L 38.6875 -69.4375 C 44.96875 -69.4375 50.421875 -68.394531 55.046875 -66.3125 C 59.679688 -64.226562 63.253906 -61.25 65.765625 -57.375 C 68.273438 -53.507812 69.53125 -48.960938 69.53125 -43.734375 C 69.53125 -38.710938 68.351562 -34.332031 66 -30.59375 C 63.65625 -26.863281 60.300781 -23.941406 55.9375 -21.828125 L 70.921875 0 L 49.890625 0 Z M 49.6875 -43.734375 C 49.6875 -46.984375 48.660156 -49.5 46.609375 -51.28125 C 44.566406 -53.0625 41.53125 -53.953125 37.5 -53.953125 L 26.578125 -53.953125 L 26.578125 -33.625 L 37.5 -33.625 C 41.53125 -33.625 44.566406 -34.5 46.609375 -36.25 C 48.660156 -38 49.6875 -40.492188 49.6875 -43.734375 Z M 49.6875 -43.734375 "/></g></g></g><g fill="#ffffff" fill-opacity="1"><g transform="translate(278.277332, 856.272576)"><g><path d="M 62.6875 -15.171875 L 62.6875 0 L 6.9375 0 L 6.9375 -69.4375 L 61.390625 -69.4375 L 61.390625 -54.25 L 26.390625 -54.25 L 26.390625 -42.546875 L 57.234375 -42.546875 L 57.234375 -27.875 L 26.390625 -27.875 L 26.390625 -15.171875 Z M 62.6875 -15.171875 "/></g></g></g><g fill="#ffffff" fill-opacity="1"><g transform="translate(344.931367, 856.272576)"><g><path d="M 53.46875 -36.203125 L 70.8125 -36.203125 L 70.8125 -7.4375 C 66.851562 -4.59375 62.289062 -2.410156 57.125 -0.890625 C 51.96875 0.628906 46.8125 1.390625 41.65625 1.390625 C 34.382812 1.390625 27.835938 -0.144531 22.015625 -3.21875 C 16.203125 -6.289062 11.640625 -10.570312 8.328125 -16.0625 C 5.023438 -21.550781 3.375 -27.769531 3.375 -34.71875 C 3.375 -41.65625 5.023438 -47.867188 8.328125 -53.359375 C 11.640625 -58.847656 16.238281 -63.128906 22.125 -66.203125 C 28.007812 -69.273438 34.65625 -70.8125 42.0625 -70.8125 C 48.539062 -70.8125 54.359375 -69.722656 59.515625 -67.546875 C 64.671875 -65.367188 68.96875 -62.226562 72.40625 -58.125 L 59.90625 -46.8125 C 55.207031 -51.96875 49.585938 -54.546875 43.046875 -54.546875 C 37.097656 -54.546875 32.300781 -52.742188 28.65625 -49.140625 C 25.019531 -45.535156 23.203125 -40.726562 23.203125 -34.71875 C 23.203125 -30.882812 24.03125 -27.460938 25.6875 -24.453125 C 27.34375 -21.441406 29.65625 -19.09375 32.625 -17.40625 C 35.601562 -15.71875 39.007812 -14.875 42.84375 -14.875 C 46.613281 -14.875 50.15625 -15.632812 53.46875 -17.15625 Z M 53.46875 -36.203125 "/></g></g></g><g fill="#ffffff" fill-opacity="1"><g transform="translate(421.305762, 856.272576)"><g><path d="M 53.46875 -13.484375 L 24.109375 -13.484375 L 18.640625 0 L -1.390625 0 L 29.265625 -69.4375 L 48.609375 -69.4375 L 79.34375 0 L 58.921875 0 Z M 47.703125 -27.96875 L 38.78125 -50.1875 L 29.859375 -27.96875 Z M 47.703125 -27.96875 "/></g></g></g><g fill="#ffffff" fill-opacity="1"><g transform="translate(499.267166, 856.272576)"><g><path d="M 37.296875 -18.453125 L 26.578125 -18.453125 L 26.578125 0 L 6.9375 0 L 6.9375 -69.4375 L 38.6875 -69.4375 C 44.96875 -69.4375 50.421875 -68.394531 55.046875 -66.3125 C 59.679688 -64.226562 63.253906 -61.25 65.765625 -57.375 C 68.273438 -53.507812 69.53125 -48.960938 69.53125 -43.734375 C 69.53125 -38.710938 68.351562 -34.332031 66 -30.59375 C 63.65625 -26.863281 60.300781 -23.941406 55.9375 -21.828125 L 70.921875 0 L 49.890625 0 Z M 49.6875 -43.734375 C 49.6875 -46.984375 48.660156 -49.5 46.609375 -51.28125 C 44.566406 -53.0625 41.53125 -53.953125 37.5 -53.953125 L 26.578125 -53.953125 L 26.578125 -33.625 L 37.5 -33.625 C 41.53125 -33.625 44.566406 -34.5 46.609375 -36.25 C 48.660156 -38 49.6875 -40.492188 49.6875 -43.734375 Z M 49.6875 -43.734375 "/></g></g></g><g fill="#ffffff" fill-opacity="1"><g transform="translate(572.665948, 856.272576)"><g><path d="M 6.9375 -69.4375 L 39.78125 -69.4375 C 47.382812 -69.4375 54.128906 -68.015625 60.015625 -65.171875 C 65.898438 -62.328125 70.460938 -58.289062 73.703125 -53.0625 C 76.941406 -47.84375 78.5625 -41.726562 78.5625 -34.71875 C 78.5625 -27.707031 76.941406 -21.585938 73.703125 -16.359375 C 70.460938 -11.140625 65.898438 -7.109375 60.015625 -4.265625 C 54.128906 -1.421875 47.382812 0 39.78125 0 L 6.9375 0 Z M 38.984375 -15.671875 C 44.929688 -15.671875 49.707031 -17.351562 53.3125 -20.71875 C 56.914062 -24.09375 58.71875 -28.757812 58.71875 -34.71875 C 58.71875 -40.664062 56.914062 -45.328125 53.3125 -48.703125 C 49.707031 -52.078125 44.929688 -53.765625 38.984375 -53.765625 L 26.578125 -53.765625 L 26.578125 -15.671875 Z M 38.984375 -15.671875 "/></g></g></g><g fill="#ffffff" fill-opacity="1"><g transform="translate(654.59488, 856.272576)"><g><path d="M 6.9375 -69.4375 L 26.578125 -69.4375 L 26.578125 -15.578125 L 59.71875 -15.578125 L 59.71875 0 L 6.9375 0 Z M 6.9375 -69.4375 "/></g></g></g><g fill="#ffffff" fill-opacity="1"><g transform="translate(715.099285, 856.272576)"><g><path d="M 62.6875 -15.171875 L 62.6875 0 L 6.9375 0 L 6.9375 -69.4375 L 61.390625 -69.4375 L 61.390625 -54.25 L 26.390625 -54.25 L 26.390625 -42.546875 L 57.234375 -42.546875 L 57.234375 -27.875 L 26.390625 -27.875 L 26.390625 -15.171875 Z M 62.6875 -15.171875 "/></g></g></g><g fill="#ffffff" fill-opacity="1"><g transform="translate(781.753332, 856.272576)"><g><path d="M 31.34375 1.390625 C 25.71875 1.390625 20.257812 0.695312 14.96875 -0.6875 C 9.6875 -2.082031 5.390625 -3.9375 2.078125 -6.25 L 8.53125 -20.734375 C 11.632812 -18.679688 15.234375 -17.023438 19.328125 -15.765625 C 23.429688 -14.515625 27.46875 -13.890625 31.4375 -13.890625 C 38.976562 -13.890625 42.75 -15.773438 42.75 -19.546875 C 42.75 -21.523438 41.671875 -22.992188 39.515625 -23.953125 C 37.367188 -24.910156 33.914062 -25.921875 29.15625 -26.984375 C 23.9375 -28.109375 19.570312 -29.3125 16.0625 -30.59375 C 12.5625 -31.882812 9.550781 -33.953125 7.03125 -36.796875 C 4.519531 -39.640625 3.265625 -43.472656 3.265625 -48.296875 C 3.265625 -52.535156 4.421875 -56.359375 6.734375 -59.765625 C 9.054688 -63.171875 12.515625 -65.863281 17.109375 -67.84375 C 21.703125 -69.820312 27.335938 -70.8125 34.015625 -70.8125 C 38.578125 -70.8125 43.070312 -70.300781 47.5 -69.28125 C 51.9375 -68.257812 55.84375 -66.753906 59.21875 -64.765625 L 53.171875 -50.1875 C 46.554688 -53.757812 40.140625 -55.546875 33.921875 -55.546875 C 30.015625 -55.546875 27.171875 -54.96875 25.390625 -53.8125 C 23.609375 -52.65625 22.71875 -51.148438 22.71875 -49.296875 C 22.71875 -47.441406 23.773438 -46.050781 25.890625 -45.125 C 28.003906 -44.195312 31.410156 -43.238281 36.109375 -42.25 C 41.398438 -41.125 45.78125 -39.914062 49.25 -38.625 C 52.71875 -37.34375 55.722656 -35.296875 58.265625 -32.484375 C 60.816406 -29.671875 62.09375 -25.851562 62.09375 -21.03125 C 62.09375 -16.863281 60.929688 -13.09375 58.609375 -9.71875 C 56.296875 -6.34375 52.828125 -3.644531 48.203125 -1.625 C 43.578125 0.382812 37.957031 1.390625 31.34375 1.390625 Z M 31.34375 1.390625 "/></g></g></g><g fill="#ffffff" fill-opacity="1"><g transform="translate(845.927673, 856.272576)"><g><path d="M 31.34375 1.390625 C 25.71875 1.390625 20.257812 0.695312 14.96875 -0.6875 C 9.6875 -2.082031 5.390625 -3.9375 2.078125 -6.25 L 8.53125 -20.734375 C 11.632812 -18.679688 15.234375 -17.023438 19.328125 -15.765625 C 23.429688 -14.515625 27.46875 -13.890625 31.4375 -13.890625 C 38.976562 -13.890625 42.75 -15.773438 42.75 -19.546875 C 42.75 -21.523438 41.671875 -22.992188 39.515625 -23.953125 C 37.367188 -24.910156 33.914062 -25.921875 29.15625 -26.984375 C 23.9375 -28.109375 19.570312 -29.3125 16.0625 -30.59375 C 12.5625 -31.882812 9.550781 -33.953125 7.03125 -36.796875 C 4.519531 -39.640625 3.265625 -43.472656 3.265625 -48.296875 C 3.265625 -52.535156 4.421875 -56.359375 6.734375 -59.765625 C 9.054688 -63.171875 12.515625 -65.863281 17.109375 -67.84375 C 21.703125 -69.820312 27.335938 -70.8125 34.015625 -70.8125 C 38.578125 -70.8125 43.070312 -70.300781 47.5 -69.28125 C 51.9375 -68.257812 55.84375 -66.753906 59.21875 -64.765625 L 53.171875 -50.1875 C 46.554688 -53.757812 40.140625 -55.546875 33.921875 -55.546875 C 30.015625 -55.546875 27.171875 -54.96875 25.390625 -53.8125 C 23.609375 -52.65625 22.71875 -51.148438 22.71875 -49.296875 C 22.71875 -47.441406 23.773438 -46.050781 25.890625 -45.125 C 28.003906 -44.195312 31.410156 -43.238281 36.109375 -42.25 C 41.398438 -41.125 45.78125 -39.914062 49.25 -38.625 C 52.71875 -37.34375 55.722656 -35.296875 58.265625 -32.484375 C 60.816406 -29.671875 62.09375 -25.851562 62.09375 -21.03125 C 62.09375 -16.863281 60.929688 -13.09375 58.609375 -9.71875 C 56.296875 -6.34375 52.828125 -3.644531 48.203125 -1.625 C 43.578125 0.382812 37.957031 1.390625 31.34375 1.390625 Z M 31.34375 1.390625 "/></g></g></g><g fill="#ffffff" fill-opacity="1"><g transform="translate(910.102015, 856.272576)"><g/></g></g><g fill="#ffffff" fill-opacity="1"><g transform="translate(938.965614, 856.272576)"><g><path d="M 41.953125 1.390625 C 34.617188 1.390625 28.023438 -0.160156 22.171875 -3.265625 C 16.316406 -6.378906 11.71875 -10.679688 8.375 -16.171875 C 5.039062 -21.660156 3.375 -27.84375 3.375 -34.71875 C 3.375 -41.59375 5.039062 -47.773438 8.375 -53.265625 C 11.71875 -58.753906 16.316406 -63.050781 22.171875 -66.15625 C 28.023438 -69.257812 34.617188 -70.8125 41.953125 -70.8125 C 49.296875 -70.8125 55.890625 -69.257812 61.734375 -66.15625 C 67.585938 -63.050781 72.1875 -58.753906 75.53125 -53.265625 C 78.875 -47.773438 80.546875 -41.59375 80.546875 -34.71875 C 80.546875 -27.84375 78.875 -21.660156 75.53125 -16.171875 C 72.1875 -10.679688 67.585938 -6.378906 61.734375 -3.265625 C 55.890625 -0.160156 49.296875 1.390625 41.953125 1.390625 Z M 41.953125 -14.875 C 45.460938 -14.875 48.640625 -15.703125 51.484375 -17.359375 C 54.328125 -19.015625 56.570312 -21.34375 58.21875 -24.34375 C 59.875 -27.351562 60.703125 -30.8125 60.703125 -34.71875 C 60.703125 -38.613281 59.875 -42.066406 58.21875 -45.078125 C 56.570312 -48.085938 54.328125 -50.414062 51.484375 -52.0625 C 48.640625 -53.71875 45.460938 -54.546875 41.953125 -54.546875 C 38.453125 -54.546875 35.28125 -53.71875 32.4375 -52.0625 C 29.59375 -50.414062 27.34375 -48.085938 25.6875 -45.078125 C 24.03125 -42.066406 23.203125 -38.613281 23.203125 -34.71875 C 23.203125 -30.8125 24.03125 -27.351562 25.6875 -24.34375 C 27.34375 -21.34375 29.59375 -19.015625 32.4375 -17.359375 C 35.28125 -15.703125 38.453125 -14.875 41.953125 -14.875 Z M 41.953125 -14.875 "/></g></g></g><g fill="#ffffff" fill-opacity="1"><g transform="translate(1022.878266, 856.272576)"><g><path d="M 26.578125 -54.25 L 26.578125 -38.984375 L 57.234375 -38.984375 L 57.234375 -23.8125 L 26.578125 -23.8125 L 26.578125 0 L 6.9375 0 L 6.9375 -69.4375 L 61.390625 -69.4375 L 61.390625 -54.25 Z M 26.578125 -54.25 "/></g></g></g><g fill="#ffffff" fill-opacity="1"><g transform="translate(188.441702, 1463.671509)"><g><path d="M 15.78125 -157.75 L 60.390625 -157.75 L 60.390625 -35.375 L 135.671875 -35.375 L 135.671875 0 L 15.78125 0 Z M 15.78125 -157.75 "/></g></g></g><g fill="#ffffff" fill-opacity="1"><g transform="translate(325.911066, 1463.671509)"><g><path d="M 95.328125 3.15625 C 78.648438 3.15625 63.660156 -0.375 50.359375 -7.4375 C 37.066406 -14.5 26.625 -24.265625 19.03125 -36.734375 C 11.445312 -49.203125 7.65625 -63.25 7.65625 -78.875 C 7.65625 -94.5 11.445312 -108.546875 19.03125 -121.015625 C 26.625 -133.484375 37.066406 -143.25 50.359375 -150.3125 C 63.660156 -157.375 78.648438 -160.90625 95.328125 -160.90625 C 112.003906 -160.90625 126.988281 -157.375 140.28125 -150.3125 C 153.582031 -143.25 164.023438 -133.484375 171.609375 -121.015625 C 179.191406 -108.546875 182.984375 -94.5 182.984375 -78.875 C 182.984375 -63.25 179.191406 -49.203125 171.609375 -36.734375 C 164.023438 -24.265625 153.582031 -14.5 140.28125 -7.4375 C 126.988281 -0.375 112.003906 3.15625 95.328125 3.15625 Z M 95.328125 -33.796875 C 103.285156 -33.796875 110.492188 -35.675781 116.953125 -39.4375 C 123.421875 -43.195312 128.53125 -48.492188 132.28125 -55.328125 C 136.039062 -62.160156 137.921875 -70.007812 137.921875 -78.875 C 137.921875 -87.738281 136.039062 -95.585938 132.28125 -102.421875 C 128.53125 -109.265625 123.421875 -114.5625 116.953125 -118.3125 C 110.492188 -122.070312 103.285156 -123.953125 95.328125 -123.953125 C 87.367188 -123.953125 80.15625 -122.070312 73.6875 -118.3125 C 67.226562 -114.5625 62.117188 -109.265625 58.359375 -102.421875 C 54.609375 -95.585938 52.734375 -87.738281 52.734375 -78.875 C 52.734375 -70.007812 54.609375 -62.160156 58.359375 -55.328125 C 62.117188 -48.492188 67.226562 -43.195312 73.6875 -39.4375 C 80.15625 -35.675781 87.367188 -33.796875 95.328125 -33.796875 Z M 95.328125 -33.796875 "/></g></g></g><g fill="#ffffff" fill-opacity="1"><g transform="translate(516.565279, 1463.671509)"><g><path d="M 175.78125 -157.75 L 108.171875 0 L 64.234375 0 L -3.15625 -157.75 L 45.078125 -157.75 L 87.890625 -54.984375 L 131.609375 -157.75 Z M 175.78125 -157.75 "/></g></g></g><g fill="#ffffff" fill-opacity="1"><g transform="translate(689.190717, 1463.671509)"><g><path d="M 142.421875 -34.484375 L 142.421875 0 L 15.78125 0 L 15.78125 -157.75 L 139.5 -157.75 L 139.5 -123.265625 L 59.953125 -123.265625 L 59.953125 -96.671875 L 130.03125 -96.671875 L 130.03125 -63.328125 L 59.953125 -63.328125 L 59.953125 -34.484375 Z M 142.421875 -34.484375 "/></g></g></g><g fill="#ffffff" fill-opacity="1"><g transform="translate(840.632385, 1463.671509)"><g><path d="M 15.78125 -157.75 L 90.375 -157.75 C 107.644531 -157.75 122.96875 -154.519531 136.34375 -148.0625 C 149.71875 -141.601562 160.082031 -132.4375 167.4375 -120.5625 C 174.800781 -108.695312 178.484375 -94.800781 178.484375 -78.875 C 178.484375 -62.945312 174.800781 -49.046875 167.4375 -37.171875 C 160.082031 -25.304688 149.71875 -16.144531 136.34375 -9.6875 C 122.96875 -3.226562 107.644531 0 90.375 0 L 15.78125 0 Z M 88.5625 -35.609375 C 102.082031 -35.609375 112.9375 -39.4375 121.125 -47.09375 C 129.3125 -54.757812 133.40625 -65.351562 133.40625 -78.875 C 133.40625 -92.394531 129.3125 -102.984375 121.125 -110.640625 C 112.9375 -118.304688 102.082031 -122.140625 88.5625 -122.140625 L 60.390625 -122.140625 L 60.390625 -35.609375 Z M 88.5625 -35.609375 "/></g></g></g><g fill="#ffffff" fill-opacity="1"><g transform="translate(1026.779399, 1463.671509)"><g><path d="M 31.78125 2.03125 C 24.5625 2.03125 18.472656 -0.367188 13.515625 -5.171875 C 8.554688 -9.984375 6.078125 -16.070312 6.078125 -23.4375 C 6.078125 -30.945312 8.519531 -37.03125 13.40625 -41.6875 C 18.289062 -46.34375 24.414062 -48.671875 31.78125 -48.671875 C 39.289062 -48.671875 45.445312 -46.34375 50.25 -41.6875 C 55.0625 -37.03125 57.46875 -30.945312 57.46875 -23.4375 C 57.46875 -16.070312 55.023438 -9.984375 50.140625 -5.171875 C 45.253906 -0.367188 39.132812 2.03125 31.78125 2.03125 Z M 31.78125 2.03125 "/></g></g></g><g fill="#ffffff" fill-opacity="1"><g transform="translate(1090.562724, 1463.671509)"><g/></g></g><g fill="#ffffff" fill-opacity="1"><g transform="translate(207.698403, 484.972224)"><g><path d="M 140.90625 -84.453125 L 113.515625 0 L 87.953125 0 L 71.78125 -51.390625 L 54.890625 0 L 29.3125 0 L 1.9375 -84.453125 L 26.546875 -84.453125 L 43.546875 -30.515625 L 61.40625 -84.453125 L 83.359375 -84.453125 L 100.375 -30.046875 L 118.109375 -84.453125 Z M 140.90625 -84.453125 "/></g></g></g><g fill="#ffffff" fill-opacity="1"><g transform="translate(350.541493, 484.972224)"><g><path d="M 76.25 -18.453125 L 76.25 0 L 8.4375 0 L 8.4375 -84.453125 L 74.671875 -84.453125 L 74.671875 -65.984375 L 32.09375 -65.984375 L 32.09375 -51.75 L 69.609375 -51.75 L 69.609375 -33.90625 L 32.09375 -33.90625 L 32.09375 -18.453125 Z M 76.25 -18.453125 "/></g></g></g><g fill="#ffffff" fill-opacity="1"><g transform="translate(431.614603, 484.972224)"><g/></g></g><g fill="#ffffff" fill-opacity="1"><g transform="translate(466.722166, 484.972224)"><g><path d="M 76.25 -18.453125 L 76.25 0 L 8.4375 0 L 8.4375 -84.453125 L 74.671875 -84.453125 L 74.671875 -65.984375 L 32.09375 -65.984375 L 32.09375 -51.75 L 69.609375 -51.75 L 69.609375 -33.90625 L 32.09375 -33.90625 L 32.09375 -18.453125 Z M 76.25 -18.453125 "/></g></g></g><g fill="#ffffff" fill-opacity="1"><g transform="translate(547.795264, 484.972224)"><g><path d="M 88.796875 -84.453125 L 88.796875 0 L 69.125 0 L 31.84375 -45 L 31.84375 0 L 8.4375 0 L 8.4375 -84.453125 L 28.109375 -84.453125 L 65.390625 -39.453125 L 65.390625 -84.453125 Z M 88.796875 -84.453125 "/></g></g></g><g fill="#ffffff" fill-opacity="1"><g transform="translate(645.034743, 484.972224)"><g><path d="M 94.09375 -84.453125 L 57.90625 0 L 34.375 0 L -1.6875 -84.453125 L 24.125 -84.453125 L 47.046875 -29.4375 L 70.453125 -84.453125 Z M 94.09375 -84.453125 "/></g></g></g><g fill="#ffffff" fill-opacity="1"><g transform="translate(737.448432, 484.972224)"><g><path d="M 8.4375 -84.453125 L 32.328125 -84.453125 L 32.328125 0 L 8.4375 0 Z M 8.4375 -84.453125 "/></g></g></g><g fill="#ffffff" fill-opacity="1"><g transform="translate(778.346911, 484.972224)"><g><path d="M 38.125 1.6875 C 31.289062 1.6875 24.65625 0.84375 18.21875 -0.84375 C 11.78125 -2.53125 6.550781 -4.78125 2.53125 -7.59375 L 10.375 -25.21875 C 14.15625 -22.71875 18.535156 -20.703125 23.515625 -19.171875 C 28.503906 -17.648438 33.414062 -16.890625 38.25 -16.890625 C 47.414062 -16.890625 52 -19.179688 52 -23.765625 C 52 -26.179688 50.691406 -27.972656 48.078125 -29.140625 C 45.460938 -30.304688 41.257812 -31.53125 35.46875 -32.8125 C 29.113281 -34.175781 23.804688 -35.640625 19.546875 -37.203125 C 15.285156 -38.773438 11.625 -41.289062 8.5625 -44.75 C 5.507812 -48.207031 3.984375 -52.875 3.984375 -58.75 C 3.984375 -63.894531 5.390625 -68.539062 8.203125 -72.6875 C 11.015625 -76.832031 15.210938 -80.109375 20.796875 -82.515625 C 26.390625 -84.929688 33.25 -86.140625 41.375 -86.140625 C 46.925781 -86.140625 52.394531 -85.515625 57.78125 -84.265625 C 63.175781 -83.015625 67.921875 -81.1875 72.015625 -78.78125 L 64.65625 -61.046875 C 56.613281 -65.390625 48.816406 -67.5625 41.265625 -67.5625 C 36.515625 -67.5625 33.050781 -66.859375 30.875 -65.453125 C 28.707031 -64.046875 27.625 -62.210938 27.625 -59.953125 C 27.625 -57.703125 28.910156 -56.015625 31.484375 -54.890625 C 34.054688 -53.765625 38.195312 -52.597656 43.90625 -51.390625 C 50.34375 -50.023438 55.671875 -48.554688 59.890625 -46.984375 C 64.117188 -45.421875 67.78125 -42.925781 70.875 -39.5 C 73.96875 -36.082031 75.515625 -31.441406 75.515625 -25.578125 C 75.515625 -20.503906 74.109375 -15.914062 71.296875 -11.8125 C 68.484375 -7.71875 64.257812 -4.441406 58.625 -1.984375 C 53 0.460938 46.164062 1.6875 38.125 1.6875 Z M 38.125 1.6875 "/></g></g></g><g fill="#ffffff" fill-opacity="1"><g transform="translate(856.403897, 484.972224)"><g><path d="M 8.4375 -84.453125 L 32.328125 -84.453125 L 32.328125 0 L 8.4375 0 Z M 8.4375 -84.453125 "/></g></g></g><g fill="#ffffff" fill-opacity="1"><g transform="translate(897.302376, 484.972224)"><g><path d="M 51.03125 1.6875 C 42.101562 1.6875 34.078125 -0.203125 26.953125 -3.984375 C 19.835938 -7.765625 14.25 -12.988281 10.1875 -19.65625 C 6.132812 -26.332031 4.109375 -33.851562 4.109375 -42.21875 C 4.109375 -50.582031 6.132812 -58.101562 10.1875 -64.78125 C 14.25 -71.457031 19.835938 -76.6875 26.953125 -80.46875 C 34.078125 -84.25 42.101562 -86.140625 51.03125 -86.140625 C 59.957031 -86.140625 67.976562 -84.25 75.09375 -80.46875 C 82.21875 -76.6875 87.804688 -71.457031 91.859375 -64.78125 C 95.921875 -58.101562 97.953125 -50.582031 97.953125 -42.21875 C 97.953125 -33.851562 95.921875 -26.332031 91.859375 -19.65625 C 87.804688 -12.988281 82.21875 -7.765625 75.09375 -3.984375 C 67.976562 -0.203125 59.957031 1.6875 51.03125 1.6875 Z M 51.03125 -18.09375 C 55.289062 -18.09375 59.148438 -19.097656 62.609375 -21.109375 C 66.066406 -23.117188 68.800781 -25.953125 70.8125 -29.609375 C 72.820312 -33.273438 73.828125 -37.476562 73.828125 -42.21875 C 73.828125 -46.96875 72.820312 -51.171875 70.8125 -54.828125 C 68.800781 -58.484375 66.066406 -61.316406 62.609375 -63.328125 C 59.148438 -65.347656 55.289062 -66.359375 51.03125 -66.359375 C 46.769531 -66.359375 42.910156 -65.347656 39.453125 -63.328125 C 35.992188 -61.316406 33.257812 -58.484375 31.25 -54.828125 C 29.238281 -51.171875 28.234375 -46.96875 28.234375 -42.21875 C 28.234375 -37.476562 29.238281 -33.273438 31.25 -29.609375 C 33.257812 -25.953125 35.992188 -23.117188 39.453125 -21.109375 C 42.910156 -19.097656 46.769531 -18.09375 51.03125 -18.09375 Z M 51.03125 -18.09375 "/></g></g></g><g fill="#ffffff" fill-opacity="1"><g transform="translate(999.367645, 484.972224)"><g><path d="M 88.796875 -84.453125 L 88.796875 0 L 69.125 0 L 31.84375 -45 L 31.84375 0 L 8.4375 0 L 8.4375 -84.453125 L 28.109375 -84.453125 L 65.390625 -39.453125 L 65.390625 -84.453125 Z M 88.796875 -84.453125 "/></g></g></g><g fill="#ffffff" fill-opacity="1"><g transform="translate(1096.612391, 484.972224)"><g/></g></g><g fill="#ffffff" fill-opacity="1"><g transform="translate(204.878549, 937.417889)"><g><path d="M 37.171875 -22.3125 C 39.617188 -21.457031 41.535156 -20.125 42.921875 -18.3125 C 44.304688 -16.5 45 -14.304688 45 -11.734375 C 45 -7.984375 43.488281 -5.085938 40.46875 -3.046875 C 37.457031 -1.015625 33.097656 0 27.390625 0 L 4.28125 0 L 4.28125 -42.796875 L 26.171875 -42.796875 C 31.628906 -42.796875 35.785156 -41.785156 38.640625 -39.765625 C 41.492188 -37.753906 42.921875 -35.035156 42.921875 -31.609375 C 42.921875 -29.566406 42.421875 -27.738281 41.421875 -26.125 C 40.421875 -24.519531 39.003906 -23.25 37.171875 -22.3125 Z M 16.265625 -34.0625 L 16.265625 -25.796875 L 24.578125 -25.796875 C 28.648438 -25.796875 30.6875 -27.179688 30.6875 -29.953125 C 30.6875 -32.691406 28.648438 -34.0625 24.578125 -34.0625 Z M 26.40625 -8.75 C 30.644531 -8.75 32.765625 -10.191406 32.765625 -13.078125 C 32.765625 -15.972656 30.644531 -17.421875 26.40625 -17.421875 L 16.265625 -17.421875 L 16.265625 -8.75 Z M 26.40625 -8.75 "/></g></g></g><g fill="#ffffff" fill-opacity="1"><g transform="translate(251.892637, 937.417889)"><g><path d="M 32.953125 -8.3125 L 14.859375 -8.3125 L 11.5 0 L -0.859375 0 L 18.03125 -42.796875 L 29.953125 -42.796875 L 48.90625 0 L 36.3125 0 Z M 29.40625 -17.234375 L 23.90625 -30.9375 L 18.40625 -17.234375 Z M 29.40625 -17.234375 "/></g></g></g><g fill="#ffffff" fill-opacity="1"><g transform="translate(299.946054, 937.417889)"><g><path d="M 25.625 0.859375 C 21.132812 0.859375 17.101562 -0.0859375 13.53125 -1.984375 C 9.96875 -3.878906 7.164062 -6.519531 5.125 -9.90625 C 3.09375 -13.289062 2.078125 -17.125 2.078125 -21.40625 C 2.078125 -25.675781 3.09375 -29.503906 5.125 -32.890625 C 7.164062 -36.273438 9.96875 -38.914062 13.53125 -40.8125 C 17.101562 -42.707031 21.132812 -43.65625 25.625 -43.65625 C 29.53125 -43.65625 33.050781 -42.960938 36.1875 -41.578125 C 39.332031 -40.191406 41.941406 -38.191406 44.015625 -35.578125 L 36.3125 -28.609375 C 33.539062 -31.953125 30.179688 -33.625 26.234375 -33.625 C 23.910156 -33.625 21.835938 -33.113281 20.015625 -32.09375 C 18.203125 -31.070312 16.796875 -29.632812 15.796875 -27.78125 C 14.804688 -25.925781 14.3125 -23.800781 14.3125 -21.40625 C 14.3125 -19 14.804688 -16.867188 15.796875 -15.015625 C 16.796875 -13.160156 18.203125 -11.722656 20.015625 -10.703125 C 21.835938 -9.679688 23.910156 -9.171875 26.234375 -9.171875 C 30.179688 -9.171875 33.539062 -10.84375 36.3125 -14.1875 L 44.015625 -7.21875 C 41.941406 -4.601562 39.332031 -2.601562 36.1875 -1.21875 C 33.050781 0.164062 29.53125 0.859375 25.625 0.859375 Z M 25.625 0.859375 "/></g></g></g><g fill="#ffffff" fill-opacity="1"><g transform="translate(345.064908, 937.417889)"><g><path d="M 20.78125 -15.53125 L 16.265625 -10.703125 L 16.265625 0 L 4.28125 0 L 4.28125 -42.796875 L 16.265625 -42.796875 L 16.265625 -25 L 32.828125 -42.796875 L 46.15625 -42.796875 L 28.671875 -23.84375 L 47.078125 0 L 33.015625 0 Z M 20.78125 -15.53125 "/></g></g></g><g fill="#ffffff" fill-opacity="1"><g transform="translate(391.039678, 937.417889)"><g><path d="M 32.953125 -22.3125 L 43.65625 -22.3125 L 43.65625 -4.578125 C 41.207031 -2.828125 38.394531 -1.484375 35.21875 -0.546875 C 32.039062 0.390625 28.859375 0.859375 25.671875 0.859375 C 21.191406 0.859375 17.15625 -0.0859375 13.5625 -1.984375 C 9.976562 -3.878906 7.164062 -6.519531 5.125 -9.90625 C 3.09375 -13.289062 2.078125 -17.125 2.078125 -21.40625 C 2.078125 -25.675781 3.09375 -29.503906 5.125 -32.890625 C 7.164062 -36.273438 10 -38.914062 13.625 -40.8125 C 17.257812 -42.707031 21.359375 -43.65625 25.921875 -43.65625 C 29.921875 -43.65625 33.507812 -42.984375 36.6875 -41.640625 C 39.863281 -40.296875 42.507812 -38.359375 44.625 -35.828125 L 36.921875 -28.859375 C 34.035156 -32.035156 30.570312 -33.625 26.53125 -33.625 C 22.863281 -33.625 19.910156 -32.515625 17.671875 -30.296875 C 15.429688 -28.078125 14.3125 -25.113281 14.3125 -21.40625 C 14.3125 -19.039062 14.816406 -16.929688 15.828125 -15.078125 C 16.847656 -13.222656 18.273438 -11.773438 20.109375 -10.734375 C 21.941406 -9.691406 24.039062 -9.171875 26.40625 -9.171875 C 28.726562 -9.171875 30.910156 -9.640625 32.953125 -10.578125 Z M 32.953125 -22.3125 "/></g></g></g><g fill="#ffffff" fill-opacity="1"><g transform="translate(438.114889, 937.417889)"><g><path d="M 22.984375 -11.375 L 16.390625 -11.375 L 16.390625 0 L 4.28125 0 L 4.28125 -42.796875 L 23.84375 -42.796875 C 27.71875 -42.796875 31.082031 -42.15625 33.9375 -40.875 C 36.789062 -39.59375 38.988281 -37.757812 40.53125 -35.375 C 42.082031 -32.988281 42.859375 -30.1875 42.859375 -26.96875 C 42.859375 -23.863281 42.132812 -21.160156 40.6875 -18.859375 C 39.238281 -16.554688 37.171875 -14.753906 34.484375 -13.453125 L 43.71875 0 L 30.75 0 Z M 30.625 -26.96875 C 30.625 -28.957031 29.992188 -30.503906 28.734375 -31.609375 C 27.472656 -32.710938 25.597656 -33.265625 23.109375 -33.265625 L 16.390625 -33.265625 L 16.390625 -20.734375 L 23.109375 -20.734375 C 25.597656 -20.734375 27.472656 -21.269531 28.734375 -22.34375 C 29.992188 -23.425781 30.625 -24.96875 30.625 -26.96875 Z M 30.625 -26.96875 "/></g></g></g><g fill="#ffffff" fill-opacity="1"><g transform="translate(483.356012, 937.417889)"><g><path d="M 25.859375 0.859375 C 21.335938 0.859375 17.269531 -0.0976562 13.65625 -2.015625 C 10.050781 -3.929688 7.21875 -6.582031 5.15625 -9.96875 C 3.101562 -13.351562 2.078125 -17.164062 2.078125 -21.40625 C 2.078125 -25.632812 3.101562 -29.441406 5.15625 -32.828125 C 7.21875 -36.210938 10.050781 -38.863281 13.65625 -40.78125 C 17.269531 -42.695312 21.335938 -43.65625 25.859375 -43.65625 C 30.390625 -43.65625 34.457031 -42.695312 38.0625 -40.78125 C 41.664062 -38.863281 44.492188 -36.210938 46.546875 -32.828125 C 48.609375 -29.441406 49.640625 -25.632812 49.640625 -21.40625 C 49.640625 -17.164062 48.609375 -13.351562 46.546875 -9.96875 C 44.492188 -6.582031 41.664062 -3.929688 38.0625 -2.015625 C 34.457031 -0.0976562 30.390625 0.859375 25.859375 0.859375 Z M 25.859375 -9.171875 C 28.023438 -9.171875 29.984375 -9.679688 31.734375 -10.703125 C 33.484375 -11.722656 34.867188 -13.160156 35.890625 -15.015625 C 36.910156 -16.867188 37.421875 -19 37.421875 -21.40625 C 37.421875 -23.800781 36.910156 -25.925781 35.890625 -27.78125 C 34.867188 -29.632812 33.484375 -31.070312 31.734375 -32.09375 C 29.984375 -33.113281 28.023438 -33.625 25.859375 -33.625 C 23.703125 -33.625 21.742188 -33.113281 19.984375 -32.09375 C 18.234375 -31.070312 16.847656 -29.632812 15.828125 -27.78125 C 14.816406 -25.925781 14.3125 -23.800781 14.3125 -21.40625 C 14.3125 -19 14.816406 -16.867188 15.828125 -15.015625 C 16.847656 -13.160156 18.234375 -11.722656 19.984375 -10.703125 C 21.742188 -9.679688 23.703125 -9.171875 25.859375 -9.171875 Z M 25.859375 -9.171875 "/></g></g></g><g fill="#ffffff" fill-opacity="1"><g transform="translate(535.077626, 937.417889)"><g><path d="M 24.03125 0.859375 C 17.664062 0.859375 12.71875 -0.867188 9.1875 -4.328125 C 5.664062 -7.796875 3.90625 -12.710938 3.90625 -19.078125 L 3.90625 -42.796875 L 16.015625 -42.796875 L 16.015625 -19.4375 C 16.015625 -12.59375 18.726562 -9.171875 24.15625 -9.171875 C 29.53125 -9.171875 32.21875 -12.59375 32.21875 -19.4375 L 32.21875 -42.796875 L 44.140625 -42.796875 L 44.140625 -19.078125 C 44.140625 -12.710938 42.375 -7.796875 38.84375 -4.328125 C 35.320312 -0.867188 30.382812 0.859375 24.03125 0.859375 Z M 24.03125 0.859375 "/></g></g></g><g fill="#ffffff" fill-opacity="1"><g transform="translate(583.131043, 937.417889)"><g><path d="M 45 -42.796875 L 45 0 L 35.03125 0 L 16.140625 -22.8125 L 16.140625 0 L 4.28125 0 L 4.28125 -42.796875 L 14.25 -42.796875 L 33.140625 -20 L 33.140625 -42.796875 Z M 45 -42.796875 "/></g></g></g><g fill="#ffffff" fill-opacity="1"><g transform="translate(632.40717, 937.417889)"><g><path d="M 4.28125 -42.796875 L 24.515625 -42.796875 C 29.203125 -42.796875 33.359375 -41.921875 36.984375 -40.171875 C 40.617188 -38.421875 43.429688 -35.929688 45.421875 -32.703125 C 47.421875 -29.484375 48.421875 -25.71875 48.421875 -21.40625 C 48.421875 -17.082031 47.421875 -13.3125 45.421875 -10.09375 C 43.429688 -6.875 40.617188 -4.382812 36.984375 -2.625 C 33.359375 -0.875 29.203125 0 24.515625 0 L 4.28125 0 Z M 24.03125 -9.65625 C 27.695312 -9.65625 30.640625 -10.691406 32.859375 -12.765625 C 35.078125 -14.847656 36.1875 -17.726562 36.1875 -21.40625 C 36.1875 -25.070312 35.078125 -27.941406 32.859375 -30.015625 C 30.640625 -32.097656 27.695312 -33.140625 24.03125 -33.140625 L 16.390625 -33.140625 L 16.390625 -9.65625 Z M 24.03125 -9.65625 "/></g></g></g><g fill="#ffffff" fill-opacity="1"><g transform="translate(682.906052, 937.417889)"><g/></g></g><g fill="#ffffff" fill-opacity="1"><g transform="translate(700.696807, 937.417889)"><g><path d="M 25.859375 0.859375 C 21.335938 0.859375 17.269531 -0.0976562 13.65625 -2.015625 C 10.050781 -3.929688 7.21875 -6.582031 5.15625 -9.96875 C 3.101562 -13.351562 2.078125 -17.164062 2.078125 -21.40625 C 2.078125 -25.632812 3.101562 -29.441406 5.15625 -32.828125 C 7.21875 -36.210938 10.050781 -38.863281 13.65625 -40.78125 C 17.269531 -42.695312 21.335938 -43.65625 25.859375 -43.65625 C 30.390625 -43.65625 34.457031 -42.695312 38.0625 -40.78125 C 41.664062 -38.863281 44.492188 -36.210938 46.546875 -32.828125 C 48.609375 -29.441406 49.640625 -25.632812 49.640625 -21.40625 C 49.640625 -17.164062 48.609375 -13.351562 46.546875 -9.96875 C 44.492188 -6.582031 41.664062 -3.929688 38.0625 -2.015625 C 34.457031 -0.0976562 30.390625 0.859375 25.859375 0.859375 Z M 25.859375 -9.171875 C 28.023438 -9.171875 29.984375 -9.679688 31.734375 -10.703125 C 33.484375 -11.722656 34.867188 -13.160156 35.890625 -15.015625 C 36.910156 -16.867188 37.421875 -19 37.421875 -21.40625 C 37.421875 -23.800781 36.910156 -25.925781 35.890625 -27.78125 C 34.867188 -29.632812 33.484375 -31.070312 31.734375 -32.09375 C 29.984375 -33.113281 28.023438 -33.625 25.859375 -33.625 C 23.703125 -33.625 21.742188 -33.113281 19.984375 -32.09375 C 18.234375 -31.070312 16.847656 -29.632812 15.828125 -27.78125 C 14.816406 -25.925781 14.3125 -23.800781 14.3125 -21.40625 C 14.3125 -19 14.816406 -16.867188 15.828125 -15.015625 C 16.847656 -13.160156 18.234375 -11.722656 19.984375 -10.703125 C 21.742188 -9.679688 23.703125 -9.171875 25.859375 -9.171875 Z M 25.859375 -9.171875 "/></g></g></g><g fill="#ffffff" fill-opacity="1"><g transform="translate(752.418421, 937.417889)"><g><path d="M 22.984375 -11.375 L 16.390625 -11.375 L 16.390625 0 L 4.28125 0 L 4.28125 -42.796875 L 23.84375 -42.796875 C 27.71875 -42.796875 31.082031 -42.15625 33.9375 -40.875 C 36.789062 -39.59375 38.988281 -37.757812 40.53125 -35.375 C 42.082031 -32.988281 42.859375 -30.1875 42.859375 -26.96875 C 42.859375 -23.863281 42.132812 -21.160156 40.6875 -18.859375 C 39.238281 -16.554688 37.171875 -14.753906 34.484375 -13.453125 L 43.71875 0 L 30.75 0 Z M 30.625 -26.96875 C 30.625 -28.957031 29.992188 -30.503906 28.734375 -31.609375 C 27.472656 -32.710938 25.597656 -33.265625 23.109375 -33.265625 L 16.390625 -33.265625 L 16.390625 -20.734375 L 23.109375 -20.734375 C 25.597656 -20.734375 27.472656 -21.269531 28.734375 -22.34375 C 29.992188 -23.425781 30.625 -24.96875 30.625 -26.96875 Z M 30.625 -26.96875 "/></g></g></g><g fill="#ffffff" fill-opacity="1"><g transform="translate(797.659567, 937.417889)"><g/></g></g><g fill="#ffffff" fill-opacity="1"><g transform="translate(815.450321, 937.417889)"><g><path d="M 32.953125 -8.3125 L 14.859375 -8.3125 L 11.5 0 L -0.859375 0 L 18.03125 -42.796875 L 29.953125 -42.796875 L 48.90625 0 L 36.3125 0 Z M 29.40625 -17.234375 L 23.90625 -30.9375 L 18.40625 -17.234375 Z M 29.40625 -17.234375 "/></g></g></g><g fill="#ffffff" fill-opacity="1"><g transform="translate(863.503738, 937.417889)"><g><path d="M 37.171875 -22.3125 C 39.617188 -21.457031 41.535156 -20.125 42.921875 -18.3125 C 44.304688 -16.5 45 -14.304688 45 -11.734375 C 45 -7.984375 43.488281 -5.085938 40.46875 -3.046875 C 37.457031 -1.015625 33.097656 0 27.390625 0 L 4.28125 0 L 4.28125 -42.796875 L 26.171875 -42.796875 C 31.628906 -42.796875 35.785156 -41.785156 38.640625 -39.765625 C 41.492188 -37.753906 42.921875 -35.035156 42.921875 -31.609375 C 42.921875 -29.566406 42.421875 -27.738281 41.421875 -26.125 C 40.421875 -24.519531 39.003906 -23.25 37.171875 -22.3125 Z M 16.265625 -34.0625 L 16.265625 -25.796875 L 24.578125 -25.796875 C 28.648438 -25.796875 30.6875 -27.179688 30.6875 -29.953125 C 30.6875 -32.691406 28.648438 -34.0625 24.578125 -34.0625 Z M 26.40625 -8.75 C 30.644531 -8.75 32.765625 -10.191406 32.765625 -13.078125 C 32.765625 -15.972656 30.644531 -17.421875 26.40625 -17.421875 L 16.265625 -17.421875 L 16.265625 -8.75 Z M 26.40625 -8.75 "/></g></g></g><g fill="#ffffff" fill-opacity="1"><g transform="translate(910.517803, 937.417889)"><g><path d="M 4.28125 -42.796875 L 16.390625 -42.796875 L 16.390625 0 L 4.28125 0 Z M 4.28125 -42.796875 "/></g></g></g><g fill="#ffffff" fill-opacity="1"><g transform="translate(931.243143, 937.417889)"><g><path d="M 4.28125 -42.796875 L 16.390625 -42.796875 L 16.390625 -9.59375 L 36.8125 -9.59375 L 36.8125 0 L 4.28125 0 Z M 4.28125 -42.796875 "/></g></g></g><g fill="#ffffff" fill-opacity="1"><g transform="translate(968.536505, 937.417889)"><g><path d="M 4.28125 -42.796875 L 16.390625 -42.796875 L 16.390625 0 L 4.28125 0 Z M 4.28125 -42.796875 "/></g></g></g><g fill="#ffffff" fill-opacity="1"><g transform="translate(989.261845, 937.417889)"><g><path d="M 13.390625 -33.203125 L 0.25 -33.203125 L 0.25 -42.796875 L 38.578125 -42.796875 L 38.578125 -33.203125 L 25.5 -33.203125 L 25.5 0 L 13.390625 0 Z M 13.390625 -33.203125 "/></g></g></g><g fill="#ffffff" fill-opacity="1"><g transform="translate(1028.083588, 937.417889)"><g><path d="M 27.203125 -15.34375 L 27.203125 0 L 15.109375 0 L 15.109375 -15.53125 L -1.21875 -42.796875 L 11.5625 -42.796875 L 21.703125 -25.796875 L 31.859375 -42.796875 L 43.59375 -42.796875 Z M 27.203125 -15.34375 "/></g></g></g><g fill="#ffffff" fill-opacity="1"><g transform="translate(1070.45126, 937.417889)"><g><path d="M 8.6875 -13.203125 C 10.675781 -13.203125 12.320312 -12.570312 13.625 -11.3125 C 14.9375 -10.050781 15.59375 -8.398438 15.59375 -6.359375 C 15.59375 -5.421875 15.46875 -4.484375 15.21875 -3.546875 C 14.976562 -2.609375 14.429688 -1.203125 13.578125 0.671875 L 9.71875 9.59375 L 2.453125 9.59375 L 5.3125 -0.359375 C 4.175781 -0.890625 3.289062 -1.675781 2.65625 -2.71875 C 2.03125 -3.757812 1.71875 -4.972656 1.71875 -6.359375 C 1.71875 -8.398438 2.367188 -10.050781 3.671875 -11.3125 C 4.972656 -12.570312 6.644531 -13.203125 8.6875 -13.203125 Z M 8.6875 -13.203125 "/></g></g></g><g fill="#ffffff" fill-opacity="1"><g transform="translate(208.579186, 1239.695056)"><g><path d="M 43.1875 -11.90625 L 17.390625 -11.90625 L 12.46875 0 L -0.71875 0 L 24.0625 -55.578125 L 36.765625 -55.578125 L 61.609375 0 L 48.109375 0 Z M 39.140625 -21.671875 L 30.328125 -42.953125 L 21.515625 -21.671875 Z M 39.140625 -21.671875 "/></g></g></g><g fill="#ffffff" fill-opacity="1"><g transform="translate(269.395339, 1239.695056)"><g><path d="M 57.5625 -55.578125 L 57.5625 0 L 47 0 L 19.296875 -33.734375 L 19.296875 0 L 6.59375 0 L 6.59375 -55.578125 L 17.234375 -55.578125 L 44.859375 -21.828125 L 44.859375 -55.578125 Z M 57.5625 -55.578125 "/></g></g></g><g fill="#ffffff" fill-opacity="1"><g transform="translate(333.54606, 1239.695056)"><g><path d="M 6.59375 -55.578125 L 31.828125 -55.578125 C 37.867188 -55.578125 43.203125 -54.425781 47.828125 -52.125 C 52.460938 -49.820312 56.0625 -46.578125 58.625 -42.390625 C 61.195312 -38.210938 62.484375 -33.34375 62.484375 -27.78125 C 62.484375 -22.226562 61.195312 -17.359375 58.625 -13.171875 C 56.0625 -8.992188 52.460938 -5.753906 47.828125 -3.453125 C 43.203125 -1.148438 37.867188 0 31.828125 0 L 6.59375 0 Z M 31.203125 -10.5625 C 36.753906 -10.5625 41.179688 -12.109375 44.484375 -15.203125 C 47.796875 -18.296875 49.453125 -22.488281 49.453125 -27.78125 C 49.453125 -33.070312 47.796875 -37.265625 44.484375 -40.359375 C 41.179688 -43.460938 36.753906 -45.015625 31.203125 -45.015625 L 19.453125 -45.015625 L 19.453125 -10.5625 Z M 31.203125 -10.5625 "/></g></g></g><g fill="#ffffff" fill-opacity="1"><g transform="translate(399.125873, 1239.695056)"><g/></g></g><g fill="#ffffff" fill-opacity="1"><g transform="translate(421.594503, 1239.695056)"><g><path d="M 6.59375 -55.578125 L 31.828125 -55.578125 C 37.867188 -55.578125 43.203125 -54.425781 47.828125 -52.125 C 52.460938 -49.820312 56.0625 -46.578125 58.625 -42.390625 C 61.195312 -38.210938 62.484375 -33.34375 62.484375 -27.78125 C 62.484375 -22.226562 61.195312 -17.359375 58.625 -13.171875 C 56.0625 -8.992188 52.460938 -5.753906 47.828125 -3.453125 C 43.203125 -1.148438 37.867188 0 31.828125 0 L 6.59375 0 Z M 31.203125 -10.5625 C 36.753906 -10.5625 41.179688 -12.109375 44.484375 -15.203125 C 47.796875 -18.296875 49.453125 -22.488281 49.453125 -27.78125 C 49.453125 -33.070312 47.796875 -37.265625 44.484375 -40.359375 C 41.179688 -43.460938 36.753906 -45.015625 31.203125 -45.015625 L 19.453125 -45.015625 L 19.453125 -10.5625 Z M 31.203125 -10.5625 "/></g></g></g><g fill="#ffffff" fill-opacity="1"><g transform="translate(487.174316, 1239.695056)"><g><path d="M 49.625 -10.328125 L 49.625 0 L 6.59375 0 L 6.59375 -55.578125 L 48.59375 -55.578125 L 48.59375 -45.25 L 19.375 -45.25 L 19.375 -33.1875 L 45.171875 -33.1875 L 45.171875 -23.1875 L 19.375 -23.1875 L 19.375 -10.328125 Z M 49.625 -10.328125 "/></g></g></g><g fill="#ffffff" fill-opacity="1"><g transform="translate(540.447978, 1239.695056)"><g><path d="M 24.84375 0.953125 C 20.457031 0.953125 16.210938 0.359375 12.109375 -0.828125 C 8.003906 -2.023438 4.707031 -3.578125 2.21875 -5.484375 L 6.59375 -15.15625 C 8.96875 -13.414062 11.796875 -12.015625 15.078125 -10.953125 C 18.359375 -9.898438 21.640625 -9.375 24.921875 -9.375 C 28.578125 -9.375 31.273438 -9.914062 33.015625 -11 C 34.765625 -12.082031 35.640625 -13.523438 35.640625 -15.328125 C 35.640625 -16.648438 35.125 -17.742188 34.09375 -18.609375 C 33.0625 -19.484375 31.738281 -20.1875 30.125 -20.71875 C 28.507812 -21.25 26.328125 -21.832031 23.578125 -22.46875 C 19.347656 -23.46875 15.878906 -24.472656 13.171875 -25.484375 C 10.472656 -26.492188 8.15625 -28.109375 6.21875 -30.328125 C 4.289062 -32.546875 3.328125 -35.507812 3.328125 -39.21875 C 3.328125 -42.445312 4.203125 -45.367188 5.953125 -47.984375 C 7.703125 -50.609375 10.335938 -52.6875 13.859375 -54.21875 C 17.378906 -55.757812 21.675781 -56.53125 26.75 -56.53125 C 30.300781 -56.53125 33.769531 -56.101562 37.15625 -55.25 C 40.539062 -54.40625 43.503906 -53.191406 46.046875 -51.609375 L 42.078125 -41.84375 C 36.941406 -44.75 31.804688 -46.203125 26.671875 -46.203125 C 23.078125 -46.203125 20.414062 -45.617188 18.6875 -44.453125 C 16.96875 -43.296875 16.109375 -41.765625 16.109375 -39.859375 C 16.109375 -37.953125 17.101562 -36.535156 19.09375 -35.609375 C 21.082031 -34.679688 24.113281 -33.769531 28.1875 -32.875 C 32.414062 -31.863281 35.878906 -30.851562 38.578125 -29.84375 C 41.273438 -28.84375 43.585938 -27.253906 45.515625 -25.078125 C 47.453125 -22.910156 48.421875 -19.976562 48.421875 -16.28125 C 48.421875 -13.101562 47.535156 -10.203125 45.765625 -7.578125 C 43.992188 -4.960938 41.332031 -2.882812 37.78125 -1.34375 C 34.238281 0.1875 29.925781 0.953125 24.84375 0.953125 Z M 24.84375 0.953125 "/></g></g></g><g fill="#ffffff" fill-opacity="1"><g transform="translate(591.10163, 1239.695056)"><g><path d="M 49.625 -10.328125 L 49.625 0 L 6.59375 0 L 6.59375 -55.578125 L 48.59375 -55.578125 L 48.59375 -45.25 L 19.375 -45.25 L 19.375 -33.1875 L 45.171875 -33.1875 L 45.171875 -23.1875 L 19.375 -23.1875 L 19.375 -10.328125 Z M 49.625 -10.328125 "/></g></g></g><g fill="#ffffff" fill-opacity="1"><g transform="translate(644.375292, 1239.695056)"><g><path d="M 42 0 L 31.28125 -15.484375 L 19.453125 -15.484375 L 19.453125 0 L 6.59375 0 L 6.59375 -55.578125 L 30.640625 -55.578125 C 35.566406 -55.578125 39.84375 -54.753906 43.46875 -53.109375 C 47.09375 -51.472656 49.882812 -49.144531 51.84375 -46.125 C 53.800781 -43.101562 54.78125 -39.53125 54.78125 -35.40625 C 54.78125 -31.28125 53.785156 -27.722656 51.796875 -24.734375 C 49.816406 -21.742188 47 -19.453125 43.34375 -17.859375 L 55.8125 0 Z M 41.765625 -35.40625 C 41.765625 -38.53125 40.753906 -40.925781 38.734375 -42.59375 C 36.722656 -44.257812 33.789062 -45.09375 29.9375 -45.09375 L 19.453125 -45.09375 L 19.453125 -25.71875 L 29.9375 -25.71875 C 33.789062 -25.71875 36.722656 -26.5625 38.734375 -28.25 C 40.753906 -29.945312 41.765625 -32.332031 41.765625 -35.40625 Z M 41.765625 -35.40625 "/></g></g></g><g fill="#ffffff" fill-opacity="1"><g transform="translate(702.730222, 1239.695056)"><g><path d="M 60.015625 -55.578125 L 35.96875 0 L 23.265625 0 L -0.71875 -55.578125 L 13.171875 -55.578125 L 30.09375 -15.875 L 47.234375 -55.578125 Z M 60.015625 -55.578125 "/></g></g></g><g fill="#ffffff" fill-opacity="1"><g transform="translate(761.958473, 1239.695056)"><g><path d="M 49.625 -10.328125 L 49.625 0 L 6.59375 0 L 6.59375 -55.578125 L 48.59375 -55.578125 L 48.59375 -45.25 L 19.375 -45.25 L 19.375 -33.1875 L 45.171875 -33.1875 L 45.171875 -23.1875 L 19.375 -23.1875 L 19.375 -10.328125 Z M 49.625 -10.328125 "/></g></g></g><g fill="#ffffff" fill-opacity="1"><g transform="translate(815.232134, 1239.695056)"><g/></g></g><g fill="#ffffff" fill-opacity="1"><g transform="translate(837.700776, 1239.695056)"><g><path d="M 18.09375 -45.09375 L 0.3125 -45.09375 L 0.3125 -55.578125 L 48.75 -55.578125 L 48.75 -45.09375 L 30.96875 -45.09375 L 30.96875 0 L 18.09375 0 Z M 18.09375 -45.09375 "/></g></g></g><g fill="#ffffff" fill-opacity="1"><g transform="translate(886.766537, 1239.695056)"><g><path d="M 33.5 0.953125 C 27.726562 0.953125 22.523438 -0.289062 17.890625 -2.78125 C 13.265625 -5.269531 9.640625 -8.695312 7.015625 -13.0625 C 4.398438 -17.425781 3.09375 -22.332031 3.09375 -27.78125 C 3.09375 -33.238281 4.398438 -38.148438 7.015625 -42.515625 C 9.640625 -46.878906 13.265625 -50.304688 17.890625 -52.796875 C 22.523438 -55.285156 27.726562 -56.53125 33.5 -56.53125 C 39.269531 -56.53125 44.457031 -55.285156 49.0625 -52.796875 C 53.664062 -50.304688 57.289062 -46.878906 59.9375 -42.515625 C 62.582031 -38.148438 63.90625 -33.238281 63.90625 -27.78125 C 63.90625 -22.332031 62.582031 -17.425781 59.9375 -13.0625 C 57.289062 -8.695312 53.664062 -5.269531 49.0625 -2.78125 C 44.457031 -0.289062 39.269531 0.953125 33.5 0.953125 Z M 33.5 -10 C 36.78125 -10 39.742188 -10.753906 42.390625 -12.265625 C 45.035156 -13.773438 47.113281 -15.878906 48.625 -18.578125 C 50.132812 -21.273438 50.890625 -24.34375 50.890625 -27.78125 C 50.890625 -31.226562 50.132812 -34.300781 48.625 -37 C 47.113281 -39.695312 45.035156 -41.796875 42.390625 -43.296875 C 39.742188 -44.804688 36.78125 -45.5625 33.5 -45.5625 C 30.21875 -45.5625 27.253906 -44.804688 24.609375 -43.296875 C 21.960938 -41.796875 19.882812 -39.695312 18.375 -37 C 16.863281 -34.300781 16.109375 -31.226562 16.109375 -27.78125 C 16.109375 -24.34375 16.863281 -21.273438 18.375 -18.578125 C 19.882812 -15.878906 21.960938 -13.773438 24.609375 -12.265625 C 27.253906 -10.753906 30.21875 -10 33.5 -10 Z M 33.5 -10 "/></g></g></g><g fill="#ffffff" fill-opacity="1"><g transform="translate(953.775443, 1239.695056)"><g/></g></g><g fill="#ffffff" fill-opacity="1"><g transform="translate(976.244084, 1239.695056)"><g><path d="M 47.390625 -28.890625 C 50.566406 -27.890625 53.054688 -26.210938 54.859375 -23.859375 C 56.660156 -21.503906 57.5625 -18.601562 57.5625 -15.15625 C 57.5625 -10.289062 55.664062 -6.546875 51.875 -3.921875 C 48.09375 -1.304688 42.578125 0 35.328125 0 L 6.59375 0 L 6.59375 -55.578125 L 33.734375 -55.578125 C 40.515625 -55.578125 45.71875 -54.28125 49.34375 -51.6875 C 52.96875 -49.09375 54.78125 -45.570312 54.78125 -41.125 C 54.78125 -38.425781 54.128906 -36.015625 52.828125 -33.890625 C 51.535156 -31.773438 49.722656 -30.109375 47.390625 -28.890625 Z M 19.375 -45.890625 L 19.375 -32.78125 L 32.15625 -32.78125 C 35.332031 -32.78125 37.738281 -33.335938 39.375 -34.453125 C 41.019531 -35.566406 41.84375 -37.207031 41.84375 -39.375 C 41.84375 -41.539062 41.019531 -43.164062 39.375 -44.25 C 37.738281 -45.34375 35.332031 -45.890625 32.15625 -45.890625 Z M 34.375 -9.6875 C 37.757812 -9.6875 40.3125 -10.238281 42.03125 -11.34375 C 43.757812 -12.457031 44.625 -14.179688 44.625 -16.515625 C 44.625 -21.117188 41.207031 -23.421875 34.375 -23.421875 L 19.375 -23.421875 L 19.375 -9.6875 Z M 34.375 -9.6875 "/></g></g></g><g fill="#ffffff" fill-opacity="1"><g transform="translate(1036.98085, 1239.695056)"><g><path d="M 49.625 -10.328125 L 49.625 0 L 6.59375 0 L 6.59375 -55.578125 L 48.59375 -55.578125 L 48.59375 -45.25 L 19.375 -45.25 L 19.375 -33.1875 L 45.171875 -33.1875 L 45.171875 -23.1875 L 19.375 -23.1875 L 19.375 -10.328125 Z M 49.625 -10.328125 "/></g></g></g><g fill="#ffffff" fill-opacity="1"><g transform="translate(1090.262709, 1239.695056)"><g/></g></g><g fill="#ffffff" fill-opacity="1"><g transform="translate(204.878549, 1140.497952)"><g><path d="M 7.703125 -77.09375 L 29.515625 -77.09375 L 29.515625 0 L 7.703125 0 Z M 7.703125 -77.09375 "/></g></g></g><g fill="#ffffff" fill-opacity="1"><g transform="translate(242.209609, 1140.497952)"><g><path d="M 77.3125 0 L 77.09375 -40.859375 L 57.265625 -7.59375 L 47.578125 -7.59375 L 27.859375 -39.75 L 27.859375 0 L 7.703125 0 L 7.703125 -77.09375 L 25.65625 -77.09375 L 52.75 -32.59375 L 79.1875 -77.09375 L 97.125 -77.09375 L 97.34375 0 Z M 77.3125 0 "/></g></g></g><g fill="#ffffff" fill-opacity="1"><g transform="translate(347.265161, 1140.497952)"><g><path d="M 59.359375 -14.984375 L 26.765625 -14.984375 L 20.703125 0 L -1.546875 0 L 32.484375 -77.09375 L 53.96875 -77.09375 L 88.09375 0 L 65.421875 0 Z M 52.96875 -31.0625 L 43.0625 -55.71875 L 33.140625 -31.0625 Z M 52.96875 -31.0625 "/></g></g></g><g fill="#ffffff" fill-opacity="1"><g transform="translate(433.820379, 1140.497952)"><g><path d="M 59.359375 -40.203125 L 78.625 -40.203125 L 78.625 -8.265625 C 74.21875 -5.109375 69.148438 -2.679688 63.421875 -0.984375 C 57.703125 0.703125 51.976562 1.546875 46.25 1.546875 C 38.175781 1.546875 30.90625 -0.160156 24.4375 -3.578125 C 17.976562 -6.992188 12.914062 -11.75 9.25 -17.84375 C 5.582031 -23.9375 3.75 -30.835938 3.75 -38.546875 C 3.75 -46.253906 5.582031 -53.15625 9.25 -59.25 C 12.914062 -65.34375 18.015625 -70.09375 24.546875 -73.5 C 31.085938 -76.914062 38.46875 -78.625 46.6875 -78.625 C 53.882812 -78.625 60.347656 -77.410156 66.078125 -74.984375 C 71.804688 -72.566406 76.578125 -69.082031 80.390625 -64.53125 L 66.515625 -51.984375 C 61.304688 -57.703125 55.066406 -60.5625 47.796875 -60.5625 C 41.191406 -60.5625 35.867188 -58.5625 31.828125 -54.5625 C 27.785156 -50.5625 25.765625 -45.222656 25.765625 -38.546875 C 25.765625 -34.285156 26.679688 -30.484375 28.515625 -27.140625 C 30.359375 -23.804688 32.929688 -21.203125 36.234375 -19.328125 C 39.535156 -17.453125 43.316406 -16.515625 47.578125 -16.515625 C 51.753906 -16.515625 55.679688 -17.359375 59.359375 -19.046875 Z M 59.359375 -40.203125 "/></g></g></g><g fill="#ffffff" fill-opacity="1"><g transform="translate(518.61363, 1140.497952)"><g><path d="M 69.59375 -16.84375 L 69.59375 0 L 7.703125 0 L 7.703125 -77.09375 L 68.171875 -77.09375 L 68.171875 -60.234375 L 29.296875 -60.234375 L 29.296875 -47.25 L 63.546875 -47.25 L 63.546875 -30.9375 L 29.296875 -30.9375 L 29.296875 -16.84375 Z M 69.59375 -16.84375 "/></g></g></g><g fill="#ffffff" fill-opacity="1"><g transform="translate(592.615012, 1140.497952)"><g/></g></g><g fill="#ffffff" fill-opacity="1"><g transform="translate(624.660252, 1140.497952)"><g><path d="M 46.578125 1.546875 C 38.429688 1.546875 31.109375 -0.175781 24.609375 -3.625 C 18.109375 -7.082031 13.003906 -11.859375 9.296875 -17.953125 C 5.597656 -24.046875 3.75 -30.910156 3.75 -38.546875 C 3.75 -46.179688 5.597656 -53.046875 9.296875 -59.140625 C 13.003906 -65.234375 18.109375 -70.003906 24.609375 -73.453125 C 31.109375 -76.898438 38.429688 -78.625 46.578125 -78.625 C 54.734375 -78.625 62.054688 -76.898438 68.546875 -73.453125 C 75.046875 -70.003906 80.148438 -65.234375 83.859375 -59.140625 C 87.566406 -53.046875 89.421875 -46.179688 89.421875 -38.546875 C 89.421875 -30.910156 87.566406 -24.046875 83.859375 -17.953125 C 80.148438 -11.859375 75.046875 -7.082031 68.546875 -3.625 C 62.054688 -0.175781 54.734375 1.546875 46.578125 1.546875 Z M 46.578125 -16.515625 C 50.472656 -16.515625 54 -17.429688 57.15625 -19.265625 C 60.3125 -21.109375 62.804688 -23.695312 64.640625 -27.03125 C 66.472656 -30.375 67.390625 -34.210938 67.390625 -38.546875 C 67.390625 -42.878906 66.472656 -46.710938 64.640625 -50.046875 C 62.804688 -53.390625 60.3125 -55.976562 57.15625 -57.8125 C 54 -59.644531 50.472656 -60.5625 46.578125 -60.5625 C 42.691406 -60.5625 39.171875 -59.644531 36.015625 -57.8125 C 32.859375 -55.976562 30.359375 -53.390625 28.515625 -50.046875 C 26.679688 -46.710938 25.765625 -42.878906 25.765625 -38.546875 C 25.765625 -34.210938 26.679688 -30.375 28.515625 -27.03125 C 30.359375 -23.695312 32.859375 -21.109375 36.015625 -19.265625 C 39.171875 -17.429688 42.691406 -16.515625 46.578125 -16.515625 Z M 46.578125 -16.515625 "/></g></g></g><g fill="#ffffff" fill-opacity="1"><g transform="translate(717.822705, 1140.497952)"><g><path d="M 29.515625 -60.234375 L 29.515625 -43.28125 L 63.546875 -43.28125 L 63.546875 -26.4375 L 29.515625 -26.4375 L 29.515625 0 L 7.703125 0 L 7.703125 -77.09375 L 68.171875 -77.09375 L 68.171875 -60.234375 Z M 29.515625 -60.234375 "/></g></g></g><g fill="#ffffff" fill-opacity="1"><g transform="translate(788.520453, 1140.497952)"><g/></g></g><g fill="#ffffff" fill-opacity="1"><g transform="translate(820.565693, 1140.497952)"><g><path d="M 59.359375 -40.203125 L 78.625 -40.203125 L 78.625 -8.265625 C 74.21875 -5.109375 69.148438 -2.679688 63.421875 -0.984375 C 57.703125 0.703125 51.976562 1.546875 46.25 1.546875 C 38.175781 1.546875 30.90625 -0.160156 24.4375 -3.578125 C 17.976562 -6.992188 12.914062 -11.75 9.25 -17.84375 C 5.582031 -23.9375 3.75 -30.835938 3.75 -38.546875 C 3.75 -46.253906 5.582031 -53.15625 9.25 -59.25 C 12.914062 -65.34375 18.015625 -70.09375 24.546875 -73.5 C 31.085938 -76.914062 38.46875 -78.625 46.6875 -78.625 C 53.882812 -78.625 60.347656 -77.410156 66.078125 -74.984375 C 71.804688 -72.566406 76.578125 -69.082031 80.390625 -64.53125 L 66.515625 -51.984375 C 61.304688 -57.703125 55.066406 -60.5625 47.796875 -60.5625 C 41.191406 -60.5625 35.867188 -58.5625 31.828125 -54.5625 C 27.785156 -50.5625 25.765625 -45.222656 25.765625 -38.546875 C 25.765625 -34.285156 26.679688 -30.484375 28.515625 -27.140625 C 30.359375 -23.804688 32.929688 -21.203125 36.234375 -19.328125 C 39.535156 -17.453125 43.316406 -16.515625 47.578125 -16.515625 C 51.753906 -16.515625 55.679688 -17.359375 59.359375 -19.046875 Z M 59.359375 -40.203125 "/></g></g></g><g fill="#ffffff" fill-opacity="1"><g transform="translate(905.358944, 1140.497952)"><g><path d="M 46.578125 1.546875 C 38.429688 1.546875 31.109375 -0.175781 24.609375 -3.625 C 18.109375 -7.082031 13.003906 -11.859375 9.296875 -17.953125 C 5.597656 -24.046875 3.75 -30.910156 3.75 -38.546875 C 3.75 -46.179688 5.597656 -53.046875 9.296875 -59.140625 C 13.003906 -65.234375 18.109375 -70.003906 24.609375 -73.453125 C 31.109375 -76.898438 38.429688 -78.625 46.578125 -78.625 C 54.734375 -78.625 62.054688 -76.898438 68.546875 -73.453125 C 75.046875 -70.003906 80.148438 -65.234375 83.859375 -59.140625 C 87.566406 -53.046875 89.421875 -46.179688 89.421875 -38.546875 C 89.421875 -30.910156 87.566406 -24.046875 83.859375 -17.953125 C 80.148438 -11.859375 75.046875 -7.082031 68.546875 -3.625 C 62.054688 -0.175781 54.734375 1.546875 46.578125 1.546875 Z M 46.578125 -16.515625 C 50.472656 -16.515625 54 -17.429688 57.15625 -19.265625 C 60.3125 -21.109375 62.804688 -23.695312 64.640625 -27.03125 C 66.472656 -30.375 67.390625 -34.210938 67.390625 -38.546875 C 67.390625 -42.878906 66.472656 -46.710938 64.640625 -50.046875 C 62.804688 -53.390625 60.3125 -55.976562 57.15625 -57.8125 C 54 -59.644531 50.472656 -60.5625 46.578125 -60.5625 C 42.691406 -60.5625 39.171875 -59.644531 36.015625 -57.8125 C 32.859375 -55.976562 30.359375 -53.390625 28.515625 -50.046875 C 26.679688 -46.710938 25.765625 -42.878906 25.765625 -38.546875 C 25.765625 -34.210938 26.679688 -30.375 28.515625 -27.03125 C 30.359375 -23.695312 32.859375 -21.109375 36.015625 -19.265625 C 39.171875 -17.429688 42.691406 -16.515625 46.578125 -16.515625 Z M 46.578125 -16.515625 "/></g></g></g><g fill="#ffffff" fill-opacity="1"><g transform="translate(998.521397, 1140.497952)"><g><path d="M 7.703125 -77.09375 L 44.15625 -77.09375 C 52.601562 -77.09375 60.09375 -75.507812 66.625 -72.34375 C 73.15625 -69.1875 78.21875 -64.707031 81.8125 -58.90625 C 85.414062 -53.113281 87.21875 -46.328125 87.21875 -38.546875 C 87.21875 -30.765625 85.414062 -23.972656 81.8125 -18.171875 C 78.21875 -12.367188 73.15625 -7.890625 66.625 -4.734375 C 60.09375 -1.578125 52.601562 0 44.15625 0 L 7.703125 0 Z M 43.28125 -17.40625 C 49.882812 -17.40625 55.1875 -19.273438 59.1875 -23.015625 C 63.1875 -26.753906 65.1875 -31.929688 65.1875 -38.546875 C 65.1875 -45.148438 63.1875 -50.320312 59.1875 -54.0625 C 55.1875 -57.8125 49.882812 -59.6875 43.28125 -59.6875 L 29.515625 -59.6875 L 29.515625 -17.40625 Z M 43.28125 -17.40625 "/></g></g></g><g fill="#ffffff" fill-opacity="1"><g transform="translate(211.876812, 594.142678)"><g><path d="M 49.046875 -12.375 L 22.109375 -12.375 L 17.109375 0 L -1.28125 0 L 26.84375 -63.6875 L 44.578125 -63.6875 L 72.78125 0 L 54.046875 0 Z M 43.765625 -25.65625 L 35.578125 -46.03125 L 27.390625 -25.65625 Z M 43.765625 -25.65625 "/></g></g></g><g fill="#ffffff" fill-opacity="1"><g transform="translate(283.381322, 594.142678)"><g/></g></g><g fill="#ffffff" fill-opacity="1"><g transform="translate(309.854366, 594.142678)"><g><path d="M 106.265625 -63.6875 L 85.609375 0 L 66.328125 0 L 54.140625 -38.765625 L 41.390625 0 L 22.109375 0 L 1.453125 -63.6875 L 20.015625 -63.6875 L 32.84375 -23.015625 L 46.3125 -63.6875 L 62.875 -63.6875 L 75.703125 -22.65625 L 89.078125 -63.6875 Z M 106.265625 -63.6875 "/></g></g></g><g fill="#ffffff" fill-opacity="1"><g transform="translate(417.565988, 594.142678)"><g><path d="M 38.484375 1.28125 C 31.753906 1.28125 25.703125 -0.144531 20.328125 -3 C 14.960938 -5.851562 10.75 -9.796875 7.6875 -14.828125 C 4.625 -19.859375 3.09375 -25.53125 3.09375 -31.84375 C 3.09375 -38.15625 4.625 -43.828125 7.6875 -48.859375 C 10.75 -53.890625 14.960938 -57.832031 20.328125 -60.6875 C 25.703125 -63.539062 31.753906 -64.96875 38.484375 -64.96875 C 45.210938 -64.96875 51.257812 -63.539062 56.625 -60.6875 C 62 -57.832031 66.21875 -53.890625 69.28125 -48.859375 C 72.34375 -43.828125 73.875 -38.15625 73.875 -31.84375 C 73.875 -25.53125 72.34375 -19.859375 69.28125 -14.828125 C 66.21875 -9.796875 62 -5.851562 56.625 -3 C 51.257812 -0.144531 45.210938 1.28125 38.484375 1.28125 Z M 38.484375 -13.640625 C 41.703125 -13.640625 44.613281 -14.398438 47.21875 -15.921875 C 49.832031 -17.441406 51.894531 -19.578125 53.40625 -22.328125 C 54.925781 -25.085938 55.6875 -28.257812 55.6875 -31.84375 C 55.6875 -35.425781 54.925781 -38.59375 53.40625 -41.34375 C 51.894531 -44.101562 49.832031 -46.242188 47.21875 -47.765625 C 44.613281 -49.285156 41.703125 -50.046875 38.484375 -50.046875 C 35.273438 -50.046875 32.363281 -49.285156 29.75 -47.765625 C 27.144531 -46.242188 25.082031 -44.101562 23.5625 -41.34375 C 22.050781 -38.59375 21.296875 -35.425781 21.296875 -31.84375 C 21.296875 -28.257812 22.050781 -25.085938 23.5625 -22.328125 C 25.082031 -19.578125 27.144531 -17.441406 29.75 -15.921875 C 32.363281 -14.398438 35.273438 -13.640625 38.484375 -13.640625 Z M 38.484375 -13.640625 "/></g></g></g><g fill="#ffffff" fill-opacity="1"><g transform="translate(494.52885, 594.142678)"><g><path d="M 34.203125 -16.921875 L 24.390625 -16.921875 L 24.390625 0 L 6.375 0 L 6.375 -63.6875 L 35.484375 -63.6875 C 41.242188 -63.6875 46.242188 -62.726562 50.484375 -60.8125 C 54.734375 -58.90625 58.007812 -56.175781 60.3125 -52.625 C 62.625 -49.082031 63.78125 -44.914062 63.78125 -40.125 C 63.78125 -35.507812 62.703125 -31.488281 60.546875 -28.0625 C 58.390625 -24.632812 55.3125 -21.953125 51.3125 -20.015625 L 65.046875 0 L 45.765625 0 Z M 45.578125 -40.125 C 45.578125 -43.09375 44.632812 -45.394531 42.75 -47.03125 C 40.875 -48.675781 38.085938 -49.5 34.390625 -49.5 L 24.390625 -49.5 L 24.390625 -30.84375 L 34.390625 -30.84375 C 38.085938 -30.84375 40.875 -31.644531 42.75 -33.25 C 44.632812 -34.863281 45.578125 -37.15625 45.578125 -40.125 Z M 45.578125 -40.125 "/></g></g></g><g fill="#ffffff" fill-opacity="1"><g transform="translate(561.848599, 594.142678)"><g><path d="M 6.375 -63.6875 L 24.390625 -63.6875 L 24.390625 -14.28125 L 54.765625 -14.28125 L 54.765625 0 L 6.375 0 Z M 6.375 -63.6875 "/></g></g></g><g fill="#ffffff" fill-opacity="1"><g transform="translate(617.341911, 594.142678)"><g><path d="M 6.375 -63.6875 L 36.484375 -63.6875 C 43.460938 -63.6875 49.648438 -62.378906 55.046875 -59.765625 C 60.441406 -57.160156 64.625 -53.460938 67.59375 -48.671875 C 70.570312 -43.878906 72.0625 -38.269531 72.0625 -31.84375 C 72.0625 -25.414062 70.570312 -19.804688 67.59375 -15.015625 C 64.625 -10.222656 60.441406 -6.519531 55.046875 -3.90625 C 49.648438 -1.300781 43.460938 0 36.484375 0 L 6.375 0 Z M 35.75 -14.375 C 41.21875 -14.375 45.601562 -15.921875 48.90625 -19.015625 C 52.207031 -22.109375 53.859375 -26.382812 53.859375 -31.84375 C 53.859375 -37.300781 52.207031 -41.578125 48.90625 -44.671875 C 45.601562 -47.765625 41.21875 -49.3125 35.75 -49.3125 L 24.390625 -49.3125 L 24.390625 -14.375 Z M 35.75 -14.375 "/></g></g></g><g fill="#ffffff" fill-opacity="1"><g transform="translate(692.485322, 594.142678)"><g/></g></g><g fill="#ffffff" fill-opacity="1"><g transform="translate(718.958342, 594.142678)"><g><path d="M 106.265625 -63.6875 L 85.609375 0 L 66.328125 0 L 54.140625 -38.765625 L 41.390625 0 L 22.109375 0 L 1.453125 -63.6875 L 20.015625 -63.6875 L 32.84375 -23.015625 L 46.3125 -63.6875 L 62.875 -63.6875 L 75.703125 -22.65625 L 89.078125 -63.6875 Z M 106.265625 -63.6875 "/></g></g></g><g fill="#ffffff" fill-opacity="1"><g transform="translate(826.669943, 594.142678)"><g><path d="M 66.96875 -63.6875 L 66.96875 0 L 48.953125 0 L 48.953125 -24.84375 L 24.390625 -24.84375 L 24.390625 0 L 6.375 0 L 6.375 -63.6875 L 24.390625 -63.6875 L 24.390625 -39.765625 L 48.953125 -39.765625 L 48.953125 -63.6875 Z M 66.96875 -63.6875 "/></g></g></g><g fill="#ffffff" fill-opacity="1"><g transform="translate(899.993881, 594.142678)"><g><path d="M 57.5 -13.921875 L 57.5 0 L 6.375 0 L 6.375 -63.6875 L 56.3125 -63.6875 L 56.3125 -49.765625 L 24.203125 -49.765625 L 24.203125 -39.03125 L 52.5 -39.03125 L 52.5 -25.5625 L 24.203125 -25.5625 L 24.203125 -13.921875 Z M 57.5 -13.921875 "/></g></g></g><g fill="#ffffff" fill-opacity="1"><g transform="translate(961.127482, 594.142678)"><g><path d="M 34.203125 -16.921875 L 24.390625 -16.921875 L 24.390625 0 L 6.375 0 L 6.375 -63.6875 L 35.484375 -63.6875 C 41.242188 -63.6875 46.242188 -62.726562 50.484375 -60.8125 C 54.734375 -58.90625 58.007812 -56.175781 60.3125 -52.625 C 62.625 -49.082031 63.78125 -44.914062 63.78125 -40.125 C 63.78125 -35.507812 62.703125 -31.488281 60.546875 -28.0625 C 58.390625 -24.632812 55.3125 -21.953125 51.3125 -20.015625 L 65.046875 0 L 45.765625 0 Z M 45.578125 -40.125 C 45.578125 -43.09375 44.632812 -45.394531 42.75 -47.03125 C 40.875 -48.675781 38.085938 -49.5 34.390625 -49.5 L 24.390625 -49.5 L 24.390625 -30.84375 L 34.390625 -30.84375 C 38.085938 -30.84375 40.875 -31.644531 42.75 -33.25 C 44.632812 -34.863281 45.578125 -37.15625 45.578125 -40.125 Z M 45.578125 -40.125 "/></g></g></g><g fill="#ffffff" fill-opacity="1"><g transform="translate(1028.447209, 594.142678)"><g><path d="M 57.5 -13.921875 L 57.5 0 L 6.375 0 L 6.375 -63.6875 L 56.3125 -63.6875 L 56.3125 -49.765625 L 24.203125 -49.765625 L 24.203125 -39.03125 L 52.5 -39.03125 L 52.5 -25.5625 L 24.203125 -25.5625 L 24.203125 -13.921875 Z M 57.5 -13.921875 "/></g></g></g><g fill="#ffffff" fill-opacity="1"><g transform="translate(1089.587676, 594.142678)"><g/></g></g></svg>